<svg xmlns="http://www.w3.org/2000/svg" width="619.7122052727581" height="598.1425384546602" viewBox="8.75801523204509 13.439998664514697 619.7122052727581 598.1425384546602">
<circle cx="35.622" cy="326.778" r="2" fill="#234669" />
<circle cx="36.15585013267749" cy="309.88181255835804" r="2" fill="#243559" />
<circle cx="36.30680049003369" cy="292.88632251157617" r="2" fill="#242448" />
<circle cx="28.144430278316577" cy="283.949" r="2" fill="#1C1B37" />
<circle cx="18.75801523204509" cy="273.434394100668" r="2" fill="#121123" />
<circle cx="28.49663079102026" cy="259.31254472024057" r="2" fill="#1C031F" />
<circle cx="29.573311861772726" cy="242.4014167316349" r="2" fill="#1DF20F" />
<circle cx="32.18266057920984" cy="225.78979223898955" r="2" fill="#20E101" />
<circle cx="45.85222744386558" cy="217.66830791544595" r="2" fill="#2DD906" />
<circle cx="58.84600418307951" cy="208.1663723602782" r="2" fill="#3AD00A" />
<circle cx="68.78789043944914" cy="194.4266544428935" r="2" fill="#44C206" />
<circle cx="75.25278309902005" cy="180.16166862310735" r="2" fill="#4BB4FF" />
<circle cx="66.54238454238188" cy="165.73299346869953" r="2" fill="#42A5E7" />
<circle cx="70.87116011152602" cy="150.04851048221593" r="2" fill="#4696DC" />
<circle cx="85.62511161679907" cy="143.56342809626804" r="2" fill="#558FE4" />
<circle cx="102.56213483913069" cy="144.1907877255195" r="2" fill="#6690F6" />
<circle cx="113.85104943529818" cy="132.6003106917463" r="2" fill="#7184F5" />
<circle cx="130.5518826852051" cy="129.86892793466893" r="2" fill="#828103" />
<circle cx="147.63464924662372" cy="128.54394634713555" r="2" fill="#938013" />
<circle cx="161.0033692425003" cy="119.35280576737688" r="2" fill="#A17718" />
<circle cx="155.78802376447146" cy="104.47962182904536" r="2" fill="#9B6803" />
<circle cx="146.29980132332145" cy="117.24256206889136" r="2" fill="#927507" />
<circle cx="132.77278866263558" cy="117.15283072178559" r="2" fill="#8475F9" />
<circle cx="134.72596367905442" cy="101.6353785650732" r="2" fill="#8665EB" />
<circle cx="149.86249052370755" cy="94.5986144105385" r="2" fill="#955EF3" />
<circle cx="155.53283236641894" cy="79.05058555066242" r="2" fill="#9B4FEA" />
<circle cx="163.20566415210345" cy="65.02166324490119" r="2" fill="#A341E4" />
<circle cx="179.82051099593076" cy="65.95811713668486" r="2" fill="#B341F4" />
<circle cx="195.93489881165797" cy="60.622489550702824" r="2" fill="#C33CFF" />
<circle cx="211.85818540202737" cy="54.74906972476526" r="2" fill="#D33609" />
<circle cx="227.1102224203433" cy="47.75221687643425" r="2" fill="#E32F12" />
<circle cx="231.5446737984885" cy="32.367482732523186" r="2" fill="#E72007" />
<circle cx="246.87638606382055" cy="34.25609729164913" r="2" fill="#F62218" />
<circle cx="260.15941595882276" cy="36.78871176641349" r="2" fill="#042428" />
<circle cx="274.75756969269924" cy="28.02722356329178" r="2" fill="#121C2E" />
<circle cx="290.8996078737192" cy="23.439998664514697" r="2" fill="#221739" />
<circle cx="307.13579099340814" cy="27.461439533653024" r="2" fill="#331B4E" />
<circle cx="318.5862454781717" cy="39.38162869806221" r="2" fill="#3E2765" />
<circle cx="324.01263924151203" cy="46.228106497632425" r="2" fill="#442E72" />
<circle cx="333.14313232759497" cy="32.02133335322095" r="2" fill="#4D206D" />
<circle cx="348.9483194200107" cy="27.070662587987325" r="2" fill="#5C1B77" />
<circle cx="365.7909954785093" cy="28.56225675658703" r="2" fill="#6D1C89" />
<circle cx="382.37470611032114" cy="32.16689788287247" r="2" fill="#7E209E" />
<circle cx="399.1192880741969" cy="34.924122880442425" r="2" fill="#8F22B1" />
<circle cx="414.34477923326835" cy="40.5447894094802" r="2" fill="#9E28C6" />
<circle cx="422.09042104060865" cy="54.53769757719052" r="2" fill="#A636DC" />
<circle cx="435.9033138272647" cy="64.40042434922292" r="2" fill="#B340F3" />
<circle cx="449.9756141529492" cy="73.8973091695833" r="2" fill="#C1490A" />
<circle cx="464.2651161762485" cy="83.04675832404305" r="2" fill="#D05323" />
<circle cx="478.64032048619845" cy="92.06054604766064" r="2" fill="#DE5C3A" />
<circle cx="493.0963127621959" cy="100.95062677786201" r="2" fill="#ED6451" />
<circle cx="507.63311925816026" cy="109.71702676856637" r="2" fill="#FB6D68" />
<circle cx="522.2507662280107" cy="118.35977227369295" r="2" fill="#0A7680" />
<circle cx="536.9492799256666" cy="126.87888954716092" r="2" fill="#187E96" />
<circle cx="554.0280513332199" cy="128.42697396503866" r="2" fill="#2A80AA" />
<circle cx="565.1008646434735" cy="137.17476487412512" r="2" fill="#3589BE" />
<circle cx="568.3452442035214" cy="154.56515710681455" r="2" fill="#389AD2" />
<circle cx="575.7558082957396" cy="169.8660244908766" r="2" fill="#3FA9E8" />
<circle cx="583.9519046432131" cy="184.69932345439415" r="2" fill="#47B8FF" />
<circle cx="592.9336427783569" cy="199.0650539973671" r="2" fill="#50C717" />
<circle cx="603.5673395557417" cy="213.27900904465605" r="2" fill="#5BD530" />
<circle cx="600.5836823489199" cy="227.32839711840438" r="2" fill="#58E33B" />
<circle cx="586.37375711822" cy="237.20093422977763" r="2" fill="#4AED37" />
<circle cx="578.8465679427877" cy="252.4892599053121" r="2" fill="#42FC3E" />
<circle cx="573.0294296128689" cy="268.3665913870131" r="2" fill="#3D0C49" />
<circle cx="583.0946272829592" cy="275.95435433765357" r="2" fill="#47135A" />
<circle cx="592.2352020155686" cy="262.1429520364986" r="2" fill="#500656" />
<circle cx="608.3979445443788" cy="261.96377869106055" r="2" fill="#600565" />
<circle cx="614.0592502365455" cy="276.7130174946235" r="2" fill="#66147A" />
<circle cx="606.8308100606356" cy="291.76999499850297" r="2" fill="#5E2381" />
<circle cx="609.0099992116128" cy="308.1026183510459" r="2" fill="#613495" />
<circle cx="618.4702205048031" cy="321.06100260645263" r="2" fill="#6A41AB" />
<circle cx="609.9973905371069" cy="334.96884573891543" r="2" fill="#614EAF" />
<circle cx="603.2930642845" cy="349.9247357673328" r="2" fill="#5B5DB8" />
<circle cx="607.4765020382545" cy="366.1073418299814" r="2" fill="#5F6ECD" />
<circle cx="602.4790494345616" cy="381.03109889557106" r="2" fill="#5A7DD7" />
<circle cx="598.0651017801773" cy="397.04790169628075" r="2" fill="#568DE3" />
<circle cx="606.4532235703217" cy="411.42894339848834" r="2" fill="#5E9BF9" />
<circle cx="604.093860395002" cy="426.91901154034747" r="2" fill="#5CAA06" />
<circle cx="588.9525932600533" cy="431.6321939674653" r="2" fill="#4CAFFB" />
<circle cx="573.4217267711871" cy="430.63320915523343" r="2" fill="#3DAEEB" />
<circle cx="557.4066307665678" cy="436.25660609166283" r="2" fill="#2DB4E1" />
<circle cx="541.3224295297492" cy="441.6973558098057" r="2" fill="#1DB9D6" />
<circle cx="552.0227734084289" cy="450.73018895740756" r="2" fill="#28C2EA" />
<circle cx="568.2739158394036" cy="448.3553281550972" r="2" fill="#38C0F8" />
<circle cx="580.5671188407158" cy="459.1346007667747" r="2" fill="#44CB0F" />
<circle cx="573.9770626826769" cy="473.9206823127966" r="2" fill="#3DD916" />
<circle cx="557.6078762334274" cy="474.2523887662611" r="2" fill="#2DDA07" />
<circle cx="542.8649163826468" cy="482.12247762265787" r="2" fill="#1EE200" />
<circle cx="529.0981670690776" cy="492.04685887219375" r="2" fill="#11ECFD" />
<circle cx="515.7215471000924" cy="502.479962727575" r="2" fill="#03F6F9" />
<circle cx="521.8034954969916" cy="514.7800960363285" r="2" fill="#09020B" />
<circle cx="518.4422239616206" cy="529.5153654139534" r="2" fill="#061117" />
<circle cx="500.5325305854703" cy="532.846814467175" r="2" fill="#F41408" />
<circle cx="491.48481768663817" cy="523.2712896641722" r="2" fill="#EB0BF6" />
<circle cx="487.71792515096644" cy="512.4688145751006" r="2" fill="#E700E7" />
<circle cx="473.26646194746957" cy="521.1114612131998" r="2" fill="#D909E2" />
<circle cx="460.74993154241724" cy="532.5607857391419" r="2" fill="#CC14E0" />
<circle cx="450.4991204063909" cy="546.1130827500967" r="2" fill="#C222E4" />
<circle cx="441.6636352187114" cy="560.5928779586168" r="2" fill="#B930E9" />
<circle cx="431.1713879566307" cy="572.4872201442888" r="2" fill="#AF3CEB" />
<circle cx="420.9346234630154" cy="558.6870586416617" r="2" fill="#A42ED2" />
<circle cx="407.53444435816755" cy="564.2913053297164" r="2" fill="#9734CB" />
<circle cx="397.5558221127937" cy="579.0648311251679" r="2" fill="#8D43D0" />
<circle cx="386.7684379898151" cy="592.0912548358463" r="2" fill="#8250D2" />
<circle cx="373.0210333974469" cy="601.582537119175" r="2" fill="#7559CE" />
<circle cx="356.9470241700751" cy="597.8281826303742" r="2" fill="#6455B9" />
<circle cx="343.86779026914144" cy="587.0800671154117" r="2" fill="#574BA2" />
<circle cx="330.8212836956196" cy="576.2418244482262" r="2" fill="#4A408A" />
<circle cx="315.77482179136183" cy="568.7957406676867" r="2" fill="#3B3873" />
<circle cx="298.9371633801789" cy="566.7086597328944" r="2" fill="#2A3660" />
<circle cx="281.9676589188681" cy="566.8048778011726" r="2" fill="#19364F" />
<circle cx="266.2978590667707" cy="570.5469197666039" r="2" fill="#0A3A44" />
<circle cx="273.58648435005216" cy="585.5512152301701" r="2" fill="#11495A" />
<circle cx="264.9928113263483" cy="598.9764815108836" r="2" fill="#08565E" />
<circle cx="249.83636308620646" cy="594.0544821291473" r="2" fill="#F9524B" />
<circle cx="237.4094307996024" cy="584.4094097061236" r="2" fill="#ED4835" />
<circle cx="221.26546784464114" cy="586.0912493808149" r="2" fill="#DD4A27" />
<circle cx="206.73390652503554" cy="592.5875078331292" r="2" fill="#CE501E" />
<circle cx="192.88183094036262" cy="582.889186210143" r="2" fill="#C04606" />
<circle cx="182.15024750378677" cy="570.8526022598837" r="2" fill="#B63AF0" />
<circle cx="185.40862468158812" cy="554.4052583367362" r="2" fill="#B92AE3" />
<circle cx="194.92454715632087" cy="540.65499571179" r="2" fill="#C21CDE" />
<circle cx="204.41256304502286" cy="529.046019030337" r="2" fill="#CC11DD" />
<circle cx="190.7013555631034" cy="519.1164708724492" r="2" fill="#BE07C5" />
<circle cx="175.56682888023659" cy="511.39239019767643" r="2" fill="#AFFFAE" />
<circle cx="160.51148974609032" cy="507.1967168094908" r="2" fill="#A0FB9B" />
<circle cx="146.63385103775835" cy="516.9376942491447" r="2" fill="#920496" />
<circle cx="132.1637793252546" cy="525.9365728562416" r="2" fill="#840D91" />
<circle cx="115.66445216533978" cy="528.0069230364888" r="2" fill="#731083" />
<circle cx="103.03098635473803" cy="517.1825152929459" r="2" fill="#67056C" />
<circle cx="94.43127308047436" cy="502.7106054570895" r="2" fill="#5EF654" />
<circle cx="92.91735587456712" cy="486.13191647388186" r="2" fill="#5CE642" />
<circle cx="102.56433975275607" cy="472.37775002151744" r="2" fill="#66D83E" />
<circle cx="113.44053111170865" cy="461.0058702677459" r="2" fill="#71CD3E" />
<circle cx="105.2592356677133" cy="446.0422668989898" r="2" fill="#69BE27" />
<circle cx="96.23924168150484" cy="431.68903029472847" r="2" fill="#60AF0F" />
<circle cx="82.10402999021318" cy="431.81592249444503" r="2" fill="#52AF01" />
<circle cx="66.00188209850614" cy="428.83249581899923" r="2" fill="#42ACEE" />
<circle cx="65.17099913217551" cy="412.4858089370146" r="2" fill="#419CDD" />
<circle cx="79.48199904344649" cy="407.2046288332597" r="2" fill="#4F97E6" />
<circle cx="93.85754954376605" cy="410.34773685350103" r="2" fill="#5D9AF7" />
<circle cx="90.86104861180726" cy="392.2008068395092" r="2" fill="#5A88E2" />
<circle cx="81.16265062767273" cy="381.07172403146194" r="2" fill="#517DCE" />
<circle cx="64.63700003410798" cy="377.199355563477" r="2" fill="#4079B9" />
<circle cx="58.88831394433621" cy="390.3328139205011" r="2" fill="#3A86C0" />
<circle cx="57.42701253120314" cy="407.2102082200724" r="2" fill="#3997D0" />
<circle cx="39.898726021514406" cy="409.17311656639686" r="2" fill="#2799C0" />
<circle cx="31.544040828389136" cy="399.59715319459013" r="2" fill="#1F8FAE" />
<circle cx="36.90002369630656" cy="382.12266076114025" r="2" fill="#247EA2" />
<circle cx="50.62089872773034" cy="372.75532821752324" r="2" fill="#3274A6" />
<circle cx="51.30537973473642" cy="355.99426966063214" r="2" fill="#336396" />
<circle cx="50.214422908914024" cy="339.06408040968444" r="2" fill="#325385" />
<circle cx="42.01664578831283" cy="340.71804327614274" r="2" fill="#2A547E" />
<circle cx="31.02393349376638" cy="352.42701961911047" r="2" fill="#1F607F" />
<circle cx="19.87241064420222" cy="341.7888682196531" r="2" fill="#135568" />
<circle cx="28.676466786090618" cy="329.28703115575644" r="2" fill="#1C4965" />
<circle cx="296.65087119444996" cy="31.70853938392854" r="2" fill="#281F47" />
<circle cx="310.91490867765" cy="39.70073871814257" r="2" fill="#36275D" />
<circle cx="316.3822932349909" cy="55.36320722160082" r="2" fill="#3C3773" />
<circle cx="300.8854466298797" cy="58.85125089653943" r="2" fill="#2C3A66" />
<circle cx="284.02952935568067" cy="58.21819718002388" r="2" fill="#1C3A56" />
<circle cx="267.4611324971821" cy="55.312266580461966" r="2" fill="#0B3742" />
<circle cx="253.03839305129094" cy="49.82016253456871" r="2" fill="#FD312E" />
<circle cx="266.7090393761046" cy="39.847585044920145" r="2" fill="#0A2731" />
<circle cx="281.85223577984897" cy="32.16129763651501" r="2" fill="#192039" />
<circle cx="329.9159999999999" cy="55.717350138977906" r="2" fill="#493780" />
<circle cx="335.2372754313666" cy="39.47526521584408" r="2" fill="#4F2776" />
<circle cx="349.0894650051746" cy="33.07142448787873" r="2" fill="#5D217E" />
<circle cx="366.54864195321704" cy="35.621577840096" r="2" fill="#6E2391" />
<circle cx="383.16015791326913" cy="39.11597447765945" r="2" fill="#7F27A6" />
<circle cx="388.84768689191463" cy="51.158392112212205" r="2" fill="#8433B7" />
<circle cx="377.4779725421736" cy="56.973561949343335" r="2" fill="#7938B1" />
<circle cx="360.50327169758685" cy="57.138115671849505" r="2" fill="#6839A1" />
<circle cx="343.5313487640617" cy="57.47079124611188" r="2" fill="#573990" />
<circle cx="243.30505503982215" cy="43.336375630711885" r="2" fill="#F32B1E" />
<circle cx="400.4241232523196" cy="42.10620939861468" r="2" fill="#902ABA" />
<circle cx="409.5255403457461" cy="51.95928192531938" r="2" fill="#9933CC" />
<circle cx="395.8404930237247" cy="52.11449826957896" r="2" fill="#8B34BF" />
<circle cx="329.91599999999994" cy="55.869411806445484" r="2" fill="#493780" />
<circle cx="334.32880453397837" cy="58.19049200095918" r="2" fill="#4E3A88" />
<circle cx="242.53529188272677" cy="54.748945363690694" r="2" fill="#F23628" />
<circle cx="258.8603098333582" cy="59.36824674662202" r="2" fill="#023B3D" />
<circle cx="275.26899206964794" cy="63.782290247829636" r="2" fill="#133F52" />
<circle cx="292.1935660580755" cy="64.78688053281138" r="2" fill="#244064" />
<circle cx="309.167209820391" cy="64.98547833263422" r="2" fill="#354075" />
<circle cx="308.7595183157038" cy="74.52477677538373" r="2" fill="#344A7E" />
<circle cx="292.8030215469956" cy="79.95412696588888" r="2" fill="#244F73" />
<circle cx="275.9330474565504" cy="80.65949043163835" r="2" fill="#135063" />
<circle cx="262.5441949708642" cy="72.85674166567023" r="2" fill="#06484E" />
<circle cx="247.59254751642507" cy="70.6431595061596" r="2" fill="#F7463D" />
<circle cx="231.1416074153658" cy="74.58762628865514" r="2" fill="#E74A31" />
<circle cx="223.03207626902497" cy="69.84886869557563" r="2" fill="#DF4524" />
<circle cx="233.42589493557617" cy="56.41942937829963" r="2" fill="#E93821" />
<circle cx="218.11040496250317" cy="66.43758028684852" r="2" fill="#DA421C" />
<circle cx="204.009531866029" cy="73.92573855796621" r="2" fill="#CC4915" />
<circle cx="187.06131933585243" cy="74.77428371058637" r="2" fill="#BB4A05" />
<circle cx="188.43153772515151" cy="70.5630224826599" r="2" fill="#BC4602" />
<circle cx="204.20375609333314" cy="64.12349983633247" r="2" fill="#CC400C" />
<circle cx="219.94888998988313" cy="57.8631882870697" r="2" fill="#DB3914" />
<circle cx="57.648" cy="355.71275068966736" r="2" fill="#39639C" />
<circle cx="57.64800000000001" cy="338.73683214829623" r="2" fill="#39528B" />
<circle cx="69.57939912841269" cy="335.35101318888616" r="2" fill="#454F94" />
<circle cx="77.60798530174324" cy="349.67361824518156" r="2" fill="#4D5DAA" />
<circle cx="90.54875032359215" cy="340.74773021128794" r="2" fill="#5A54AE" />
<circle cx="85.49926887538183" cy="329.1197142278959" r="2" fill="#55499E" />
<circle cx="76.87139813812318" cy="317.0327329286552" r="2" fill="#4C3D89" />
<circle cx="76.56000697422832" cy="300.0682411072988" r="2" fill="#4C2C78" />
<circle cx="78.11234635272059" cy="284.45169147209947" r="2" fill="#4E1C6A" />
<circle cx="93.25988562830926" cy="277.6703288548837" r="2" fill="#5D1572" />
<circle cx="86.70795066245087" cy="264.5272900030125" r="2" fill="#56085E" />
<circle cx="73.36275138550526" cy="270.05107179711683" r="2" fill="#490E57" />
<circle cx="60.59405534490131" cy="278.7402340144923" r="2" fill="#3C1652" />
<circle cx="43.85145698089965" cy="277.52508281869365" r="2" fill="#2B1540" />
<circle cx="36.95765491668461" cy="262.4760860052518" r="2" fill="#24062A" />
<circle cx="35.626138106895155" cy="245.54952706466764" r="2" fill="#23F518" />
<circle cx="37.50237034167856" cy="228.80446368119172" r="2" fill="#25E409" />
<circle cx="52.128679842354465" cy="226.385497908452" r="2" fill="#34E216" />
<circle cx="65.31712310017014" cy="236.98947137955753" r="2" fill="#41EC2D" />
<circle cx="80.22116355482525" cy="245.14854711502804" r="2" fill="#50F545" />
<circle cx="97.66972399164823" cy="242.2606661112448" r="2" fill="#61F253" />
<circle cx="108.194245717857" cy="232.15320982335075" r="2" fill="#6CE854" />
<circle cx="111.79493315235638" cy="214.82597383244104" r="2" fill="#6FD645" />
<circle cx="105.82752291109624" cy="198.8221560127613" r="2" fill="#69C62F" />
<circle cx="94.62081125954867" cy="186.7174917800447" r="2" fill="#5EBA18" />
<circle cx="90.5984165840562" cy="173.69193658934265" r="2" fill="#5AAD07" />
<circle cx="95.77116541819106" cy="157.70824273753408" r="2" fill="#5F9DFC" />
<circle cx="106.78161318886912" cy="154.50378496402487" r="2" fill="#6A9A04" />
<circle cx="119.26633340407342" cy="163.68840935354436" r="2" fill="#77A31A" />
<circle cx="134.47938916093435" cy="156.80834767196603" r="2" fill="#869C22" />
<circle cx="131.04824452814987" cy="143.2950582389561" r="2" fill="#838F12" />
<circle cx="114.22300070985378" cy="141.52955591237816" r="2" fill="#728DFF" />
<circle cx="129.32344799339143" cy="136.407082712955" r="2" fill="#818809" />
<circle cx="146.37773293396978" cy="135.47310927887042" r="2" fill="#928719" />
<circle cx="161.53110442303034" cy="129.09079897970523" r="2" fill="#A18122" />
<circle cx="168.35322732934208" cy="114.14592755612907" r="2" fill="#A8721A" />
<circle cx="159.83907873328715" cy="100.05051518889674" r="2" fill="#9F6403" />
<circle cx="164.76469206371135" cy="87.15230971529931" r="2" fill="#A457FB" />
<circle cx="180.24124605198526" cy="81.16456519657679" r="2" fill="#B45105" />
<circle cx="197.31765243432395" cy="80.84324918621348" r="2" fill="#C55015" />
<circle cx="202.96692926191906" cy="87.49165167388382" r="2" fill="#CA5721" />
<circle cx="190.6922621985564" cy="98.87445723128958" r="2" fill="#BE6220" />
<circle cx="180.05066004897668" cy="110.64572854501337" r="2" fill="#B46E22" />
<circle cx="189.90083884694258" cy="121.95162471823652" r="2" fill="#BD7936" />
<circle cx="203.40038059173918" cy="113.01402856245956" r="2" fill="#CB713C" />
<circle cx="217.0233828689904" cy="102.95493898110179" r="2" fill="#D9663F" />
<circle cx="232.3719973982574" cy="95.89138638025918" r="2" fill="#E85F47" />
<circle cx="248.2832896952019" cy="90.96263370791843" r="2" fill="#F85A52" />
<circle cx="264.75721888634956" cy="88.16868096407953" r="2" fill="#085860" />
<circle cx="281.79374409822634" cy="87.50952814874246" r="2" fill="#195770" />
<circle cx="299.0510805116241" cy="86.16641024914526" r="2" fill="#2B5681" />
<circle cx="313.29294635176933" cy="78.01057507801116" r="2" fill="#394E87" />
<circle cx="322.05892138814534" cy="65.03429883880416" r="2" fill="#424183" />
<circle cx="329.93887020277197" cy="80.37826750055049" r="2" fill="#495099" />
<circle cx="343.2631481790046" cy="89.40528154939199" r="2" fill="#5759B0" />
<circle cx="359.4767724850039" cy="85.96328426030465" r="2" fill="#6755BC" />
<circle cx="374.5370603958013" cy="78.15179725756462" r="2" fill="#764EC4" />
<circle cx="389.22751101596754" cy="69.60625772362108" r="2" fill="#8545CA" />
<circle cx="404.87027023041173" cy="63.18863614713483" r="2" fill="#943FD3" />
<circle cx="420.0848376786274" cy="62.57970625875093" r="2" fill="#A43EE2" />
<circle cx="434.4135896148402" cy="71.65624562200448" r="2" fill="#B247F9" />
<circle cx="448.6975538284827" cy="80.82663386896843" r="2" fill="#C05010" />
<circle cx="458.7766169716036" cy="91.0792490423589" r="2" fill="#CA5B25" />
<circle cx="449.0187986299982" cy="104.96930314932703" r="2" fill="#C16829" />
<circle cx="438.97012390690827" cy="118.71923927125272" r="2" fill="#B6762C" />
<circle cx="450.8355875776118" cy="129.11148140225208" r="2" fill="#C28143" />
<circle cx="464.7552767677868" cy="138.82950913374543" r="2" fill="#D08A5A" />
<circle cx="478.63129947785376" cy="148.60865896225656" r="2" fill="#DE9472" />
<circle cx="492.46360219349765" cy="158.44893088778554" r="2" fill="#EC9E8A" />
<circle cx="506.25213140040324" cy="168.35032491033235" r="2" fill="#FAA8A2" />
<circle cx="519.9968335842553" cy="178.3128410298969" r="2" fill="#07B2B9" />
<circle cx="529.8142446866577" cy="191.20974693910736" r="2" fill="#11BFD0" />
<circle cx="537.2687594286768" cy="205.66888024679378" r="2" fill="#19CDE6" />
<circle cx="553.3933371562964" cy="204.72607307851752" r="2" fill="#29CCF5" />
<circle cx="569.1900053255438" cy="209.57376522438778" r="2" fill="#39D10A" />
<circle cx="577.8096034507445" cy="223.44976274482474" r="2" fill="#41DF20" />
<circle cx="577.3729807883568" cy="240.0143914355571" r="2" fill="#41F031" />
<circle cx="571.0915147318461" cy="255.59480859134328" r="2" fill="#3BFF3A" />
<circle cx="560.2264997152436" cy="267.65838161200503" r="2" fill="#300B3B" />
<circle cx="548.2526417668795" cy="278.5087201582615" r="2" fill="#24163A" />
<circle cx="553.7795824997045" cy="293.3630189955645" r="2" fill="#29254E" />
<circle cx="568.9724295041037" cy="293.72852084942144" r="2" fill="#38255D" />
<circle cx="582.3056660897613" cy="283.3323998430705" r="2" fill="#461B61" />
<circle cx="597.5485895166236" cy="286.7949747550266" r="2" fill="#551E73" />
<circle cx="600.0901359406787" cy="302.4557990125911" r="2" fill="#582E86" />
<circle cx="591.3286923766575" cy="316.5874433183662" r="2" fill="#4F3C8B" />
<circle cx="595.5735236809791" cy="331.64044407174947" r="2" fill="#534B9E" />
<circle cx="596.855427353363" cy="347.4171298924832" r="2" fill="#545BAF" />
<circle cx="585.8106913525291" cy="358.8556433928289" r="2" fill="#4966AF" />
<circle cx="579.8929133805391" cy="373.51716783443453" r="2" fill="#4375B8" />
<circle cx="590.2259096893106" cy="386.4545184150247" r="2" fill="#4E82D0" />
<circle cx="590.5152889364006" cy="403.05423616287607" r="2" fill="#4E93E1" />
<circle cx="579.5537555429254" cy="415.176004235074" r="2" fill="#439FE2" />
<circle cx="567.0637210086769" cy="425.43160828133216" r="2" fill="#37A9E0" />
<circle cx="551.226601879829" cy="431.44911934058854" r="2" fill="#27AFD6" />
<circle cx="534.8967657151784" cy="434.139635123537" r="2" fill="#16B2C8" />
<circle cx="519.4610634193134" cy="432.03463660433783" r="2" fill="#07B0B7" />
<circle cx="512.6431004276412" cy="446.61121643394574" r="2" fill="#00BEBE" />
<circle cx="523.3649595001865" cy="458.19270072863793" r="2" fill="#0BCAD5" />
<circle cx="539.8585147659288" cy="455.31129414560104" r="2" fill="#1BC7E2" />
<circle cx="552.9911874159197" cy="462.91958092370686" r="2" fill="#28CEF6" />
<circle cx="541.2930628533863" cy="475.1787668654729" r="2" fill="#1DDBF8" />
<circle cx="527.8027991427138" cy="485.47249959721324" r="2" fill="#0FE5F4" />
<circle cx="513.7511594904026" cy="494.9669652923734" r="2" fill="#01EEEF" />
<circle cx="498.6700706090025" cy="502.6849541195406" r="2" fill="#F2F6E8" />
<circle cx="482.5552650245354" cy="507.9857495899772" r="2" fill="#E2FBDD" />
<circle cx="468.319858951025" cy="516.5994375786215" r="2" fill="#D404D8" />
<circle cx="456.0063765148002" cy="528.4906203472718" r="2" fill="#C810D8" />
<circle cx="445.6979462650555" cy="541.9580589643244" r="2" fill="#BD1DDA" />
<circle cx="436.58450117379243" cy="556.2675057834722" r="2" fill="#B42CE0" />
<circle cx="424.36858801658894" cy="553.6198611781532" r="2" fill="#A829D1" />
<circle cx="408.56783624793815" cy="554.5650652483384" r="2" fill="#982AC2" />
<circle cx="397.07778310221113" cy="567.056909716635" r="2" fill="#8D37C4" />
<circle cx="387.70623961759463" cy="581.2112374077983" r="2" fill="#8345C8" />
<circle cx="376.0317970296481" cy="593.3906405739875" r="2" fill="#7851C9" />
<circle cx="359.91008216999825" cy="592.4047157795367" r="2" fill="#6750B7" />
<circle cx="346.6802985871866" cy="581.5180336012509" r="2" fill="#5A459F" />
<circle cx="333.1031022558179" cy="570.484004497342" r="2" fill="#4D3A87" />
<circle cx="318.1154958183033" cy="562.8221249471904" r="2" fill="#3E3270" />
<circle cx="302.380306233244" cy="558.9003101055757" r="2" fill="#2E2E5C" />
<circle cx="285.89765270357407" cy="558.7186195739647" r="2" fill="#1D2E4B" />
<circle cx="268.6676544322278" cy="562.2771129538246" r="2" fill="#0C323E" />
<circle cx="254.39703324976756" cy="571.3348266584102" r="2" fill="#FE3B39" />
<circle cx="239.43189256020852" cy="577.525985782081" r="2" fill="#EF4130" />
<circle cx="222.89595555127715" cy="574.2837020148518" r="2" fill="#DE3E1C" />
<circle cx="210.28892340429306" cy="564.7768704133182" r="2" fill="#D23406" />
<circle cx="196.26376419032982" cy="572.9894000567721" r="2" fill="#C43C00" />
<circle cx="188.9881198607809" cy="563.8288655615952" r="2" fill="#BC33EF" />
<circle cx="196.08918427797644" cy="548.5473858507996" r="2" fill="#C424E8" />
<circle cx="209.16865235363994" cy="538.2992385280622" r="2" fill="#D11AEB" />
<circle cx="208.45493963479447" cy="525.1491007524936" r="2" fill="#D00DDD" />
<circle cx="195.2005747055453" cy="514.7491846227641" r="2" fill="#C302C5" />
<circle cx="180.37583705004215" cy="506.5135269914479" r="2" fill="#B4FAAE" />
<circle cx="165.1625430050012" cy="498.95916766438967" r="2" fill="#A5F297" />
<circle cx="151.22034398195007" cy="505.5774600164832" r="2" fill="#97F990" />
<circle cx="137.595116176491" cy="515.6916061810454" r="2" fill="#89038C" />
<circle cx="121.7366962191812" cy="522.4610483955577" r="2" fill="#790A83" />
<circle cx="108.36248419499836" cy="514.3873278250032" r="2" fill="#6C026E" />
<circle cx="100.11673992811527" cy="499.5260524298012" r="2" fill="#64F357" />
<circle cx="101.25154204357193" cy="483.54655515293507" r="2" fill="#65E348" />
<circle cx="113.5382236605887" cy="471.7465778856504" r="2" fill="#71D748" />
<circle cx="120.67750128026292" cy="460.36621459698944" r="2" fill="#78CC44" />
<circle cx="112.54920297667991" cy="445.44478669857176" r="2" fill="#70BD2D" />
<circle cx="103.99808891506035" cy="430.7954872782638" r="2" fill="#67AE15" />
<circle cx="97.74916557744045" cy="415.66205714765175" r="2" fill="#619F00" />
<circle cx="99.21104074423847" cy="397.9575958953589" r="2" fill="#638DF0" />
<circle cx="93.16232346607426" cy="383.74266836511805" r="2" fill="#5D7FDC" />
<circle cx="80.16999699066596" cy="373.7676564524635" r="2" fill="#5075C5" />
<circle cx="62.948905965299105" cy="370.23839724728407" r="2" fill="#3E72B0" />
<circle cx="356.2770604180694" cy="63.0448543872766" r="2" fill="#643FA3" />
<circle cx="373.25058011829975" cy="63.282668439348015" r="2" fill="#753FB4" />
<circle cx="378.48751356164" cy="68.27265223570488" r="2" fill="#7A44BE" />
<circle cx="363.7125686259358" cy="76.56155098176747" r="2" fill="#6B4CB7" />
<circle cx="347.6090521940071" cy="82.34419602775486" r="2" fill="#5B52AD" />
<circle cx="333.8222162568143" cy="75.19631933799722" r="2" fill="#4D4B98" />
<circle cx="336.7557040517575" cy="63.99341268138822" r="2" fill="#503F8F" />
<circle cx="171.5910776899002" cy="74.29707847602162" r="2" fill="#AB4AF5" />
<circle cx="162.20085246672778" cy="75.6732405551285" r="2" fill="#A24BED" />
<circle cx="258.193285746575" cy="81.8752602882166" r="2" fill="#025153" />
<circle cx="250.43917928977936" cy="76.86806523542975" r="2" fill="#FA4C46" />
<circle cx="199.7401631811125" cy="80.2581499695065" r="2" fill="#C75017" />
<circle cx="198.74010222711158" cy="80.89650225395901" r="2" fill="#C65016" />
<circle cx="221.7754768551068" cy="80.20372564148536" r="2" fill="#DD502D" />
<circle cx="238.72984312537352" cy="80.92309626629466" r="2" fill="#EE503E" />
<circle cx="233.33406411452214" cy="87.8661523028605" r="2" fill="#E95740" />
<circle cx="218.2596962666168" cy="95.63249904681997" r="2" fill="#DA5F39" />
<circle cx="202.8070284274289" cy="102.73351839788269" r="2" fill="#CA6630" />
<circle cx="207.57718183461213" cy="90.87935472421809" r="2" fill="#CF5A29" />
<circle cx="467.1958156839366" cy="92.65544905674336" r="2" fill="#D35C2F" />
<circle cx="481.68132371204536" cy="101.47914295475563" r="2" fill="#E16546" />
<circle cx="495.98484532372555" cy="110.62562536209781" r="2" fill="#EF6E5D" />
<circle cx="510.223322429172" cy="119.86741141621592" r="2" fill="#FE7775" />
<circle cx="524.3966121078716" cy="129.20442965685334" r="2" fill="#0C818D" />
<circle cx="536.8877824043004" cy="140.29297952259137" r="2" fill="#188CA4" />
<circle cx="545.4312237196251" cy="153.98601081708526" r="2" fill="#2199BA" />
<circle cx="560.9028330324967" cy="157.96413756668287" r="2" fill="#309DCD" />
<circle cx="569.9244735154325" cy="172.58536406193778" r="2" fill="#39ACE5" />
<circle cx="578.0208723554176" cy="187.50044163686738" r="2" fill="#42BBFD" />
<circle cx="585.1175268693477" cy="203.02814562248852" r="2" fill="#49CB14" />
<circle cx="570.2189317337321" cy="203.05571380194326" r="2" fill="#3ACB05" />
<circle cx="557.7432698076824" cy="192.57517702671754" r="2" fill="#2DC0ED" />
<circle cx="548.1222339037175" cy="179.93726596558872" r="2" fill="#24B3D7" />
<circle cx="531.6334442876746" cy="177.16830457338284" r="2" fill="#13B1C4" />
<circle cx="517.4158835932294" cy="167.7859090865867" r="2" fill="#05A7AC" />
<circle cx="503.4467847872705" cy="158.1422764471363" r="2" fill="#F79E95" />
<circle cx="489.5061404588449" cy="148.45543162309764" r="2" fill="#E9947D" />
<circle cx="475.5940731616902" cy="138.72537461447126" r="2" fill="#DB8A65" />
<circle cx="461.6801540372643" cy="128.9994091228235" r="2" fill="#CD804D" />
<circle cx="448.08260211349506" cy="119.28912441758824" r="2" fill="#C07737" />
<circle cx="456.61540651809946" cy="104.81391374836456" r="2" fill="#C86830" />
<circle cx="144.00998303303865" cy="104.07825166805834" r="2" fill="#9068F8" />
<circle cx="138.4156084357154" cy="113.30615866818422" r="2" fill="#8A71FB" />
<circle cx="194.33641958995256" cy="108.2425965755061" r="2" fill="#C26C2E" />
<circle cx="186.8092142643678" cy="112.56702487880283" r="2" fill="#BA702A" />
<circle cx="557.649581377184" cy="137.23905876631662" r="2" fill="#2D89B6" />
<circle cx="550.215514660833" cy="148.41273871937165" r="2" fill="#2694BA" />
<circle cx="547.4905436072037" cy="134.89528340811407" r="2" fill="#2386A9" />
<circle cx="89.3477266622568" cy="160.07793046275094" r="2" fill="#59A0F9" />
<circle cx="82.98357035662097" cy="175.82544688114152" r="2" fill="#52AF01" />
<circle cx="72.95819751108499" cy="165.09279065453293" r="2" fill="#48A5ED" />
<circle cx="79.03763378597398" cy="151.05961729008922" r="2" fill="#4F97E6" />
<circle cx="129.74297963563427" cy="149.94352548718606" r="2" fill="#819516" />
<circle cx="116.99246448544301" cy="155.9016108939728" r="2" fill="#749B0F" />
<circle cx="546.2506148164354" cy="186.21749171004114" r="2" fill="#22BADC" />
<circle cx="547.1875096187762" cy="199.21461420415432" r="2" fill="#23C7EA" />
<circle cx="537.429908632637" cy="189.59218663152026" r="2" fill="#19BDD6" />
<circle cx="91.71039876814541" cy="192.7095555616804" r="2" fill="#5BC01B" />
<circle cx="83.86865509089859" cy="207.4041770732135" r="2" fill="#53CF22" />
<circle cx="74.64089034788316" cy="221.65183580341906" r="2" fill="#4ADD27" />
<circle cx="62.4526698390535" cy="226.6810392741059" r="2" fill="#3EE220" />
<circle cx="63.180393375238054" cy="213.27685794756368" r="2" fill="#3FD514" />
<circle cx="73.20873171036797" cy="199.59232380534138" r="2" fill="#49C710" />
<circle cx="100.61316550024242" cy="200.75608074104557" r="2" fill="#64C82C" />
<circle cx="105.20874405071312" cy="216.913221500083" r="2" fill="#69D841" />
<circle cx="100.18321522553589" cy="232.64187827172447" r="2" fill="#64E84C" />
<circle cx="84.69447229036611" cy="238.6051226212209" r="2" fill="#54EE42" />
<circle cx="75.01924283643358" cy="231.79154124914893" r="2" fill="#4BE732" />
<circle cx="84.70002894964873" cy="217.8465991085901" r="2" fill="#54D92D" />
<circle cx="94.71980639132192" cy="204.115597033962" r="2" fill="#5ECC2A" />
<circle cx="596.8810357970455" cy="213.85441586751062" r="2" fill="#54D529" />
<circle cx="589.8260240109387" cy="225.75763363439276" r="2" fill="#4DE12E" />
<circle cx="584.8738056022513" cy="212.6028543801841" r="2" fill="#48D41C" />
<circle cx="606.9116274296385" cy="269.85913075975105" r="2" fill="#5E0D6B" />
<circle cx="597.0417076224551" cy="278.9399481978891" r="2" fill="#55166B" />
<circle cx="596.6349038424685" cy="265.6275775468192" r="2" fill="#54095D" />
<circle cx="31.268902540578964" cy="278.71221254706563" r="2" fill="#1F1635" />
<circle cx="84.93687747169864" cy="269.49337937321593" r="2" fill="#540D61" />
<circle cx="77.83276924170369" cy="277.69943266703774" r="2" fill="#4D1562" />
<circle cx="566.3881523623608" cy="276.2606592856308" r="2" fill="#36144A" />
<circle cx="564.0373192337621" cy="289.5617543969186" r="2" fill="#342155" />
<circle cx="553.8774310969418" cy="280.41169820859756" r="2" fill="#291841" />
<circle cx="34.252916929335086" cy="283.949" r="2" fill="#221B3D" />
<circle cx="36.296608228824695" cy="299.013312465602" r="2" fill="#242B4F" />
<circle cx="36.00783509836194" cy="315.97302720870255" r="2" fill="#243B5F" />
<circle cx="35.622" cy="320.66960129228494" r="2" fill="#234063" />
<circle cx="35.622" cy="303.6935716108919" r="2" fill="#232F52" />
<circle cx="35.622" cy="286.7176327432915" r="2" fill="#231E41" />
<circle cx="48.49577715650883" cy="284.21741104316567" r="2" fill="#301C4C" />
<circle cx="65.47068376476442" cy="283.8799937187175" r="2" fill="#411B5C" />
<circle cx="70.57109058698683" cy="296.0043859238433" r="2" fill="#46286E" />
<circle cx="70.3595495568348" cy="312.983372382173" r="2" fill="#46387E" />
<circle cx="69.88500000000002" cy="324.89439203925593" r="2" fill="#454489" />
<circle cx="69.88499999999999" cy="307.9184475138344" r="2" fill="#453378" />
<circle cx="69.885" cy="290.9424174640105" r="2" fill="#452267" />
<circle cx="59.290260118972554" cy="284.56100000000004" r="2" fill="#3B1C57" />
<circle cx="42.38932789972849" cy="284.56100000000004" r="2" fill="#2A1C46" />
<circle cx="59.36492284646316" cy="284.561" r="2" fill="#3B1C57" />
<circle cx="69.885" cy="291.01707826523415" r="2" fill="#452368" />
<circle cx="69.88500000000002" cy="307.99310957492173" r="2" fill="#453378" />
<circle cx="69.885" cy="324.9690520737415" r="2" fill="#454489" />
<circle cx="55.32969578181056" cy="327.39000000000004" r="2" fill="#37477E" />
<circle cx="42.35199999999999" cy="323.39222697731674" r="2" fill="#2A436D" />
<circle cx="42.352" cy="306.4162447476482" r="2" fill="#2A325C" />
<circle cx="42.352" cy="289.44024311733835" r="2" fill="#2A214B" />
<circle cx="76.54441998952717" cy="296.6828056527676" r="2" fill="#4C2874" />
<circle cx="76.77833490156512" cy="313.65619565906246" r="2" fill="#4C3985" />
<circle cx="76.82520898224294" cy="323.06128679174947" r="2" fill="#4C438F" />
<circle cx="76.00340190224335" cy="306.0387032908728" r="2" fill="#4C327E" />
<circle cx="76.38182791645553" cy="289.00911855095984" r="2" fill="#4C216D" />
<circle cx="611.2320576194068" cy="320.27231329498784" r="2" fill="#6340A3" />
<circle cx="600.1215692343972" cy="327.9046296430532" r="2" fill="#58479F" />
<circle cx="31.666201018550055" cy="334.08652377691396" r="2" fill="#1F4E6D" />
<circle cx="31.6633847589252" cy="345.4226986918518" r="2" fill="#1F5978" />
<circle cx="66.5441238606006" cy="334.11999999999995" r="2" fill="#424E90" />
<circle cx="57.647999999999996" cy="342.1997946807705" r="2" fill="#39568F" />
<circle cx="57.647999999999996" cy="359.1757132221414" r="2" fill="#3967A0" />
<circle cx="57.38414944907267" cy="364.3313631539002" r="2" fill="#396CA5" />
<circle cx="56.98039515044029" cy="347.39249208291994" r="2" fill="#385B93" />
<circle cx="60.26054207390584" cy="333.4429956224323" r="2" fill="#3C4D89" />
<circle cx="84.513658941721" cy="338.5403834206703" r="2" fill="#5452A6" />
<circle cx="76.9393676777226" cy="335.4208815516855" r="2" fill="#4C4F9B" />
<circle cx="601.4372675141207" cy="372.1930097498366" r="2" fill="#5974CD" />
<circle cx="588.1782419061292" cy="375.77074028570996" r="2" fill="#4C77C3" />
<circle cx="591.9626305095919" cy="362.03578063068613" r="2" fill="#4F6AB9" />
<circle cx="50.43677699786883" cy="404.48199999999997" r="2" fill="#3294C6" />
<circle cx="38.015176824374635" cy="397.44581435269805" r="2" fill="#268DB3" />
<circle cx="46.90656505430715" cy="382.56031609885656" r="2" fill="#2E7EAC" />
<circle cx="52.15729132906279" cy="389.9314559051446" r="2" fill="#3485B9" />
<circle cx="50.97217440213987" cy="404.91258650355053" r="2" fill="#3294C6" />
<circle cx="52.14099999999999" cy="390.1647990794586" r="2" fill="#3486BA" />
<circle cx="600.53882701783" cy="420.7048505655407" r="2" fill="#58A4FC" />
<circle cx="586.4600825195813" cy="420.57540421960294" r="2" fill="#4AA4EE" />
<circle cx="80.06255402053844" cy="413.386413850213" r="2" fill="#509DED" />
<circle cx="85.63678600146763" cy="424.2246462044869" r="2" fill="#55A8FD" />
<circle cx="70.78694371775647" cy="421.57826548905916" r="2" fill="#46A5EB" />
<circle cx="529.3745828028168" cy="438.2303075048249" r="2" fill="#11B6C7" />
<circle cx="528.1412451827659" cy="450.1363377560214" r="2" fill="#10C2D2" />
<circle cx="519.649718932605" cy="440.55747277141364" r="2" fill="#07B8BF" />
<circle cx="573.3062463906458" cy="458.66764297269634" r="2" fill="#3DCA07" />
<circle cx="563.9702594137309" cy="468.3601872817509" r="2" fill="#33D407" />
<circle cx="562.30540174836" cy="455.19089033825776" r="2" fill="#32C7F9" />
<circle cx="515.3730103517064" cy="516.2382356821861" r="2" fill="#030407" />
<circle cx="508.49958606040167" cy="526.3371862857377" r="2" fill="#FC0E0A" />
<circle cx="497.89201890229896" cy="517.5895107290289" r="2" fill="#F105F6" />
<circle cx="214.52883945574214" cy="573.9048402238382" r="2" fill="#D63D13" />
<circle cx="210.19216862627113" cy="586.7454531688513" r="2" fill="#D24A1C" />
<circle cx="202.754771577755" cy="575.0562102652613" r="2" fill="#CA3F09" />
<circle cx="267.4342454403479" cy="584.2204513715416" r="2" fill="#0B4853" />
<circle cx="255.90413212078542" cy="590.9234885113974" r="2" fill="#FF4E4D" />
<circle cx="258.943" cy="577.632" r="2" fill="#024143" />
</svg>