<?xml version="1.0" encoding="utf-8"?>
<svg xmlns="http://www.w3.org/2000/svg" version="1.1" width="700px" height="700px" style="shape-rendering:geometricPrecision; text-rendering:geometricPrecision; image-rendering:optimizeQuality; fill-rule:evenodd; clip-rule:evenodd">
  <path id="connector0pad" d="M 35.622 326.778 C 36.232 312.607 36.436 298.331 36.233 283.949 C 33.174 283.949 30.115 283.949 27.056 283.949 C 18.085 281.295 16.148 275.992 21.243 268.041 C 23.769 266.276 26.012 264.236 27.974 261.923 C 28.447 259.692 28.855 257.448 29.197 255.193 C 29.401 248.259 29.605 241.324 29.809 234.39 C 30.247 228.262 32.796 223.265 37.457 219.4 C 41.016 218.185 44.687 217.573 48.47 217.565 C 49.969 217.121 51.396 216.509 52.753 215.729 C 61.612 205.146 69.566 193.929 76.615 182.078 C 73.382 177.553 70.22 172.964 67.131 168.312 C 65.908 164.029 65.908 159.746 67.131 155.463 C 69.751 150.526 73.523 146.752 78.45 144.144 C 79.951 143.693 81.481 143.387 83.039 143.226 C 89.846 144.199 96.678 144.505 103.536 144.144 C 104.096 143.915 104.606 143.609 105.065 143.226 C 108.405 134.793 114.625 130.408 123.726 130.072 C 130.884 129.95 138.023 129.543 145.141 128.848 C 152.441 128.318 157.846 124.953 161.354 118.753 C 162.341 112.158 159.996 107.059 154.318 103.457 C 152.179 106.92 150.343 110.591 148.812 114.47 C 142.244 122.76 136.023 122.555 130.151 113.858 C 130.524 103.287 136.133 97.678 146.976 97.033 C 150.959 94.266 153.508 90.493 154.624 85.713 C 155.236 81.227 155.848 76.74 156.46 72.253 C 160.135 64.559 165.948 62.418 173.897 65.829 C 176.141 66.237 178.384 66.237 180.627 65.829 C 195.301 61.041 209.781 55.738 224.068 49.921 C 225.632 49.502 226.755 48.584 227.433 47.168 C 227.388 43.703 227.388 40.236 227.433 36.766 C 230.955 31.238 235.952 29.301 242.423 30.954 C 246.419 33.421 249.683 36.582 252.213 40.437 C 257.967 38.275 263.269 35.317 268.12 31.566 C 276.794 26.226 286.176 23.371 296.265 23 C 307.044 25.631 314.896 31.852 319.821 41.661 C 320.866 44.64 321.58 47.699 321.962 50.839 C 324.179 45.588 326.729 40.49 329.61 35.543 C 333.645 30.619 338.845 27.866 345.212 27.283 C 351.151 26.802 357.066 27.006 362.955 27.895 C 371.466 29.92 380.032 31.755 388.653 33.401 C 393.901 34.475 399.204 35.087 404.56 35.237 C 409.674 35.872 413.447 38.422 415.879 42.885 C 416.065 45.573 416.473 48.224 417.103 50.839 C 428.359 59.271 439.882 67.327 451.672 75.006 C 480.741 93.724 510.313 111.671 540.389 128.848 C 542.484 129.863 544.523 129.659 546.507 128.236 C 561.209 127.034 567.633 133.866 565.78 148.733 C 574.293 168.62 584.694 187.383 596.984 205.022 C 607.249 213.904 607.148 222.572 596.678 231.025 C 591.175 231.986 587.198 234.943 584.747 239.897 C 581.33 246.937 578.067 254.075 574.958 261.311 C 573.175 265.226 572.563 269.305 573.122 273.548 C 576.512 277.951 580.386 278.36 584.747 274.772 C 586.39 265.89 591.59 260.587 600.349 258.864 C 610.206 260.612 614.795 266.526 614.115 276.607 C 612.096 280.452 609.852 284.123 607.385 287.62 C 606.584 292.289 606.38 296.98 606.773 301.693 C 606.752 306.247 608.894 309.205 613.198 310.564 C 619.426 316.636 620.142 323.264 615.339 330.449 C 612.688 332.693 610.036 334.936 607.385 337.179 C 603.187 344.302 602.167 351.848 604.326 359.817 C 605.57 362.277 606.794 364.724 607.997 367.159 C 608.405 369.403 608.405 371.646 607.997 373.89 C 604.905 377.592 602.05 381.467 599.431 385.515 C 596.045 395.111 598.084 403.27 605.55 409.988 C 609.281 415.39 609.077 420.692 604.938 425.896 C 601.273 430.635 596.481 432.777 590.559 432.32 C 588.408 431.552 586.573 430.328 585.053 428.649 C 583.014 428.241 580.974 428.241 578.935 428.649 C 566.355 433.205 553.71 437.589 541.001 441.804 C 539.9 444.266 540.512 446.204 542.836 447.616 C 546.987 450.183 551.473 451.203 556.297 450.675 C 562.486 446.898 568.604 447.102 574.652 451.287 C 581.191 455.84 582.517 461.652 578.629 468.725 C 576.041 473.435 572.064 475.882 566.698 476.067 C 563.614 475.583 560.555 474.971 557.52 474.231 C 556.038 474.289 554.61 474.595 553.237 475.149 C 539.21 484.301 525.749 494.192 512.856 504.823 C 515.702 507.363 518.455 510.015 521.116 512.777 C 524.823 522.4 521.866 529.232 512.244 533.274 C 494.53 535.294 488.004 527.646 492.665 510.33 C 479.631 515.499 468.515 523.453 459.32 534.191 C 451.523 543.863 444.793 554.265 439.129 565.395 C 437.837 567.707 436.308 569.848 434.541 571.82 C 432.5 573.221 430.767 572.915 429.34 570.902 C 423.961 555.39 416.007 553.962 405.478 566.619 C 399.019 578.175 390.964 588.474 381.311 597.517 C 376.01 601.748 370.096 602.972 363.567 601.188 C 359.392 599.408 355.517 597.164 351.942 594.458 C 344.144 587.065 335.986 580.13 327.469 573.655 C 320.475 569.723 312.929 567.48 304.831 566.925 C 296.265 566.517 287.699 566.517 279.133 566.925 C 274.926 566.963 270.847 567.677 266.897 569.066 C 266.215 569.815 266.113 570.63 266.591 571.514 C 267.791 573.326 269.218 574.958 270.874 576.408 C 275.25 584.169 274.332 591.206 268.12 597.517 C 263.098 600.517 258.203 600.313 253.436 596.905 C 249.746 594.645 247.197 591.483 245.788 587.421 C 245.236 586.687 244.522 586.176 243.647 585.892 C 238.944 584.601 234.152 583.684 229.269 583.139 C 224.786 583.391 221.217 585.329 218.561 588.951 C 213.484 593.454 207.977 594.066 202.042 590.787 C 199.561 588.306 197.114 585.859 194.7 583.444 C 188.093 581.733 183.912 577.552 182.157 570.902 C 181.674 567.392 181.878 563.925 182.769 560.501 C 187.236 548.514 194.782 538.929 205.407 531.744 C 205.815 531.132 205.815 530.52 205.407 529.909 C 198.63 523.953 191.186 518.956 183.075 514.919 C 176.341 511.756 169.611 508.595 162.884 505.435 C 153.436 512.509 143.647 519.137 133.516 525.32 C 126.909 528.508 120.076 529.222 113.019 527.461 C 103.73 519.699 97 510.113 92.829 498.705 C 92.015 495.063 91.811 491.392 92.217 487.692 C 96.6 477.497 103.637 469.747 113.325 464.442 C 113.977 463.002 113.875 461.575 113.019 460.159 C 107.287 448.995 100.863 438.288 93.746 428.037 C 92.726 427.629 91.707 427.629 90.687 428.037 C 84.501 432.156 77.771 433.379 70.496 431.708 C 65.271 429.624 62.823 425.749 63.154 420.083 C 63.987 409.875 69.494 405.592 79.674 407.235 C 83.278 408.221 86.542 409.853 89.463 412.13 C 93.037 412.963 94.465 411.536 93.746 407.847 C 93.417 386.511 82.608 376.313 61.319 377.255 C 60.443 377.539 59.73 378.05 59.177 378.784 C 58.973 386.942 58.769 395.1 58.566 403.258 C 58.311 407.341 56.17 409.686 52.141 410.294 C 32.673 411.242 26.962 402.779 35.01 384.903 C 38.68 378.794 43.983 374.715 50.918 372.666 C 51.707 360.81 51.401 348.982 50 337.179 C 48.524 333.037 46.077 332.425 42.658 335.344 C 42.527 339.704 41.508 343.783 39.599 347.581 C 32.184 354.825 25.862 354.009 20.632 345.133 C 18.476 338.546 20.414 333.55 26.444 330.143 C 29.497 328.956 32.556 327.834 35.622 326.778 Z M 287.087 31.26 C 291.595 31.238 296.082 31.544 300.548 32.178 C 303.006 32.74 305.25 33.76 307.278 35.237 C 313.075 41.311 316.134 48.449 316.456 56.651 C 315.485 57.179 314.465 57.587 313.396 57.875 C 292.357 60.523 271.963 58.075 252.213 50.533 C 260.993 42.875 270.782 36.757 281.581 32.178 C 283.536 32.067 285.371 31.761 287.087 31.26 Z M 339.706 57.569 C 336.443 57.569 333.179 57.569 329.916 57.569 C 329.916 55.529 329.916 53.49 329.916 51.451 C 332.858 37.436 341.424 31.42 355.613 33.401 C 366.853 35.651 378.07 37.996 389.264 40.437 C 389.031 45.943 388.828 51.449 388.653 56.957 C 372.333 56.928 356.018 57.132 339.706 57.569 Z M 233.857 37.99 C 236.389 37.774 238.836 38.08 241.199 38.908 C 244.834 41.859 244.426 43.899 239.976 45.026 C 233.93 46.218 231.89 43.873 233.857 37.99 Z M 399.666 42.273 C 405.719 40.806 409.39 43.05 410.679 49.003 C 408.652 55.931 404.37 57.868 397.83 54.816 C 393.289 49.786 393.901 45.605 399.666 42.273 Z M 329.916 51.451 C 329.916 53.49 329.916 55.529 329.916 57.569 C 333.179 57.569 336.443 57.569 339.706 57.569 C 336.356 58.174 332.888 58.378 329.304 58.181 C 329.112 55.812 329.315 53.569 329.916 51.451 Z M 237.528 53.286 C 250.299 57.045 263.148 60.614 276.074 63.993 C 288.901 64.86 301.749 65.166 314.62 64.911 C 312.536 72.396 307.641 76.985 299.936 78.677 C 289.415 80.995 278.81 81.403 268.12 79.901 C 265.878 78.88 264.552 77.147 264.143 74.7 C 260.934 70.496 256.754 68.355 251.601 68.276 C 247.94 70.858 243.861 72.49 239.364 73.171 C 233.113 74.539 226.79 75.252 220.397 75.312 C 220.391 74.206 220.697 73.186 221.315 72.253 C 224.374 67.97 227.433 63.687 230.492 59.404 C 232.594 56.991 234.939 54.951 237.528 53.286 Z M 222.232 56.957 C 222.842 56.939 223.251 57.245 223.456 57.875 C 220.697 63.484 217.026 68.379 212.443 72.559 C 211.043 73.062 209.615 73.47 208.16 73.783 C 202.246 73.986 196.331 74.191 190.417 74.394 C 187.411 74.63 184.454 75.14 181.545 75.924 C 181.035 75.72 180.525 75.516 180.016 75.312 C 183.86 72.769 187.938 70.628 192.252 68.888 C 202.3 64.878 212.293 60.901 222.232 56.957 Z M 57.648 370.219 C 57.648 358.186 57.648 346.153 57.648 334.12 C 60.707 334.12 63.766 334.12 66.825 334.12 C 67.982 333.996 68.899 334.403 69.579 335.344 C 69.899 340.982 72.245 345.571 76.615 349.11 C 80.034 351.272 83.297 351.069 86.404 348.498 C 95.042 336.311 91.982 329.071 77.227 326.778 C 76.622 312.752 76.418 298.679 76.615 284.561 C 80.776 284.314 84.855 283.601 88.852 282.42 C 95.874 277.119 96.078 271.408 89.463 265.288 C 79.473 261.977 73.456 265.546 71.414 275.995 C 70.313 277.107 68.988 277.821 67.437 278.137 C 60.925 278.911 54.399 279.115 47.858 278.749 C 45.21 278.549 43.069 277.427 41.434 275.384 C 37.969 268.462 36.133 261.12 35.927 253.357 C 35.52 247.443 35.52 241.529 35.927 235.614 C 35.799 230.459 37.94 226.686 42.352 224.295 C 44.653 223.843 46.896 224.047 49.082 224.907 C 52.671 226.462 55.934 228.501 58.871 231.025 C 64.605 237.169 71.335 241.86 79.062 245.098 C 100.954 246.248 111.865 235.949 111.796 214.2 C 108.867 200.05 101.016 189.546 88.24 182.69 C 87.898 182.246 87.694 181.737 87.628 181.16 C 90.017 174.956 92.567 168.838 95.276 162.805 C 95.367 159.231 95.979 155.764 97.111 152.404 C 99.923 149.998 102.779 149.998 105.677 152.404 C 111.041 163.505 119.3 166.462 130.457 161.276 C 135.635 157.156 137.369 151.955 135.657 145.674 C 133.787 144.17 131.645 143.253 129.233 142.92 C 125.154 142.717 121.075 142.512 116.996 142.309 C 115.922 142.185 114.902 141.879 113.937 141.391 C 116.734 138.515 120.201 136.985 124.338 136.802 C 131.261 136.209 138.195 135.801 145.141 135.578 C 155.89 134.85 163.538 129.65 168.085 119.976 C 168.928 115.447 168.316 111.164 166.249 107.128 C 164.027 104.293 161.58 101.641 158.907 99.174 C 156.696 93.889 158.226 89.913 163.496 87.243 C 166.647 87.079 169.706 86.467 172.673 85.408 C 176.425 81.816 180.912 80.286 186.134 80.819 C 193.177 80.618 200.112 80.822 206.936 81.431 C 203.278 87.646 198.791 93.254 193.476 98.256 C 186.109 99.405 181.622 103.585 180.016 110.799 C 181.384 119.827 186.483 123.397 195.312 121.506 C 199.826 119.234 202.783 115.665 204.183 110.799 C 229.82 93.25 258.067 85.602 288.923 87.855 C 301.017 87.265 310.705 82.268 317.985 72.865 C 319.223 69.985 320.447 67.13 321.656 64.299 C 323.719 68.027 325.555 71.902 327.163 75.924 C 332.028 85.296 339.676 90.088 350.107 90.302 C 362.584 84.778 374.617 78.456 386.205 71.335 C 393.302 67.07 400.848 64.011 408.843 62.158 C 409.857 60.727 411.183 59.81 412.82 59.404 C 417.707 61.185 422.296 63.53 426.587 66.441 C 437.423 73.757 448.436 80.793 459.626 87.549 C 460.289 88.078 460.39 88.69 459.932 89.385 C 453.439 98.937 446.709 108.318 439.741 117.529 C 438.953 118.481 438.544 119.5 438.518 120.588 C 466.829 140.097 494.872 159.982 522.645 180.243 C 524.787 182.384 526.928 184.525 529.07 186.667 C 529.801 190.288 530.209 193.959 530.293 197.68 C 535.126 207.196 542.367 209.542 552.014 204.716 C 561.886 204.605 569.942 208.378 576.181 216.035 C 577.128 220.803 578.25 225.494 579.546 230.107 C 577.396 243.797 572.094 256.136 563.639 267.124 C 556.762 267.658 551.766 271.024 548.649 277.219 C 547.146 281.503 547.555 285.582 549.872 289.456 C 551.606 291.189 553.339 292.923 555.073 294.656 C 559.356 297.512 563.639 297.512 567.921 294.656 C 571.389 291.597 574.855 288.538 578.323 285.479 C 581.442 283.215 584.909 282.195 588.724 282.42 C 591.11 285.819 594.372 287.247 598.513 286.703 C 598.896 287.161 599.202 287.672 599.431 288.232 C 600.367 293.088 600.571 297.982 600.043 302.916 C 599.481 305.375 598.461 307.618 596.984 309.647 C 593.058 312.611 590.712 316.486 589.948 321.271 C 590.005 322.754 590.311 324.181 590.865 325.554 C 593.166 328.726 595.613 331.785 598.207 334.732 C 598.616 337.383 598.616 340.035 598.207 342.686 C 597.364 345.065 596.753 347.512 596.372 350.028 C 595.631 352.022 594.51 353.755 593.007 355.229 C 587.155 357.002 582.771 360.571 579.852 365.936 C 578.741 370.961 579.761 375.447 582.911 379.396 C 585.155 381.232 587.398 383.067 589.642 384.903 C 592.194 391.164 592.398 397.486 590.254 403.87 C 583.854 406.799 579.978 411.693 578.629 418.554 C 577.711 419.472 576.793 420.389 575.875 421.307 C 563.943 427.29 551.503 431.879 538.553 435.074 C 535.837 434.908 533.594 433.787 531.823 431.708 C 524.471 428.907 518.557 430.742 514.08 437.215 C 511.313 443.584 512.129 449.499 516.527 454.958 C 520.476 458.109 524.962 459.129 529.987 458.017 C 535.452 455.166 541.162 454.554 547.119 456.182 C 550.318 457.239 552.357 459.381 553.237 462.606 C 547.797 469.577 541.475 475.594 534.27 480.656 C 523.986 488.554 513.177 495.691 501.843 502.07 C 483.833 505.21 468.843 513.675 456.873 527.461 C 448.354 537.513 440.91 548.322 434.541 559.889 C 433.792 560.57 432.977 560.672 432.093 560.195 C 428.761 556.096 424.681 553.242 419.856 551.629 C 415.278 551.115 411.2 552.339 407.62 555.3 C 404.234 558.48 401.073 561.845 398.136 565.395 C 393.801 572.231 389.314 578.961 384.676 585.586 C 382.107 588.36 379.353 590.91 376.416 593.234 C 369.708 596.035 363.385 595.219 357.449 590.787 C 351.964 586.323 346.662 581.632 341.541 576.714 C 319.56 558.534 294.882 553.843 267.509 562.642 C 261.556 565.128 256.457 568.799 252.213 573.655 C 250.356 575.194 248.316 576.418 246.094 577.326 C 239.06 577.918 232.126 577.306 225.292 575.491 C 222.679 574.714 221.149 572.98 220.703 570.29 C 214.898 563.993 208.269 563.075 200.818 567.537 C 198.614 569.605 196.778 571.95 195.312 574.573 C 192.536 575.402 190.598 574.382 189.499 571.514 C 188.069 565.208 189.089 559.293 192.558 553.77 C 197.149 545.71 203.777 540.101 212.443 536.945 C 213.475 535.774 213.781 534.448 213.361 532.968 C 210.294 526.433 205.705 521.233 199.594 517.366 C 187.459 510.023 174.916 503.395 161.966 497.481 C 155.09 502.604 148.257 507.805 141.47 513.083 C 137.594 515.838 133.515 518.285 129.233 520.425 C 120.278 524.578 113.242 522.437 108.124 514.001 C 104.062 508.12 100.799 501.798 98.335 495.034 C 97.989 489.704 99.621 485.014 103.23 480.961 C 109.244 474.85 115.872 469.548 123.115 465.054 C 115.467 450.18 107.207 435.699 98.335 421.613 C 96.983 418.641 97.187 415.786 98.947 413.047 C 102.378 391.813 93.915 377.843 73.556 371.136 C 68.278 370.402 62.976 370.096 57.648 370.219 Z M 344.6 63.075 C 355.411 62.974 366.22 63.076 377.028 63.381 C 379.365 63.525 381.609 64.035 383.758 64.911 C 373.516 71.665 362.707 77.478 351.33 82.348 C 339.942 83.016 332.804 77.713 329.916 66.441 C 330.072 65.629 330.48 65.017 331.14 64.605 C 335.722 64.121 340.208 63.611 344.6 63.075 Z M 164.72 69.806 C 168.974 69.88 171.422 72.021 172.062 76.23 C 171.713 79.221 169.98 80.547 166.861 80.207 C 162.861 79.776 161.434 77.533 162.578 73.477 C 162.923 72.016 163.637 70.793 164.72 69.806 Z M 252.824 74.7 C 256.858 74.55 258.693 76.59 258.331 80.819 C 258.262 82.129 257.854 83.251 257.107 84.184 C 251.417 86.022 248.867 84.084 249.459 78.371 C 250.291 76.828 251.413 75.604 252.824 74.7 Z M 186.134 80.819 C 193.174 80.009 200.312 80.009 207.548 80.819 C 207.472 81.19 207.269 81.394 206.936 81.431 C 200.112 80.822 193.177 80.618 186.134 80.819 Z M 217.338 80.207 C 225.306 80.13 233.26 80.436 241.199 81.125 C 242.079 81.259 242.895 81.565 243.647 82.042 C 229.969 90.054 215.795 97.192 201.124 103.457 C 200.818 103.253 200.512 103.049 200.206 102.845 C 204.441 95.393 209.132 88.254 214.279 81.431 C 215.374 81.021 216.394 80.613 217.338 80.207 Z M 465.133 92.444 C 466.451 92.365 467.675 92.671 468.804 93.361 C 489.814 106.517 510.617 119.978 531.211 133.743 C 532.961 135.493 534.695 137.227 536.412 138.943 C 537.508 141.921 538.324 144.98 538.859 148.121 C 540.872 150.91 543.422 153.052 546.507 154.545 C 554.405 152.716 560.218 155.266 563.944 162.193 C 571.354 174.768 578.288 187.617 584.747 200.739 C 585.735 203.548 584.817 205.281 581.994 205.94 C 572.92 205.126 565.068 201.557 558.438 195.233 C 557.714 192.621 557.102 189.97 556.602 187.279 C 554.58 183.356 551.419 180.807 547.119 179.631 C 539.923 180.508 533.397 178.876 527.54 174.736 C 506.025 160.001 484.61 145.113 463.297 130.072 C 458.688 126.994 453.997 124.037 449.225 121.2 C 448.493 120.552 448.085 119.736 448.001 118.753 C 448.545 117.052 449.259 115.421 450.142 113.858 C 455.289 106.783 460.286 99.644 465.133 92.444 Z M 142.082 104.069 C 143.322 103.97 144.545 104.072 145.753 104.375 C 146.072 104.718 146.276 105.126 146.364 105.598 C 145.699 107.846 144.782 109.988 143.611 112.023 C 141.452 115.227 139.412 115.227 137.493 112.023 C 136.815 108.073 138.344 105.422 142.082 104.069 Z M 189.193 106.516 C 194.477 106.61 196.414 109.261 195.006 114.47 C 192.221 116.967 189.57 116.764 187.052 113.858 C 186.286 110.869 187 108.421 189.193 106.516 Z M 548.954 134.049 C 556.218 133.459 559.379 136.723 558.438 143.838 C 554.804 149.509 550.521 150.121 545.589 145.674 C 544.122 142.003 544.427 138.537 546.507 135.272 C 547.441 134.97 548.256 134.562 548.954 134.049 Z M 82.121 149.345 C 83.946 149.102 85.578 149.511 87.016 150.568 C 89.875 155.298 90.181 160.193 87.934 165.253 C 86.167 169.4 84.229 173.478 82.121 177.489 C 79.68 174.945 77.334 172.293 75.085 169.535 C 70.59 162.45 71.712 156.434 78.45 151.486 C 79.632 150.594 80.856 149.88 82.121 149.345 Z M 116.384 148.733 C 120.894 148.957 125.381 149.366 129.845 149.957 C 129.166 154.607 126.413 157.054 121.585 157.299 C 116.619 156.713 113.458 154.061 112.101 149.345 C 113.667 149.53 115.095 149.325 116.384 148.733 Z M 542.224 186.055 C 543.868 185.955 545.5 186.057 547.119 186.361 C 548.24 186.667 548.954 187.381 549.26 188.502 C 552.178 197.923 549.016 201.288 539.777 198.598 C 536.659 195.999 535.945 192.837 537.635 189.114 C 538.963 187.693 540.493 186.673 542.224 186.055 Z M 82.733 187.891 C 85.741 187.762 88.392 188.68 90.687 190.644 C 91.777 192.016 92.083 193.546 91.605 195.233 C 84.485 206.532 77.245 217.749 69.885 228.884 C 67.34 229.818 65.096 229.308 63.154 227.354 C 61.207 225.51 59.371 223.572 57.648 221.542 C 65.27 209.76 73.632 198.543 82.733 187.891 Z M 99.253 199.516 C 100.778 200.605 101.797 202.134 102.312 204.104 C 105.269 211.137 105.982 218.377 104.453 225.825 C 101.893 232.462 97.1 236.439 90.075 237.755 C 84.415 239.25 78.908 238.841 73.556 236.532 C 72.933 235.89 72.831 235.176 73.25 234.39 C 79.829 224.698 86.56 215.113 93.44 205.634 C 95.252 203.406 97.189 201.367 99.253 199.516 Z M 588.112 209.305 C 596.237 210.06 599.194 214.343 596.984 222.154 C 594.361 225.808 590.996 226.726 586.888 224.907 C 581.71 219.189 582.118 213.989 588.112 209.305 Z M 596.678 265.594 C 604.872 264.407 608.339 267.873 607.079 275.995 C 604.843 279.223 601.784 280.345 597.902 279.361 C 593.5 277.39 591.767 274.025 592.701 269.265 C 593.963 267.898 595.288 266.675 596.678 265.594 Z M 28.28 269.265 C 32.148 270.279 34.596 272.726 35.622 276.607 C 35.579 277.385 35.375 278.099 35.01 278.749 C 31.6 279.127 28.439 278.413 25.526 276.607 C 24.593 273.388 25.51 270.941 28.28 269.265 Z M 82.733 269.265 C 84.462 269.009 85.787 269.621 86.71 271.101 C 87.163 272.974 87.062 274.81 86.404 276.607 C 85.868 277.067 85.256 277.373 84.569 277.525 C 82.334 277.83 80.091 277.932 77.838 277.831 C 77.663 273.93 79.295 271.076 82.733 269.265 Z M 560.579 273.548 C 563.807 274.005 566.356 275.637 568.227 278.443 C 570.555 281.941 570.249 285.102 567.31 287.926 C 565.202 289.184 562.959 290.102 560.579 290.68 C 556.905 288.739 554.458 285.781 553.237 281.808 C 554.716 278.188 557.163 275.435 560.579 273.548 Z M 27.056 283.949 C 30.115 283.949 33.174 283.949 36.233 283.949 C 36.436 298.331 36.232 312.607 35.622 326.778 C 35.622 312.706 35.622 298.633 35.622 284.561 C 32.646 284.756 29.791 284.553 27.056 283.949 Z M 42.352 284.561 C 51.626 283.952 61.007 283.747 70.496 283.949 C 70.699 298.535 70.495 313.015 69.885 327.39 C 69.885 313.114 69.885 298.837 69.885 284.561 C 60.707 284.561 51.529 284.561 42.352 284.561 Z M 42.352 284.561 C 51.529 284.561 60.707 284.561 69.885 284.561 C 69.885 298.837 69.885 313.114 69.885 327.39 C 60.707 327.39 51.529 327.39 42.352 327.39 C 42.352 313.114 42.352 298.837 42.352 284.561 Z M 76.615 284.561 C 76.418 298.679 76.622 312.752 77.227 326.778 C 76.412 319.958 76.004 312.922 76.003 305.67 C 76.003 298.528 76.207 291.492 76.615 284.561 Z M 602.184 314.541 C 609.395 314.311 612.352 317.778 611.056 324.943 C 608.195 329.404 604.423 330.322 599.737 327.696 C 595.027 322.255 595.842 317.87 602.184 314.541 Z M 31.339 334.12 C 35.009 333.689 36.437 335.321 35.622 339.015 C 35.866 344.596 33.418 346.534 28.28 344.827 C 25.883 343.093 25.373 340.952 26.75 338.403 C 28.216 336.832 29.745 335.405 31.339 334.12 Z M 66.825 334.12 C 63.766 334.12 60.707 334.12 57.648 334.12 C 57.648 346.153 57.648 358.186 57.648 370.219 C 57.038 358.088 56.834 345.851 57.036 333.508 C 60.417 333.312 63.68 333.516 66.825 334.12 Z M 77.227 334.12 C 84.03 333.88 86.07 336.837 83.345 342.992 C 81.683 344.308 80.154 344.206 78.756 342.686 C 76.872 340.016 76.363 337.161 77.227 334.12 Z M 592.395 361.653 C 597.346 362.522 600.61 365.377 602.184 370.219 C 600.514 375.664 596.843 378.417 591.171 378.478 C 588.063 376.399 586.228 373.545 585.665 369.913 C 585.601 368.6 586.009 367.478 586.888 366.548 C 588.752 364.885 590.587 363.253 592.395 361.653 Z M 52.141 389.797 C 52.141 394.692 52.141 399.587 52.141 404.482 C 51.529 404.482 50.918 404.482 50.306 404.482 C 38.192 404.525 35.031 399.222 40.822 388.574 C 44.105 385.087 47.572 381.823 51.223 378.784 C 52.056 382.398 52.362 386.07 52.141 389.797 Z M 52.141 389.797 C 52.749 394.784 52.953 399.882 52.753 405.093 C 51.775 405.257 50.959 405.053 50.306 404.482 C 50.918 404.482 51.529 404.482 52.141 404.482 C 52.141 399.587 52.141 394.692 52.141 389.797 Z M 591.783 411.212 C 600.078 410.899 602.831 414.57 600.043 422.225 C 597.51 425.107 594.349 426.025 590.559 424.978 C 583.717 419.652 584.125 415.063 591.783 411.212 Z M 76.003 413.047 C 81.752 412.86 86.035 415.205 88.852 420.083 C 87.556 423.389 85.109 425.225 81.509 425.59 C 78.377 426.024 75.318 425.718 72.332 424.672 C 69.903 421.286 69.903 417.921 72.332 414.577 C 73.623 414.06 74.847 413.55 76.003 413.047 Z M 523.869 436.909 C 530.533 437.15 533.695 440.617 533.353 447.31 C 532.639 448.024 531.925 448.738 531.211 449.452 C 528.019 450.408 524.756 450.612 521.422 450.064 C 519.163 447.534 518.449 444.576 519.28 441.192 C 520.361 439.19 521.891 437.763 523.869 436.909 Z M 564.25 454.041 C 572.188 454.126 575.145 458 573.122 465.665 C 569.586 469.131 565.609 469.641 561.191 467.195 C 557.176 461.496 558.196 457.111 564.25 454.041 Z M 501.843 510.33 C 506.431 510.277 510.612 511.501 514.386 514.001 C 518.776 522.964 516.023 527.042 506.126 526.238 C 499.295 527.259 496.542 524.404 497.866 517.672 C 498.724 514.934 500.05 512.486 501.843 510.33 Z M 206.325 572.125 C 213.853 571.191 217.218 574.453 216.42 581.915 C 214.315 586.023 210.95 587.552 206.325 586.504 C 204.591 585.586 203.265 584.26 202.348 582.527 C 201.842 580.054 201.944 577.607 202.654 575.185 C 203.67 573.868 204.894 572.849 206.325 572.125 Z M 258.943 577.632 C 264.264 577.244 267.119 579.691 267.509 584.974 C 267.17 589.699 264.62 592.35 259.861 592.928 C 254.304 591.195 252.264 587.524 253.742 581.915 C 255.123 579.964 256.856 578.536 258.943 577.632 Z" stroke-width="1mm" style=""/>
</svg>