999
"DXF R12 Output" (www.mydxf.blogspot.com)
 0 
SECTION
 2 
HEADER
 9 
$ACADVER
 1 
AC1009
 9 
$EXTMIN
 10 
 0 
 20 
 0 
 9 
$EXTMAX
 10 
 8.5 
 20 
 11 
 0 
ENDSEC
 0 
SECTION
 2 
ENTITIES
0
POLYLINE
8
Layer 1
62
7
70
1
10
0.000000
20
0.000000
66
1
0
VERTEX
8
Layer 1
10
9.424976
20
98.748096
70
0
0
VERTEX
8
Layer 1
10
9.586470
20
104.393074
70
0
0
VERTEX
8
Layer 1
10
9.586636
20
110.079922
70
0
0
VERTEX
8
Layer 1
10
7.158558
20
110.079922
70
0
0
VERTEX
8
Layer 1
10
5.727321
20
110.737985
70
0
0
VERTEX
8
Layer 1
10
5.273401
20
111.165570
70
0
0
VERTEX
8
Layer 1
10
4.993938
20
111.658854
70
0
0
VERTEX
8
Layer 1
10
4.888926
20
112.217832
70
0
0
VERTEX
8
Layer 1
10
4.958360
20
112.842503
70
0
0
VERTEX
8
Layer 1
10
5.620537
20
114.288908
70
0
0
VERTEX
8
Layer 1
10
6.566950
20
115.043896
70
0
0
VERTEX
8
Layer 1
10
7.401445
20
115.907627
70
0
0
VERTEX
8
Layer 1
10
7.725030
20
117.688270
70
0
0
VERTEX
8
Layer 1
10
7.886955
20
123.192391
70
0
0
VERTEX
8
Layer 1
10
8.078600
20
124.352302
70
0
0
VERTEX
8
Layer 1
10
8.479720
20
125.399972
70
0
0
VERTEX
8
Layer 1
10
9.090340
20
126.335376
70
0
0
VERTEX
8
Layer 1
10
9.910485
20
127.158490
70
0
0
VERTEX
8
Layer 1
10
11.345187
20
127.521002
70
0
0
VERTEX
8
Layer 1
10
12.824338
20
127.644000
70
0
0
VERTEX
8
Layer 1
10
13.957547
20
128.129774
70
0
0
VERTEX
8
Layer 1
10
17.293872
20
132.455706
70
0
0
VERTEX
8
Layer 1
10
20.271027
20
137.033257
70
0
0
VERTEX
8
Layer 1
10
17.761721
20
140.675506
70
0
0
VERTEX
8
Layer 1
10
17.519033
20
142.375320
70
0
0
VERTEX
8
Layer 1
10
17.761721
20
144.075133
70
0
0
VERTEX
8
Layer 1
10
18.338789
20
144.997110
70
0
0
VERTEX
8
Layer 1
10
19.030231
20
145.803621
70
0
0
VERTEX
8
Layer 1
10
19.836122
20
146.494592
70
0
0
VERTEX
8
Layer 1
10
20.756536
20
147.069948
70
0
0
VERTEX
8
Layer 1
10
21.970708
20
147.312835
70
0
0
VERTEX
8
Layer 1
10
24.677226
20
147.059034
70
0
0
VERTEX
8
Layer 1
10
27.393865
20
147.069948
70
0
0
VERTEX
8
Layer 1
10
27.798413
20
147.312835
70
0
0
VERTEX
8
Layer 1
10
28.604072
20
148.785434
70
0
0
VERTEX
8
Layer 1
10
29.695506
20
149.856371
70
0
0
VERTEX
8
Layer 1
10
31.072739
20
150.525621
70
0
0
VERTEX
8
Layer 1
10
32.735796
20
150.793160
70
0
0
VERTEX
8
Layer 1
10
38.401841
20
151.117010
70
0
0
VERTEX
8
Layer 1
10
39.756415
20
151.362824
70
0
0
VERTEX
8
Layer 1
10
40.922920
20
151.889923
70
0
0
VERTEX
8
Layer 1
10
41.901307
20
152.698306
70
0
0
VERTEX
8
Layer 1
10
42.691525
20
153.787975
70
0
0
VERTEX
8
Layer 1
10
42.722081
20
155.022449
70
0
0
VERTEX
8
Layer 1
10
42.422015
20
156.108467
70
0
0
VERTEX
8
Layer 1
10
41.791302
20
157.046005
70
0
0
VERTEX
8
Layer 1
10
40.829919
20
157.835037
70
0
0
VERTEX
8
Layer 1
10
39.373125
20
154.921184
70
0
0
VERTEX
8
Layer 1
10
38.087012
20
153.697558
70
0
0
VERTEX
8
Layer 1
10
37.456882
20
153.401795
70
0
0
VERTEX
8
Layer 1
10
36.835378
20
153.316720
70
0
0
VERTEX
8
Layer 1
10
36.222505
20
153.442323
70
0
0
VERTEX
8
Layer 1
10
35.618271
20
153.778595
70
0
0
VERTEX
8
Layer 1
10
34.435742
20
155.083109
70
0
0
VERTEX
8
Layer 1
10
34.769505
20
156.934619
70
0
0
VERTEX
8
Layer 1
10
35.131187
20
157.675738
70
0
0
VERTEX
8
Layer 1
10
35.622728
20
158.293757
70
0
0
VERTEX
8
Layer 1
10
36.244120
20
158.788671
70
0
0
VERTEX
8
Layer 1
10
36.995359
20
159.160473
70
0
0
VERTEX
8
Layer 1
10
38.887351
20
159.534718
70
0
0
VERTEX
8
Layer 1
10
39.606591
20
160.133705
70
0
0
VERTEX
8
Layer 1
10
40.183576
20
160.832530
70
0
0
VERTEX
8
Layer 1
10
40.618332
20
161.631220
70
0
0
VERTEX
8
Layer 1
10
40.910882
20
162.529797
70
0
0
VERTEX
8
Layer 1
10
41.396656
20
166.091085
70
0
0
VERTEX
8
Layer 1
10
42.231970
20
167.342384
70
0
0
VERTEX
8
Layer 1
10
43.279363
20
168.042748
70
0
0
VERTEX
8
Layer 1
10
44.538786
20
168.192200
70
0
0
VERTEX
8
Layer 1
10
46.010190
20
167.790766
70
0
0
VERTEX
8
Layer 1
10
46.900611
20
167.709803
70
0
0
VERTEX
8
Layer 1
10
47.790834
20
167.790766
70
0
0
VERTEX
8
Layer 1
10
53.576106
20
169.793163
70
0
0
VERTEX
8
Layer 1
10
59.284584
20
171.999752
70
0
0
VERTEX
8
Layer 1
10
59.817652
20
172.265030
70
0
0
VERTEX
8
Layer 1
10
60.174905
20
172.728149
70
0
0
VERTEX
8
Layer 1
10
60.174905
20
175.480341
70
0
0
VERTEX
8
Layer 1
10
60.946971
20
176.399160
70
0
0
VERTEX
8
Layer 1
10
61.865359
20
176.961709
70
0
0
VERTEX
8
Layer 1
10
62.930045
20
177.168013
70
0
0
VERTEX
8
Layer 1
10
64.141005
20
177.018098
70
0
0
VERTEX
8
Layer 1
10
65.581593
20
175.901293
70
0
0
VERTEX
8
Layer 1
10
66.731272
20
174.509057
70
0
0
VERTEX
8
Layer 1
10
68.925227
20
175.524957
70
0
0
VERTEX
8
Layer 1
10
70.939994
20
176.856173
70
0
0
VERTEX
8
Layer 1
10
72.696358
20
177.792553
70
0
0
VERTEX
8
Layer 1
10
74.522944
20
178.482399
70
0
0
VERTEX
8
Layer 1
10
76.419727
20
178.925737
70
0
0
VERTEX
8
Layer 1
10
78.386682
20
179.122591
70
0
0
VERTEX
8
Layer 1
10
80.380431
20
178.422413
70
0
0
VERTEX
8
Layer 1
10
82.083767
20
177.366091
70
0
0
VERTEX
8
Layer 1
10
83.496690
20
175.953672
70
0
0
VERTEX
8
Layer 1
10
84.619200
20
174.185208
70
0
0
VERTEX
8
Layer 1
10
85.185672
20
171.756865
70
0
0
VERTEX
8
Layer 1
10
87.209203
20
175.803926
70
0
0
VERTEX
8
Layer 1
10
88.067700
20
176.673334
70
0
0
VERTEX
8
Layer 1
10
89.041837
20
177.327362
70
0
0
VERTEX
8
Layer 1
10
90.131662
20
177.766037
70
0
0
VERTEX
8
Layer 1
10
91.337227
20
177.989382
70
0
0
VERTEX
8
Layer 1
10
93.689436
20
178.044349
70
0
0
VERTEX
8
Layer 1
10
96.031723
20
177.827457
70
0
0
VERTEX
8
Layer 1
10
102.830977
20
176.370663
70
0
0
VERTEX
8
Layer 1
10
104.924622
20
176.036098
70
0
0
VERTEX
8
Layer 1
10
107.039698
20
175.884889
70
0
0
VERTEX
8
Layer 1
10
107.987980
20
175.663888
70
0
0
VERTEX
8
Layer 1
10
108.803210
20
175.252932
70
0
0
VERTEX
8
Layer 1
10
109.485388
20
174.652073
70
0
0
VERTEX
8
Layer 1
10
110.034513
20
173.861358
70
0
0
VERTEX
8
Layer 1
10
110.358363
20
171.756865
70
0
0
VERTEX
8
Layer 1
10
114.878565
20
168.485065
70
0
0
VERTEX
8
Layer 1
10
119.504733
20
165.362688
70
0
0
VERTEX
8
Layer 1
10
131.141325
20
158.086953
70
0
0
VERTEX
8
Layer 1
10
142.977743
20
151.117010
70
0
0
VERTEX
8
Layer 1
10
143.798115
20
150.956077
70
0
0
VERTEX
8
Layer 1
10
144.596462
20
151.278934
70
0
0
VERTEX
8
Layer 1
10
145.952508
20
151.298554
70
0
0
VERTEX
8
Layer 1
10
147.103224
20
151.118891
70
0
0
VERTEX
8
Layer 1
10
148.048614
20
150.739940
70
0
0
VERTEX
8
Layer 1
10
148.788680
20
150.161700
70
0
0
VERTEX
8
Layer 1
10
149.323425
20
149.384166
70
0
0
VERTEX
8
Layer 1
10
149.652854
20
148.407337
70
0
0
VERTEX
8
Layer 1
10
149.776967
20
147.231208
70
0
0
VERTEX
8
Layer 1
10
149.695770
20
145.855777
70
0
0
VERTEX
8
Layer 1
10
151.478733
20
141.965216
70
0
0
VERTEX
8
Layer 1
10
153.449045
20
138.186177
70
0
0
VERTEX
8
Layer 1
10
155.606732
20
134.518660
70
0
0
VERTEX
8
Layer 1
10
157.951818
20
130.962664
70
0
0
VERTEX
8
Layer 1
10
158.841733
20
130.084059
70
0
0
VERTEX
8
Layer 1
10
159.474514
20
129.210765
70
0
0
VERTEX
8
Layer 1
10
159.850151
20
128.342786
70
0
0
VERTEX
8
Layer 1
10
159.968635
20
127.480124
70
0
0
VERTEX
8
Layer 1
10
159.829956
20
126.622782
70
0
0
VERTEX
8
Layer 1
10
159.434107
20
125.770764
70
0
0
VERTEX
8
Layer 1
10
158.781076
20
124.924073
70
0
0
VERTEX
8
Layer 1
10
157.870855
20
124.082712
70
0
0
VERTEX
8
Layer 1
10
156.854559
20
123.792990
70
0
0
VERTEX
8
Layer 1
10
155.989670
20
123.305202
70
0
0
VERTEX
8
Layer 1
10
155.276189
20
122.619325
70
0
0
VERTEX
8
Layer 1
10
154.714116
20
121.735332
70
0
0
VERTEX
8
Layer 1
10
152.124113
20
116.069552
70
0
0
VERTEX
8
Layer 1
10
151.648855
20
114.483244
70
0
0
VERTEX
8
Layer 1
10
151.638338
20
112.831850
70
0
0
VERTEX
8
Layer 1
10
152.335064
20
112.156282
70
0
0
VERTEX
8
Layer 1
10
153.079886
20
111.877069
70
0
0
VERTEX
8
Layer 1
10
153.872878
20
111.994283
70
0
0
VERTEX
8
Layer 1
10
154.714116
20
112.508000
70
0
0
VERTEX
8
Layer 1
10
155.216616
20
114.092964
70
0
0
VERTEX
8
Layer 1
10
156.072088
20
115.322799
70
0
0
VERTEX
8
Layer 1
10
157.280579
20
116.197482
70
0
0
VERTEX
8
Layer 1
10
158.842139
20
116.716986
70
0
0
VERTEX
8
Layer 1
10
160.536789
20
116.163441
70
0
0
VERTEX
8
Layer 1
10
161.188100
20
115.731657
70
0
0
VERTEX
8
Layer 1
10
161.708731
20
115.196527
70
0
0
VERTEX
8
Layer 1
10
162.098678
20
114.558048
70
0
0
VERTEX
8
Layer 1
10
162.357939
20
113.816218
70
0
0
VERTEX
8
Layer 1
10
162.484389
20
112.022490
70
0
0
VERTEX
8
Layer 1
10
160.703745
20
109.108638
70
0
0
VERTEX
8
Layer 1
10
160.504316
20
107.251265
70
0
0
VERTEX
8
Layer 1
10
160.541821
20
105.385161
70
0
0
VERTEX
8
Layer 1
10
160.644954
20
104.560667
70
0
0
VERTEX
8
Layer 1
10
160.962673
20
103.894600
70
0
0
VERTEX
8
Layer 1
10
161.494952
20
103.387034
70
0
0
VERTEX
8
Layer 1
10
162.241766
20
103.038045
70
0
0
VERTEX
8
Layer 1
10
163.204158
20
101.805547
70
0
0
VERTEX
8
Layer 1
10
163.619483
20
100.517859
70
0
0
VERTEX
8
Layer 1
10
163.487568
20
99.174956
70
0
0
VERTEX
8
Layer 1
10
162.808239
20
97.776812
70
0
0
VERTEX
8
Layer 1
10
160.703745
20
95.996169
70
0
0
VERTEX
8
Layer 1
10
160.028368
20
94.561715
70
0
0
VERTEX
8
Layer 1
10
159.668333
20
93.085293
70
0
0
VERTEX
8
Layer 1
10
159.623664
20
91.566900
70
0
0
VERTEX
8
Layer 1
10
159.894386
20
90.006539
70
0
0
VERTEX
8
Layer 1
10
160.865670
20
88.063970
70
0
0
VERTEX
8
Layer 1
10
160.946633
20
87.173516
70
0
0
VERTEX
8
Layer 1
10
160.865670
20
86.283062
70
0
0
VERTEX
8
Layer 1
10
158.599252
20
83.207285
70
0
0
VERTEX
8
Layer 1
10
158.196483
20
81.374386
70
0
0
VERTEX
8
Layer 1
10
158.332023
20
79.684164
70
0
0
VERTEX
8
Layer 1
10
159.005925
20
78.136717
70
0
0
VERTEX
8
Layer 1
10
160.218236
20
76.732145
70
0
0
VERTEX
8
Layer 1
10
160.763392
20
75.665140
70
0
0
VERTEX
8
Layer 1
10
160.918124
20
74.608007
70
0
0
VERTEX
8
Layer 1
10
160.682430
20
73.560696
70
0
0
VERTEX
8
Layer 1
10
160.056311
20
72.523159
70
0
0
VERTEX
8
Layer 1
10
159.273116
20
71.711608
70
0
0
VERTEX
8
Layer 1
10
158.378028
20
71.157778
70
0
0
VERTEX
8
Layer 1
10
157.370971
20
70.861718
70
0
0
VERTEX
8
Layer 1
10
156.251872
20
70.823477
70
0
0
VERTEX
8
Layer 1
10
155.460868
20
71.218731
70
0
0
VERTEX
8
Layer 1
10
154.795078
20
71.794762
70
0
0
VERTEX
8
Layer 1
10
153.985719
20
71.875724
70
0
0
VERTEX
8
Layer 1
10
153.176359
20
71.794762
70
0
0
VERTEX
8
Layer 1
10
143.139668
20
68.314172
70
0
0
VERTEX
8
Layer 1
10
143.006165
20
67.851623
70
0
0
VERTEX
8
Layer 1
10
143.042599
20
67.441115
70
0
0
VERTEX
8
Layer 1
10
143.248944
20
67.082695
70
0
0
VERTEX
8
Layer 1
10
143.625177
20
66.776416
70
0
0
VERTEX
8
Layer 1
10
144.465522
20
66.343777
70
0
0
VERTEX
8
Layer 1
10
145.339179
20
66.064655
70
0
0
VERTEX
8
Layer 1
10
146.246223
20
65.939073
70
0
0
VERTEX
8
Layer 1
10
147.186729
20
65.967056
70
0
0
VERTEX
8
Layer 1
10
148.411339
20
66.519059
70
0
0
VERTEX
8
Layer 1
10
149.628929
20
66.676073
70
0
0
VERTEX
8
Layer 1
10
150.839525
20
66.438097
70
0
0
VERTEX
8
Layer 1
10
152.043150
20
65.805132
70
0
0
VERTEX
8
Layer 1
10
153.082114
20
64.839180
70
0
0
VERTEX
8
Layer 1
10
153.603826
20
63.748263
70
0
0
VERTEX
8
Layer 1
10
153.608262
20
62.532331
70
0
0
VERTEX
8
Layer 1
10
153.095397
20
61.191333
70
0
0
VERTEX
8
Layer 1
10
152.512934
20
60.368956
70
0
0
VERTEX
8
Layer 1
10
151.792656
20
59.771085
70
0
0
VERTEX
8
Layer 1
10
150.934564
20
59.397696
70
0
0
VERTEX
8
Layer 1
10
149.938657
20
59.248765
70
0
0
VERTEX
8
Layer 1
10
147.510314
20
59.734539
70
0
0
VERTEX
8
Layer 1
10
146.377105
20
59.491652
70
0
0
VERTEX
8
Layer 1
10
140.922528
20
55.712779
70
0
0
VERTEX
8
Layer 1
10
135.692979
20
51.640416
70
0
0
VERTEX
8
Layer 1
10
137.878435
20
49.535923
70
0
0
VERTEX
8
Layer 1
10
138.283441
20
47.764817
70
0
0
VERTEX
8
Layer 1
10
138.237989
20
46.983101
70
0
0
VERTEX
8
Layer 1
10
138.027229
20
46.270605
70
0
0
VERTEX
8
Layer 1
10
137.651159
20
45.627327
70
0
0
VERTEX
8
Layer 1
10
137.109776
20
45.053263
70
0
0
VERTEX
8
Layer 1
10
135.531054
20
44.112765
70
0
0
VERTEX
8
Layer 1
10
133.912252
20
44.032249
70
0
0
VERTEX
8
Layer 1
10
132.570962
20
44.191545
70
0
0
VERTEX
8
Layer 1
10
131.507179
20
44.590652
70
0
0
VERTEX
8
Layer 1
10
130.720902
20
45.229570
70
0
0
VERTEX
8
Layer 1
10
130.212127
20
46.108300
70
0
0
VERTEX
8
Layer 1
10
129.980851
20
47.226841
70
0
0
VERTEX
8
Layer 1
10
130.027071
20
48.585194
70
0
0
VERTEX
8
Layer 1
10
130.350784
20
50.183358
70
0
0
VERTEX
8
Layer 1
10
127.859516
20
49.019478
70
0
0
VERTEX
8
Layer 1
10
125.558623
20
47.579299
70
0
0
VERTEX
8
Layer 1
10
123.448181
20
45.862845
70
0
0
VERTEX
8
Layer 1
10
121.528264
20
43.870143
70
0
0
VERTEX
8
Layer 1
10
118.645533
20
39.886779
70
0
0
VERTEX
8
Layer 1
10
116.186068
20
35.614095
70
0
0
VERTEX
8
Layer 1
10
114.972161
20
33.914149
70
0
0
VERTEX
8
Layer 1
10
114.582422
20
33.720821
70
0
0
VERTEX
8
Layer 1
10
114.223193
20
33.696860
70
0
0
VERTEX
8
Layer 1
10
113.894424
20
33.842265
70
0
0
VERTEX
8
Layer 1
10
113.596065
20
34.157036
70
0
0
VERTEX
8
Layer 1
10
113.030432
20
35.521441
70
0
0
VERTEX
8
Layer 1
10
112.400927
20
36.536493
70
0
0
VERTEX
8
Layer 1
10
111.707550
20
37.202191
70
0
0
VERTEX
8
Layer 1
10
110.950301
20
37.518530
70
0
0
VERTEX
8
Layer 1
10
110.129180
20
37.485508
70
0
0
VERTEX
8
Layer 1
10
109.244187
20
37.103122
70
0
0
VERTEX
8
Layer 1
10
108.295323
20
36.371369
70
0
0
VERTEX
8
Layer 1
10
107.282586
20
35.290245
70
0
0
VERTEX
8
Layer 1
10
105.921695
20
33.059459
70
0
0
VERTEX
8
Layer 1
10
104.402401
20
30.953366
70
0
0
VERTEX
8
Layer 1
10
102.724656
20
28.971941
70
0
0
VERTEX
8
Layer 1
10
100.888408
20
27.115160
70
0
0
VERTEX
8
Layer 1
10
99.806074
20
26.424751
70
0
0
VERTEX
8
Layer 1
10
98.662868
20
26.032717
70
0
0
VERTEX
8
Layer 1
10
97.458743
20
25.939084
70
0
0
VERTEX
8
Layer 1
10
96.193648
20
26.143875
70
0
0
VERTEX
8
Layer 1
10
94.596228
20
26.942321
70
0
0
VERTEX
8
Layer 1
10
93.117870
20
27.924519
70
0
0
VERTEX
8
Layer 1
10
89.951638
20
30.767662
70
0
0
VERTEX
8
Layer 1
10
86.642730
20
33.428639
70
0
0
VERTEX
8
Layer 1
10
85.227476
20
34.125108
70
0
0
VERTEX
8
Layer 1
10
83.757453
20
34.654022
70
0
0
VERTEX
8
Layer 1
10
82.232661
20
35.015405
70
0
0
VERTEX
8
Layer 1
10
80.653100
20
35.209283
70
0
0
VERTEX
8
Layer 1
10
77.253474
20
35.290245
70
0
0
VERTEX
8
Layer 1
10
73.853847
20
35.209283
70
0
0
VERTEX
8
Layer 1
10
72.209629
20
35.060091
70
0
0
VERTEX
8
Layer 1
10
70.616409
20
34.642811
70
0
0
VERTEX
8
Layer 1
10
70.460834
20
34.332355
70
0
0
VERTEX
8
Layer 1
10
70.535447
20
33.995111
70
0
0
VERTEX
8
Layer 1
10
71.668656
20
32.700242
70
0
0
VERTEX
8
Layer 1
10
72.274385
20
31.196096
70
0
0
VERTEX
8
Layer 1
10
72.354852
20
29.763834
70
0
0
VERTEX
8
Layer 1
10
71.910054
20
28.403505
70
0
0
VERTEX
8
Layer 1
10
70.939994
20
27.115160
70
0
0
VERTEX
8
Layer 1
10
69.949747
20
26.678796
70
0
0
VERTEX
8
Layer 1
10
68.972125
20
26.560329
70
0
0
VERTEX
8
Layer 1
10
68.007153
20
26.759758
70
0
0
VERTEX
8
Layer 1
10
67.054857
20
27.277084
70
0
0
VERTEX
8
Layer 1
10
65.816774
20
28.352945
70
0
0
VERTEX
8
Layer 1
10
65.031326
20
29.786390
70
0
0
VERTEX
8
Layer 1
10
64.464854
20
30.190937
70
0
0
VERTEX
8
Layer 1
10
62.580626
20
30.629153
70
0
0
VERTEX
8
Layer 1
10
60.660680
20
30.919334
70
0
0
VERTEX
8
Layer 1
10
59.816424
20
30.785695
70
0
0
VERTEX
8
Layer 1
10
59.062830
20
30.484823
70
0
0
VERTEX
8
Layer 1
10
58.399872
20
30.016767
70
0
0
VERTEX
8
Layer 1
10
57.827525
20
29.381578
70
0
0
VERTEX
8
Layer 1
10
56.798735
20
28.681044
70
0
0
VERTEX
8
Layer 1
10
55.727331
20
28.366571
70
0
0
VERTEX
8
Layer 1
10
54.613363
20
28.438157
70
0
0
VERTEX
8
Layer 1
10
53.456878
20
28.895803
70
0
0
VERTEX
8
Layer 1
10
51.514310
20
30.838636
70
0
0
VERTEX
8
Layer 1
10
50.323587
20
31.300693
70
0
0
VERTEX
8
Layer 1
10
49.373569
20
32.007795
70
0
0
VERTEX
8
Layer 1
10
48.664255
20
32.959918
70
0
0
VERTEX
8
Layer 1
10
48.195646
20
34.157036
70
0
0
VERTEX
8
Layer 1
10
48.140282
20
35.541533
70
0
0
VERTEX
8
Layer 1
10
48.357570
20
36.908964
70
0
0
VERTEX
8
Layer 1
10
49.396737
20
39.168478
70
0
0
VERTEX
8
Layer 1
10
50.741397
20
41.189718
70
0
0
VERTEX
8
Layer 1
10
52.391552
20
42.972735
70
0
0
VERTEX
8
Layer 1
10
54.347200
20
44.517577
70
0
0
VERTEX
8
Layer 1
10
54.428163
20
44.760431
70
0
0
VERTEX
8
Layer 1
10
54.347200
20
45.003087
70
0
0
VERTEX
8
Layer 1
10
51.525224
20
47.176537
70
0
0
VERTEX
8
Layer 1
10
48.438533
20
48.969186
70
0
0
VERTEX
8
Layer 1
10
43.096337
20
51.478491
70
0
0
VERTEX
8
Layer 1
10
39.278967
20
48.759471
70
0
0
VERTEX
8
Layer 1
10
35.326064
20
46.217258
70
0
0
VERTEX
8
Layer 1
10
34.003785
20
45.707378
70
0
0
VERTEX
8
Layer 1
10
32.659133
20
45.442989
70
0
0
VERTEX
8
Layer 1
10
31.292157
20
45.424117
70
0
0
VERTEX
8
Layer 1
10
29.902906
20
45.650786
70
0
0
VERTEX
8
Layer 1
10
28.186573
20
47.281535
70
0
0
VERTEX
8
Layer 1
10
26.724140
20
49.093210
70
0
0
VERTEX
8
Layer 1
10
25.515607
20
51.085759
70
0
0
VERTEX
8
Layer 1
10
24.560975
20
53.259135
70
0
0
VERTEX
8
Layer 1
10
24.358966
20
54.710307
70
0
0
VERTEX
8
Layer 1
10
24.399051
20
56.172988
70
0
0
VERTEX
8
Layer 1
10
25.400452
20
58.074761
70
0
0
VERTEX
8
Layer 1
10
26.665105
20
59.733944
70
0
0
VERTEX
8
Layer 1
10
28.192935
20
61.150538
70
0
0
VERTEX
8
Layer 1
10
29.983868
20
62.324542
70
0
0
VERTEX
8
Layer 1
10
30.093009
20
62.893528
70
0
0
VERTEX
8
Layer 1
10
29.902906
20
63.457751
70
0
0
VERTEX
8
Layer 1
10
27.490670
20
67.797805
70
0
0
VERTEX
8
Layer 1
10
24.803598
20
71.956686
70
0
0
VERTEX
8
Layer 1
10
24.398918
20
72.037649
70
0
0
VERTEX
8
Layer 1
10
23.994239
20
71.956686
70
0
0
VERTEX
8
Layer 1
10
22.739714
20
71.282984
70
0
0
VERTEX
8
Layer 1
10
21.431190
20
70.896568
70
0
0
VERTEX
8
Layer 1
10
20.068641
20
70.797391
70
0
0
VERTEX
8
Layer 1
10
18.652043
20
70.985402
70
0
0
VERTEX
8
Layer 1
10
17.752982
20
71.487796
70
0
0
VERTEX
8
Layer 1
10
17.129500
20
72.167890
70
0
0
VERTEX
8
Layer 1
10
16.781648
20
73.025684
70
0
0
VERTEX
8
Layer 1
10
16.709475
20
74.061180
70
0
0
VERTEX
8
Layer 1
10
17.106643
20
75.792888
70
0
0
VERTEX
8
Layer 1
10
17.479125
20
76.438283
70
0
0
VERTEX
8
Layer 1
10
17.967534
20
76.936701
70
0
0
VERTEX
8
Layer 1
10
18.571868
20
77.288139
70
0
0
VERTEX
8
Layer 1
10
19.292123
20
77.492594
70
0
0
VERTEX
8
Layer 1
10
21.080386
20
77.460542
70
0
0
VERTEX
8
Layer 1
10
22.443154
20
76.941066
70
0
0
VERTEX
8
Layer 1
10
23.670389
20
76.165408
70
0
0
VERTEX
8
Layer 1
10
24.273138
20
76.112235
70
0
0
VERTEX
8
Layer 1
10
24.662939
20
76.283346
70
0
0
VERTEX
8
Layer 1
10
24.839767
20
76.678790
70
0
0
VERTEX
8
Layer 1
10
24.803598
20
77.298617
70
0
0
VERTEX
8
Layer 1
10
24.640979
20
79.277408
70
0
0
VERTEX
8
Layer 1
10
24.218406
20
80.979918
70
0
0
VERTEX
8
Layer 1
10
23.535882
20
82.406141
70
0
0
VERTEX
8
Layer 1
10
22.593404
20
83.556071
70
0
0
VERTEX
8
Layer 1
10
21.390973
20
84.429703
70
0
0
VERTEX
8
Layer 1
10
19.928590
20
85.027029
70
0
0
VERTEX
8
Layer 1
10
18.206254
20
85.348043
70
0
0
VERTEX
8
Layer 1
10
16.223965
20
85.392740
70
0
0
VERTEX
8
Layer 1
10
15.657228
20
84.988193
70
0
0
VERTEX
8
Layer 1
10
15.495568
20
78.512789
70
0
0
VERTEX
8
Layer 1
10
15.351395
20
77.788786
70
0
0
VERTEX
8
Layer 1
10
15.020046
20
77.237201
70
0
0
VERTEX
8
Layer 1
10
14.501472
20
76.858008
70
0
0
VERTEX
8
Layer 1
10
13.795622
20
76.651183
70
0
0
VERTEX
8
Layer 1
10
12.034654
20
76.673843
70
0
0
VERTEX
8
Layer 1
10
10.614929
20
76.929946
70
0
0
VERTEX
8
Layer 1
10
9.536455
20
77.419498
70
0
0
VERTEX
8
Layer 1
10
8.799237
20
78.142505
70
0
0
VERTEX
8
Layer 1
10
8.403281
20
79.098973
70
0
0
VERTEX
8
Layer 1
10
8.348594
20
80.288909
70
0
0
VERTEX
8
Layer 1
10
8.635182
20
81.712319
70
0
0
VERTEX
8
Layer 1
10
9.263051
20
83.369210
70
0
0
VERTEX
8
Layer 1
10
10.072323
20
84.480756
70
0
0
VERTEX
8
Layer 1
10
11.043595
20
85.390888
70
0
0
VERTEX
8
Layer 1
10
12.176841
20
86.099607
70
0
0
VERTEX
8
Layer 1
10
13.472037
20
86.606912
70
0
0
VERTEX
8
Layer 1
10
13.567882
20
91.306799
70
0
0
VERTEX
8
Layer 1
10
13.229150
20
95.996169
70
0
0
VERTEX
8
Layer 1
10
12.888082
20
96.642971
70
0
0
VERTEX
8
Layer 1
10
12.450648
20
96.939506
70
0
0
VERTEX
8
Layer 1
10
11.916822
20
96.885750
70
0
0
VERTEX
8
Layer 1
10
11.286582
20
96.481678
70
0
0
VERTEX
8
Layer 1
10
11.058313
20
94.807066
70
0
0
VERTEX
8
Layer 1
10
10.477222
20
93.243976
70
0
0
VERTEX
8
Layer 1
10
9.060029
20
92.206348
70
0
0
VERTEX
8
Layer 1
10
8.392092
20
91.987422
70
0
0
VERTEX
8
Layer 1
10
7.751257
20
91.968422
70
0
0
VERTEX
8
Layer 1
10
7.137521
20
92.149347
70
0
0
VERTEX
8
Layer 1
10
6.550881
20
92.530197
70
0
0
VERTEX
8
Layer 1
10
5.458876
20
93.891675
70
0
0
VERTEX
8
Layer 1
10
5.234138
20
95.119861
70
0
0
VERTEX
8
Layer 1
10
5.415551
20
96.190240
70
0
0
VERTEX
8
Layer 1
10
6.003066
20
97.102861
70
0
0
VERTEX
8
Layer 1
10
6.996633
20
97.857775
70
0
0
VERTEX
8
Layer 1
10
9.424976
20
98.748096
70
0
0
VERTEX
8
Layer 1
10
9.424976
20
98.748096
70
0
0
SEQEND
8
Layer 1
0
POLYLINE
8
Layer 1
62
7
70
1
10
0.000000
20
0.000000
66
1
0
VERTEX
8
Layer 1
10
75.958340
20
176.937135
70
0
0
VERTEX
8
Layer 1
10
79.519891
20
176.694248
70
0
0
VERTEX
8
Layer 1
10
80.452877
20
176.380354
70
0
0
VERTEX
8
Layer 1
10
81.300535
20
175.884889
70
0
0
VERTEX
8
Layer 1
10
82.315050
20
174.626797
70
0
0
VERTEX
8
Layer 1
10
83.057928
20
173.263136
70
0
0
VERTEX
8
Layer 1
10
83.529196
20
171.793906
70
0
0
VERTEX
8
Layer 1
10
83.728878
20
170.219108
70
0
0
VERTEX
8
Layer 1
10
82.919254
20
169.895259
70
0
0
VERTEX
8
Layer 1
10
78.776326
20
169.622598
70
0
0
VERTEX
8
Layer 1
10
74.697370
20
169.855505
70
0
0
VERTEX
8
Layer 1
10
70.682360
20
170.593932
70
0
0
VERTEX
8
Layer 1
10
66.731272
20
171.837827
70
0
0
VERTEX
8
Layer 1
10
68.523611
20
173.281066
70
0
0
VERTEX
8
Layer 1
10
70.416087
20
174.571532
70
0
0
VERTEX
8
Layer 1
10
72.408723
20
175.709251
70
0
0
VERTEX
8
Layer 1
10
74.501546
20
176.694248
70
0
0
VERTEX
8
Layer 1
10
75.958340
20
176.937135
70
0
0
VERTEX
8
Layer 1
10
75.958340
20
176.937135
70
0
0
SEQEND
8
Layer 1
0
POLYLINE
8
Layer 1
62
7
70
1
10
0.000000
20
0.000000
66
1
0
VERTEX
8
Layer 1
10
89.880433
20
169.976221
70
0
0
VERTEX
8
Layer 1
10
87.290165
20
169.976221
70
0
0
VERTEX
8
Layer 1
10
87.290165
20
171.594940
70
0
0
VERTEX
8
Layer 1
10
87.651816
20
172.886284
70
0
0
VERTEX
8
Layer 1
10
88.152966
20
173.979222
70
0
0
VERTEX
8
Layer 1
10
88.793611
20
174.873759
70
0
0
VERTEX
8
Layer 1
10
89.573748
20
175.569903
70
0
0
VERTEX
8
Layer 1
10
90.493374
20
176.067659
70
0
0
VERTEX
8
Layer 1
10
91.552486
20
176.367033
70
0
0
VERTEX
8
Layer 1
10
92.751080
20
176.468033
70
0
0
VERTEX
8
Layer 1
10
94.089154
20
176.370663
70
0
0
VERTEX
8
Layer 1
10
102.992637
20
174.509057
70
0
0
VERTEX
8
Layer 1
10
102.830977
20
170.138146
70
0
0
VERTEX
8
Layer 1
10
89.880433
20
169.976221
70
0
0
VERTEX
8
Layer 1
10
89.880433
20
169.976221
70
0
0
SEQEND
8
Layer 1
0
POLYLINE
8
Layer 1
62
7
70
1
10
0.000000
20
0.000000
66
1
0
VERTEX
8
Layer 1
10
61.874587
20
175.156492
70
0
0
VERTEX
8
Layer 1
10
62.862639
20
175.138632
70
0
0
VERTEX
8
Layer 1
10
63.817155
20
174.913605
70
0
0
VERTEX
8
Layer 1
10
64.337908
20
174.373219
70
0
0
VERTEX
8
Layer 1
10
64.457545
20
173.923270
70
0
0
VERTEX
8
Layer 1
10
64.176091
20
173.563810
70
0
0
VERTEX
8
Layer 1
10
63.493570
20
173.294886
70
0
0
VERTEX
8
Layer 1
10
62.492557
20
173.233821
70
0
0
VERTEX
8
Layer 1
10
61.889039
20
173.523717
70
0
0
VERTEX
8
Layer 1
10
61.683041
20
174.164599
70
0
0
VERTEX
8
Layer 1
10
61.874587
20
175.156492
70
0
0
VERTEX
8
Layer 1
10
61.874587
20
175.156492
70
0
0
SEQEND
8
Layer 1
0
POLYLINE
8
Layer 1
62
7
70
1
10
0.000000
20
0.000000
66
1
0
VERTEX
8
Layer 1
10
105.744829
20
174.023283
70
0
0
VERTEX
8
Layer 1
10
106.827801
20
174.130298
70
0
0
VERTEX
8
Layer 1
10
107.674433
20
173.869163
70
0
0
VERTEX
8
Layer 1
10
108.284727
20
173.239927
70
0
0
VERTEX
8
Layer 1
10
108.658682
20
172.242639
70
0
0
VERTEX
8
Layer 1
10
108.144568
20
171.115458
70
0
0
VERTEX
8
Layer 1
10
107.406642
20
170.483427
70
0
0
VERTEX
8
Layer 1
10
106.444829
20
170.346497
70
0
0
VERTEX
8
Layer 1
10
105.259055
20
170.704618
70
0
0
VERTEX
8
Layer 1
10
104.613588
20
171.660639
70
0
0
VERTEX
8
Layer 1
10
104.479395
20
172.532424
70
0
0
VERTEX
8
Layer 1
10
104.856475
20
173.319972
70
0
0
VERTEX
8
Layer 1
10
105.744829
20
174.023283
70
0
0
VERTEX
8
Layer 1
10
105.744829
20
174.023283
70
0
0
SEQEND
8
Layer 1
0
POLYLINE
8
Layer 1
62
7
70
1
10
0.000000
20
0.000000
66
1
0
VERTEX
8
Layer 1
10
87.290165
20
171.594940
70
0
0
VERTEX
8
Layer 1
10
87.290165
20
169.976221
70
0
0
VERTEX
8
Layer 1
10
89.880433
20
169.976221
70
0
0
VERTEX
8
Layer 1
10
88.527554
20
169.815686
70
0
0
VERTEX
8
Layer 1
10
87.128240
20
169.814296
70
0
0
VERTEX
8
Layer 1
10
87.130522
20
170.729522
70
0
0
VERTEX
8
Layer 1
10
87.290165
20
171.594940
70
0
0
VERTEX
8
Layer 1
10
87.290165
20
171.594940
70
0
0
SEQEND
8
Layer 1
0
POLYLINE
8
Layer 1
62
7
70
1
10
0.000000
20
0.000000
66
1
0
VERTEX
8
Layer 1
10
62.845871
20
171.109430
70
0
0
VERTEX
8
Layer 1
10
73.044487
20
168.276540
70
0
0
VERTEX
8
Layer 1
10
78.139430
20
168.043773
70
0
0
VERTEX
8
Layer 1
10
83.243103
20
168.033653
70
0
0
VERTEX
8
Layer 1
10
82.690113
20
166.692023
70
0
0
VERTEX
8
Layer 1
10
81.858243
20
165.637755
70
0
0
VERTEX
8
Layer 1
10
80.747519
20
164.870873
70
0
0
VERTEX
8
Layer 1
10
79.357967
20
164.391403
70
0
0
VERTEX
8
Layer 1
10
77.266037
20
164.026180
70
0
0
VERTEX
8
Layer 1
10
75.165748
20
163.850463
70
0
0
VERTEX
8
Layer 1
10
73.057076
20
163.864255
70
0
0
VERTEX
8
Layer 1
10
70.939994
20
164.067554
70
0
0
VERTEX
8
Layer 1
10
70.232003
20
164.614116
70
0
0
VERTEX
8
Layer 1
10
69.887747
20
165.443650
70
0
0
VERTEX
8
Layer 1
10
69.202783
20
166.175540
70
0
0
VERTEX
8
Layer 1
10
68.421428
20
166.702767
70
0
0
VERTEX
8
Layer 1
10
67.543633
20
167.025356
70
0
0
VERTEX
8
Layer 1
10
66.569347
20
167.143331
70
0
0
VERTEX
8
Layer 1
10
65.033443
20
166.307150
70
0
0
VERTEX
8
Layer 1
10
63.331645
20
165.848197
70
0
0
VERTEX
8
Layer 1
10
60.836561
20
165.435183
70
0
0
VERTEX
8
Layer 1
10
58.313299
20
165.281725
70
0
0
VERTEX
8
Layer 1
10
58.556187
20
166.091085
70
0
0
VERTEX
8
Layer 1
10
60.984265
20
169.490711
70
0
0
VERTEX
8
Layer 1
10
61.866748
20
170.374286
70
0
0
VERTEX
8
Layer 1
10
62.845871
20
171.109430
70
0
0
VERTEX
8
Layer 1
10
62.845871
20
171.109430
70
0
0
SEQEND
8
Layer 1
0
POLYLINE
8
Layer 1
62
7
70
1
10
0.000000
20
0.000000
66
1
0
VERTEX
8
Layer 1
10
58.798809
20
170.138146
70
0
0
VERTEX
8
Layer 1
10
59.000918
20
170.080996
70
0
0
VERTEX
8
Layer 1
10
59.122659
20
169.895259
70
0
0
VERTEX
8
Layer 1
10
57.846707
20
167.810907
70
0
0
VERTEX
8
Layer 1
10
56.208806
20
166.010122
70
0
0
VERTEX
8
Layer 1
10
55.075597
20
165.686273
70
0
0
VERTEX
8
Layer 1
10
50.381101
20
165.524612
70
0
0
VERTEX
8
Layer 1
10
48.033721
20
165.119800
70
0
0
VERTEX
8
Layer 1
10
47.629173
20
165.281725
70
0
0
VERTEX
8
Layer 1
10
49.201259
20
166.211238
70
0
0
VERTEX
8
Layer 1
10
50.866611
20
166.981406
70
0
0
VERTEX
8
Layer 1
10
58.798809
20
170.138146
70
0
0
VERTEX
8
Layer 1
10
58.798809
20
170.138146
70
0
0
SEQEND
8
Layer 1
0
POLYLINE
8
Layer 1
62
7
70
1
10
0.000000
20
0.000000
66
1
0
VERTEX
8
Layer 1
10
15.252681
20
87.254346
70
0
0
VERTEX
8
Layer 1
10
15.252681
20
96.805528
70
0
0
VERTEX
8
Layer 1
10
17.680759
20
96.805528
70
0
0
VERTEX
8
Layer 1
10
18.092417
20
96.749271
70
0
0
VERTEX
8
Layer 1
10
18.409421
20
96.481678
70
0
0
VERTEX
8
Layer 1
10
18.573421
20
95.414934
70
0
0
VERTEX
8
Layer 1
10
18.938388
20
94.452294
70
0
0
VERTEX
8
Layer 1
10
19.504273
20
93.593784
70
0
0
VERTEX
8
Layer 1
10
20.271027
20
92.839429
70
0
0
VERTEX
8
Layer 1
10
20.941744
20
92.527746
70
0
0
VERTEX
8
Layer 1
10
21.596984
20
92.450790
70
0
0
VERTEX
8
Layer 1
10
22.236746
20
92.608634
70
0
0
VERTEX
8
Layer 1
10
22.861030
20
93.001354
70
0
0
VERTEX
8
Layer 1
10
23.572999
20
94.149177
70
0
0
VERTEX
8
Layer 1
10
23.994813
20
95.174291
70
0
0
VERTEX
8
Layer 1
10
24.126481
20
96.076697
70
0
0
VERTEX
8
Layer 1
10
23.968012
20
96.856394
70
0
0
VERTEX
8
Layer 1
10
23.519415
20
97.513383
70
0
0
VERTEX
8
Layer 1
10
22.780700
20
98.047663
70
0
0
VERTEX
8
Layer 1
10
21.751875
20
98.459234
70
0
0
VERTEX
8
Layer 1
10
20.432951
20
98.748096
70
0
0
VERTEX
8
Layer 1
10
20.272416
20
104.323919
70
0
0
VERTEX
8
Layer 1
10
20.271027
20
109.917997
70
0
0
VERTEX
8
Layer 1
10
21.906149
20
110.108563
70
0
0
VERTEX
8
Layer 1
10
23.508729
20
110.484469
70
0
0
VERTEX
8
Layer 1
10
24.563915
20
111.556721
70
0
0
VERTEX
8
Layer 1
10
24.837823
20
112.108094
70
0
0
VERTEX
8
Layer 1
10
24.942603
20
112.669627
70
0
0
VERTEX
8
Layer 1
10
24.878253
20
113.241318
70
0
0
VERTEX
8
Layer 1
10
24.644770
20
113.823163
70
0
0
VERTEX
8
Layer 1
10
23.670389
20
115.017305
70
0
0
VERTEX
8
Layer 1
10
22.728470
20
115.260490
70
0
0
VERTEX
8
Layer 1
10
21.885107
20
115.333019
70
0
0
VERTEX
8
Layer 1
10
21.140305
20
115.234892
70
0
0
VERTEX
8
Layer 1
10
20.494070
20
114.966108
70
0
0
VERTEX
8
Layer 1
10
19.946409
20
114.526669
70
0
0
VERTEX
8
Layer 1
10
19.497328
20
113.916574
70
0
0
VERTEX
8
Layer 1
10
18.894930
20
112.184415
70
0
0
VERTEX
8
Layer 1
10
18.413455
20
111.822068
70
0
0
VERTEX
8
Layer 1
10
17.842684
20
111.617678
70
0
0
VERTEX
8
Layer 1
10
15.255426
20
111.423606
70
0
0
VERTEX
8
Layer 1
10
12.662413
20
111.455753
70
0
0
VERTEX
8
Layer 1
10
11.712064
20
111.718054
70
0
0
VERTEX
8
Layer 1
10
10.962732
20
112.346075
70
0
0
VERTEX
8
Layer 1
10
10.355965
20
113.740498
70
0
0
VERTEX
8
Layer 1
10
9.910849
20
115.176617
70
0
0
VERTEX
8
Layer 1
10
9.627411
20
116.654458
70
0
0
VERTEX
8
Layer 1
10
9.505673
20
118.174045
70
0
0
VERTEX
8
Layer 1
10
9.424909
20
120.521194
70
0
0
VERTEX
8
Layer 1
10
9.505673
20
122.868541
70
0
0
VERTEX
8
Layer 1
10
9.592845
20
123.822925
70
0
0
VERTEX
8
Layer 1
10
9.905194
20
124.640189
70
0
0
VERTEX
8
Layer 1
10
10.442769
20
125.320332
70
0
0
VERTEX
8
Layer 1
10
11.205619
20
125.863356
70
0
0
VERTEX
8
Layer 1
10
12.107351
20
125.912568
70
0
0
VERTEX
8
Layer 1
10
12.986263
20
125.701431
70
0
0
VERTEX
8
Layer 1
10
14.345955
20
124.988215
70
0
0
VERTEX
8
Layer 1
10
15.576266
20
124.082712
70
0
0
VERTEX
8
Layer 1
10
16.763520
20
122.935596
70
0
0
VERTEX
8
Layer 1
10
18.049621
20
121.932645
70
0
0
VERTEX
8
Layer 1
10
19.434593
20
121.073858
70
0
0
VERTEX
8
Layer 1
10
20.918461
20
120.359236
70
0
0
VERTEX
8
Layer 1
10
22.954366
20
120.387129
70
0
0
VERTEX
8
Layer 1
10
24.717894
20
120.699014
70
0
0
VERTEX
8
Layer 1
10
26.209048
20
121.294894
70
0
0
VERTEX
8
Layer 1
10
27.427831
20
122.174771
70
0
0
VERTEX
8
Layer 1
10
28.374247
20
123.338650
70
0
0
VERTEX
8
Layer 1
10
29.048299
20
124.786532
70
0
0
VERTEX
8
Layer 1
10
29.449989
20
126.518422
70
0
0
VERTEX
8
Layer 1
10
29.579321
20
128.534321
70
0
0
VERTEX
8
Layer 1
10
28.753909
20
131.161325
70
0
0
VERTEX
8
Layer 1
10
28.158047
20
132.339154
70
0
0
VERTEX
8
Layer 1
10
27.440068
20
133.426527
70
0
0
VERTEX
8
Layer 1
10
26.599964
20
134.423438
70
0
0
VERTEX
8
Layer 1
10
25.637725
20
135.329879
70
0
0
VERTEX
8
Layer 1
10
23.346804
20
136.871332
70
0
0
VERTEX
8
Layer 1
10
23.184879
20
137.276144
70
0
0
VERTEX
8
Layer 1
10
25.208410
20
142.132565
70
0
0
VERTEX
8
Layer 1
10
25.347878
20
143.529761
70
0
0
VERTEX
8
Layer 1
10
25.693920
20
144.884492
70
0
0
VERTEX
8
Layer 1
10
26.254100
20
145.242572
70
0
0
VERTEX
8
Layer 1
10
26.818596
20
145.361932
70
0
0
VERTEX
8
Layer 1
10
27.387358
20
145.242572
70
0
0
VERTEX
8
Layer 1
10
27.960338
20
144.884492
70
0
0
VERTEX
8
Layer 1
10
28.528453
20
143.884071
70
0
0
VERTEX
8
Layer 1
10
29.168386
20
143.085655
70
0
0
VERTEX
8
Layer 1
10
29.880148
20
142.489242
70
0
0
VERTEX
8
Layer 1
10
30.663748
20
142.094829
70
0
0
VERTEX
8
Layer 1
10
31.519193
20
141.902412
70
0
0
VERTEX
8
Layer 1
10
32.446495
20
141.911989
70
0
0
VERTEX
8
Layer 1
10
33.445663
20
142.123557
70
0
0
VERTEX
8
Layer 1
10
34.516704
20
142.537112
70
0
0
VERTEX
8
Layer 1
10
35.373350
20
143.408297
70
0
0
VERTEX
8
Layer 1
10
35.888237
20
144.386713
70
0
0
VERTEX
8
Layer 1
10
36.061315
20
145.472334
70
0
0
VERTEX
8
Layer 1
10
35.892536
20
146.665136
70
0
0
VERTEX
8
Layer 1
10
35.096472
20
147.145652
70
0
0
VERTEX
8
Layer 1
10
34.192855
20
147.393798
70
0
0
VERTEX
8
Layer 1
10
30.955153
20
147.555458
70
0
0
VERTEX
8
Layer 1
10
30.145793
20
147.798345
70
0
0
VERTEX
8
Layer 1
10
31.388804
20
148.672626
70
0
0
VERTEX
8
Layer 1
10
32.897721
20
149.012516
70
0
0
VERTEX
8
Layer 1
10
38.401841
20
149.336366
70
0
0
VERTEX
8
Layer 1
10
40.381005
20
149.702689
70
0
0
VERTEX
8
Layer 1
10
42.052491
20
150.512768
70
0
0
VERTEX
8
Layer 1
10
43.416301
20
151.766652
70
0
0
VERTEX
8
Layer 1
10
44.472434
20
153.464390
70
0
0
VERTEX
8
Layer 1
10
44.518273
20
155.212986
70
0
0
VERTEX
8
Layer 1
10
43.986659
20
156.863752
70
0
0
VERTEX
8
Layer 1
10
42.044091
20
158.968246
70
0
0
VERTEX
8
Layer 1
10
41.790930
20
159.952060
70
0
0
VERTEX
8
Layer 1
10
41.908922
20
160.806072
70
0
0
VERTEX
8
Layer 1
10
42.398041
20
161.530356
70
0
0
VERTEX
8
Layer 1
10
43.258262
20
162.124985
70
0
0
VERTEX
8
Layer 1
10
44.490557
20
162.278940
70
0
0
VERTEX
8
Layer 1
10
45.686340
20
162.610495
70
0
0
VERTEX
8
Layer 1
10
46.467340
20
163.220983
70
0
0
VERTEX
8
Layer 1
10
47.321265
20
163.626858
70
0
0
VERTEX
8
Layer 1
10
48.248116
20
163.828094
70
0
0
VERTEX
8
Layer 1
10
49.247892
20
163.824667
70
0
0
VERTEX
8
Layer 1
10
52.021549
20
163.824071
70
0
0
VERTEX
8
Layer 1
10
54.751748
20
163.662742
70
0
0
VERTEX
8
Layer 1
10
53.135509
20
161.316585
70
0
0
VERTEX
8
Layer 1
10
51.190461
20
159.211133
70
0
0
VERTEX
8
Layer 1
10
49.871452
20
158.832750
70
0
0
VERTEX
8
Layer 1
10
48.838218
20
158.153561
70
0
0
VERTEX
8
Layer 1
10
48.090784
20
157.173492
70
0
0
VERTEX
8
Layer 1
10
47.629173
20
155.892468
70
0
0
VERTEX
8
Layer 1
10
48.085724
20
154.371757
70
0
0
VERTEX
8
Layer 1
10
48.452810
20
153.814500
70
0
0
VERTEX
8
Layer 1
10
48.912434
20
153.392655
70
0
0
VERTEX
8
Layer 1
10
49.464591
20
153.106231
70
0
0
VERTEX
8
Layer 1
10
50.109279
20
152.955237
70
0
0
VERTEX
8
Layer 1
10
51.676235
20
153.059578
70
0
0
VERTEX
8
Layer 1
10
52.494739
20
153.574771
70
0
0
VERTEX
8
Layer 1
10
53.158760
20
154.218650
70
0
0
VERTEX
8
Layer 1
10
53.668297
20
154.991216
70
0
0
VERTEX
8
Layer 1
10
54.023351
20
155.892468
70
0
0
VERTEX
8
Layer 1
10
56.599388
20
157.510860
70
0
0
VERTEX
8
Layer 1
10
59.240163
20
158.883662
70
0
0
VERTEX
8
Layer 1
10
61.945671
20
160.010872
70
0
0
VERTEX
8
Layer 1
10
64.715910
20
160.892492
70
0
0
VERTEX
8
Layer 1
10
67.550877
20
161.528520
70
0
0
VERTEX
8
Layer 1
10
70.450569
20
161.918958
70
0
0
VERTEX
8
Layer 1
10
73.414982
20
162.063805
70
0
0
VERTEX
8
Layer 1
10
76.444114
20
161.963061
70
0
0
VERTEX
8
Layer 1
10
78.724646
20
162.298763
70
0
0
VERTEX
8
Layer 1
10
80.766408
20
163.071696
70
0
0
VERTEX
8
Layer 1
10
82.569351
20
164.281837
70
0
0
VERTEX
8
Layer 1
10
84.133425
20
165.929160
70
0
0
VERTEX
8
Layer 1
10
85.104709
20
168.195578
70
0
0
VERTEX
8
Layer 1
10
86.561768
20
165.119800
70
0
0
VERTEX
8
Layer 1
10
87.665228
20
163.487249
70
0
0
VERTEX
8
Layer 1
10
89.044813
20
162.309069
70
0
0
VERTEX
8
Layer 1
10
90.700524
20
161.585211
70
0
0
VERTEX
8
Layer 1
10
92.632360
20
161.315626
70
0
0
VERTEX
8
Layer 1
10
97.496024
20
163.666347
70
0
0
VERTEX
8
Layer 1
10
102.183278
20
166.333972
70
0
0
VERTEX
8
Layer 1
10
105.088994
20
167.787326
70
0
0
VERTEX
8
Layer 1
10
108.172907
20
168.762050
70
0
0
VERTEX
8
Layer 1
10
108.637218
20
169.228080
70
0
0
VERTEX
8
Layer 1
10
109.225154
20
169.490711
70
0
0
VERTEX
8
Layer 1
10
111.105545
20
168.671893
70
0
0
VERTEX
8
Layer 1
10
112.867668
20
167.628841
70
0
0
VERTEX
8
Layer 1
10
121.609226
20
162.044023
70
0
0
VERTEX
8
Layer 1
10
121.760931
20
161.817606
70
0
0
VERTEX
8
Layer 1
10
121.690188
20
161.558249
70
0
0
VERTEX
8
Layer 1
10
116.347993
20
154.111825
70
0
0
VERTEX
8
Layer 1
10
116.110596
20
153.720639
70
0
0
VERTEX
8
Layer 1
10
116.024408
20
153.302465
70
0
0
VERTEX
8
Layer 1
10
127.207075
20
145.485228
70
0
0
VERTEX
8
Layer 1
10
138.282982
20
137.518766
70
0
0
VERTEX
8
Layer 1
10
139.982928
20
135.819085
70
0
0
VERTEX
8
Layer 1
10
140.306513
20
132.905233
70
0
0
VERTEX
8
Layer 1
10
140.815900
20
132.049994
70
0
0
VERTEX
8
Layer 1
10
141.385011
20
131.372611
70
0
0
VERTEX
8
Layer 1
10
142.013839
20
130.873089
70
0
0
VERTEX
8
Layer 1
10
142.702378
20
130.551436
70
0
0
VERTEX
8
Layer 1
10
143.450622
20
130.407657
70
0
0
VERTEX
8
Layer 1
10
144.258564
20
130.441758
70
0
0
VERTEX
8
Layer 1
10
146.053520
20
131.043627
70
0
0
VERTEX
8
Layer 1
10
147.922398
20
130.872971
70
0
0
VERTEX
8
Layer 1
10
149.611070
20
130.316949
70
0
0
VERTEX
8
Layer 1
10
151.119512
20
129.375563
70
0
0
VERTEX
8
Layer 1
10
152.447698
20
128.048812
70
0
0
VERTEX
8
Layer 1
10
153.338019
20
124.325600
70
0
0
VERTEX
8
Layer 1
10
152.755007
20
121.676016
70
0
0
VERTEX
8
Layer 1
10
151.859232
20
119.160476
70
0
0
VERTEX
8
Layer 1
10
150.650670
20
116.778981
70
0
0
VERTEX
8
Layer 1
10
149.129298
20
114.531531
70
0
0
VERTEX
8
Layer 1
10
147.857951
20
114.285084
70
0
0
VERTEX
8
Layer 1
10
146.773186
20
113.757725
70
0
0
VERTEX
8
Layer 1
10
145.874951
20
112.949527
70
0
0
VERTEX
8
Layer 1
10
145.163198
20
111.860565
70
0
0
VERTEX
8
Layer 1
10
144.959784
20
111.020630
70
0
0
VERTEX
8
Layer 1
10
144.945976
20
110.201035
70
0
0
VERTEX
8
Layer 1
10
145.121675
20
109.401779
70
0
0
VERTEX
8
Layer 1
10
145.486783
20
108.622863
70
0
0
VERTEX
8
Layer 1
10
146.862880
20
107.247032
70
0
0
VERTEX
8
Layer 1
10
147.712782
20
106.821979
70
0
0
VERTEX
8
Layer 1
10
148.562660
20
106.680295
70
0
0
VERTEX
8
Layer 1
10
149.412488
20
106.821979
70
0
0
VERTEX
8
Layer 1
10
150.262242
20
107.247032
70
0
0
VERTEX
8
Layer 1
10
153.014434
20
109.675110
70
0
0
VERTEX
8
Layer 1
10
154.321342
20
110.326745
70
0
0
VERTEX
8
Layer 1
10
155.766362
20
110.484469
70
0
0
VERTEX
8
Layer 1
10
156.283304
20
109.907765
70
0
0
VERTEX
8
Layer 1
10
156.887235
20
109.526646
70
0
0
VERTEX
8
Layer 1
10
157.578231
20
109.341136
70
0
0
VERTEX
8
Layer 1
10
158.356365
20
109.351260
70
0
0
VERTEX
8
Layer 1
10
158.599252
20
108.946713
70
0
0
VERTEX
8
Layer 1
10
158.825471
20
107.011883
70
0
0
VERTEX
8
Layer 1
10
158.761177
20
105.061576
70
0
0
VERTEX
8
Layer 1
10
158.447282
20
104.128458
70
0
0
VERTEX
8
Layer 1
10
157.951818
20
103.280668
70
0
0
VERTEX
8
Layer 1
10
157.251144
20
102.647310
70
0
0
VERTEX
8
Layer 1
10
156.707285
20
101.923589
70
0
0
VERTEX
8
Layer 1
10
156.320291
20
101.109529
70
0
0
VERTEX
8
Layer 1
10
156.090212
20
100.205155
70
0
0
VERTEX
8
Layer 1
10
156.332834
20
99.071946
70
0
0
VERTEX
8
Layer 1
10
158.275403
20
96.643603
70
0
0
VERTEX
8
Layer 1
10
158.356564
20
95.591357
70
0
0
VERTEX
8
Layer 1
10
158.275403
20
94.539110
70
0
0
VERTEX
8
Layer 1
10
157.789893
20
92.596542
70
0
0
VERTEX
8
Layer 1
10
157.420337
20
91.856900
70
0
0
VERTEX
8
Layer 1
10
156.899571
20
91.220445
70
0
0
VERTEX
8
Layer 1
10
155.811130
20
90.779518
70
0
0
VERTEX
8
Layer 1
10
154.868268
20
90.160394
70
0
0
VERTEX
8
Layer 1
10
154.070910
20
89.363073
70
0
0
VERTEX
8
Layer 1
10
153.418982
20
88.387555
70
0
0
VERTEX
8
Layer 1
10
153.304231
20
87.417139
70
0
0
VERTEX
8
Layer 1
10
153.400891
20
86.500152
70
0
0
VERTEX
8
Layer 1
10
153.708936
20
85.636545
70
0
0
VERTEX
8
Layer 1
10
154.228341
20
84.826268
70
0
0
VERTEX
8
Layer 1
10
156.009249
20
83.369210
70
0
0
VERTEX
8
Layer 1
10
156.399178
20
82.123764
70
0
0
VERTEX
8
Layer 1
10
156.556142
20
80.872241
70
0
0
VERTEX
8
Layer 1
10
156.480141
20
79.614616
70
0
0
VERTEX
8
Layer 1
10
156.171174
20
78.350864
70
0
0
VERTEX
8
Layer 1
10
155.026402
20
77.672151
70
0
0
VERTEX
8
Layer 1
10
154.132132
20
76.798423
70
0
0
VERTEX
8
Layer 1
10
153.488439
20
75.729632
70
0
0
VERTEX
8
Layer 1
10
153.095397
20
74.465727
70
0
0
VERTEX
8
Layer 1
10
152.366735
20
73.737330
70
0
0
VERTEX
8
Layer 1
10
147.530356
20
71.639451
70
0
0
VERTEX
8
Layer 1
10
142.491968
20
70.094816
70
0
0
VERTEX
8
Layer 1
10
141.507885
20
70.350304
70
0
0
VERTEX
8
Layer 1
10
140.711325
20
70.985402
70
0
0
VERTEX
8
Layer 1
10
139.323748
20
71.311228
70
0
0
VERTEX
8
Layer 1
10
138.078823
20
71.177026
70
0
0
VERTEX
8
Layer 1
10
136.976525
20
70.582748
70
0
0
VERTEX
8
Layer 1
10
136.016829
20
69.528344
70
0
0
VERTEX
8
Layer 1
10
135.645499
20
68.287028
70
0
0
VERTEX
8
Layer 1
10
135.629644
20
67.090807
70
0
0
VERTEX
8
Layer 1
10
135.969241
20
65.939730
70
0
0
VERTEX
8
Layer 1
10
136.664263
20
64.833847
70
0
0
VERTEX
8
Layer 1
10
137.474540
20
64.314293
70
0
0
VERTEX
8
Layer 1
10
138.338148
20
64.006199
70
0
0
VERTEX
8
Layer 1
10
139.255134
20
63.909589
70
0
0
VERTEX
8
Layer 1
10
140.225550
20
64.024488
70
0
0
VERTEX
8
Layer 1
10
141.322173
20
64.479153
70
0
0
VERTEX
8
Layer 1
10
142.443153
20
64.711643
70
0
0
VERTEX
8
Layer 1
10
143.588541
20
64.721933
70
0
0
VERTEX
8
Layer 1
10
144.758386
20
64.509998
70
0
0
VERTEX
8
Layer 1
10
145.335644
20
64.246432
70
0
0
VERTEX
8
Layer 1
10
145.797834
20
63.875263
70
0
0
VERTEX
8
Layer 1
10
146.144979
20
63.396542
70
0
0
VERTEX
8
Layer 1
10
146.377105
20
62.810317
70
0
0
VERTEX
8
Layer 1
10
144.043053
20
60.233047
70
0
0
VERTEX
8
Layer 1
10
141.358759
20
58.034594
70
0
0
VERTEX
8
Layer 1
10
137.173122
20
55.050990
70
0
0
VERTEX
8
Layer 1
10
132.779126
20
52.368813
70
0
0
VERTEX
8
Layer 1
10
129.355092
20
51.481567
70
0
0
VERTEX
8
Layer 1
10
127.755439
20
50.839848
70
0
0
VERTEX
8
Layer 1
10
126.230697
20
50.066081
70
0
0
VERTEX
8
Layer 1
10
124.780865
20
49.160279
70
0
0
VERTEX
8
Layer 1
10
123.405943
20
48.122454
70
0
0
VERTEX
8
Layer 1
10
120.880829
20
45.650786
70
0
0
VERTEX
8
Layer 1
10
117.713175
20
41.511154
70
0
0
VERTEX
8
Layer 1
10
114.972161
20
37.070889
70
0
0
VERTEX
8
Layer 1
10
114.661706
20
36.915512
70
0
0
VERTEX
8
Layer 1
10
114.324462
20
36.989926
70
0
0
VERTEX
8
Layer 1
10
112.853745
20
38.369793
70
0
0
VERTEX
8
Layer 1
10
111.086760
20
39.256344
70
0
0
VERTEX
8
Layer 1
10
110.203111
20
39.272124
70
0
0
VERTEX
8
Layer 1
10
109.369021
20
39.115487
70
0
0
VERTEX
8
Layer 1
10
108.584442
20
38.786457
70
0
0
VERTEX
8
Layer 1
10
107.849322
20
38.285060
70
0
0
VERTEX
8
Layer 1
10
105.340017
20
35.614095
70
0
0
VERTEX
8
Layer 1
10
101.778730
20
30.271899
70
0
0
VERTEX
8
Layer 1
10
99.593275
20
28.248369
70
0
0
VERTEX
8
Layer 1
10
98.281265
20
27.871979
70
0
0
VERTEX
8
Layer 1
10
97.007505
20
27.854438
70
0
0
VERTEX
8
Layer 1
10
95.772043
20
28.195721
70
0
0
VERTEX
8
Layer 1
10
94.574929
20
28.895803
70
0
0
VERTEX
8
Layer 1
10
90.365942
20
32.619280
70
0
0
VERTEX
8
Layer 1
10
88.151570
20
34.255779
70
0
0
VERTEX
8
Layer 1
10
85.870305
20
35.557685
70
0
0
VERTEX
8
Layer 1
10
83.522155
20
36.524995
70
0
0
VERTEX
8
Layer 1
10
81.107125
20
37.157705
70
0
0
VERTEX
8
Layer 1
10
78.625222
20
37.455813
70
0
0
VERTEX
8
Layer 1
10
76.076451
20
37.419316
70
0
0
VERTEX
8
Layer 1
10
73.460820
20
37.048210
70
0
0
VERTEX
8
Layer 1
10
70.778334
20
36.342492
70
0
0
VERTEX
8
Layer 1
10
68.585238
20
35.120714
70
0
0
VERTEX
8
Layer 1
10
66.731272
20
33.428639
70
0
0
VERTEX
8
Layer 1
10
65.112289
20
32.457355
70
0
0
VERTEX
8
Layer 1
10
62.340517
20
32.461291
70
0
0
VERTEX
8
Layer 1
10
59.608433
20
32.942865
70
0
0
VERTEX
8
Layer 1
10
58.786341
20
33.441108
70
0
0
VERTEX
8
Layer 1
10
58.394262
20
34.318961
70
0
0
VERTEX
8
Layer 1
10
57.201464
20
35.301668
70
0
0
VERTEX
8
Layer 1
10
55.926959
20
35.750653
70
0
0
VERTEX
8
Layer 1
10
54.570798
20
35.665891
70
0
0
VERTEX
8
Layer 1
10
53.133029
20
35.047358
70
0
0
VERTEX
8
Layer 1
10
52.331409
20
34.171621
70
0
0
VERTEX
8
Layer 1
10
51.676235
20
33.185752
70
0
0
VERTEX
8
Layer 1
10
51.166950
20
33.112971
70
0
0
VERTEX
8
Layer 1
10
50.740835
20
33.223620
70
0
0
VERTEX
8
Layer 1
10
50.397915
20
33.517675
70
0
0
VERTEX
8
Layer 1
10
50.138214
20
33.995111
70
0
0
VERTEX
8
Layer 1
10
49.975987
20
35.227055
70
0
0
VERTEX
8
Layer 1
10
50.056822
20
36.420180
70
0
0
VERTEX
8
Layer 1
10
50.380692
20
37.574460
70
0
0
VERTEX
8
Layer 1
10
50.947573
20
38.689872
70
0
0
VERTEX
8
Layer 1
10
51.959657
20
40.167676
70
0
0
VERTEX
8
Layer 1
10
53.173874
20
41.402245
70
0
0
VERTEX
8
Layer 1
10
54.590249
20
42.393530
70
0
0
VERTEX
8
Layer 1
10
56.208806
20
43.141481
70
0
0
VERTEX
8
Layer 1
10
56.474315
20
43.636946
70
0
0
VERTEX
8
Layer 1
10
56.451693
20
44.193728
70
0
0
VERTEX
8
Layer 1
10
55.767581
20
45.424295
70
0
0
VERTEX
8
Layer 1
10
54.932458
20
46.522455
70
0
0
VERTEX
8
Layer 1
10
53.946324
20
47.488257
70
0
0
VERTEX
8
Layer 1
10
52.809179
20
48.321752
70
0
0
VERTEX
8
Layer 1
10
47.912178
20
51.094152
70
0
0
VERTEX
8
Layer 1
10
42.853450
20
53.582985
70
0
0
VERTEX
8
Layer 1
10
37.430557
20
49.454961
70
0
0
VERTEX
8
Layer 1
10
34.192855
20
47.512392
70
0
0
VERTEX
8
Layer 1
10
32.511045
20
47.000527
70
0
0
VERTEX
8
Layer 1
10
31.741533
20
46.978784
70
0
0
VERTEX
8
Layer 1
10
31.019612
20
47.113170
70
0
0
VERTEX
8
Layer 1
10
30.345278
20
47.403688
70
0
0
VERTEX
8
Layer 1
10
29.718529
20
47.850343
70
0
0
VERTEX
8
Layer 1
10
28.607772
20
49.212073
70
0
0
VERTEX
8
Layer 1
10
27.154219
20
51.633636
70
0
0
VERTEX
8
Layer 1
10
26.017769
20
54.230419
70
0
0
VERTEX
8
Layer 1
10
26.047233
20
55.256352
70
0
0
VERTEX
8
Layer 1
10
26.272927
20
56.218860
70
0
0
VERTEX
8
Layer 1
10
26.694825
20
57.118016
70
0
0
VERTEX
8
Layer 1
10
27.312903
20
57.953896
70
0
0
VERTEX
8
Layer 1
10
29.821580
20
60.218693
70
0
0
VERTEX
8
Layer 1
10
32.574136
20
62.162618
70
0
0
VERTEX
8
Layer 1
10
29.417396
20
67.987677
70
0
0
VERTEX
8
Layer 1
10
26.017769
20
73.656368
70
0
0
VERTEX
8
Layer 1
10
25.789963
20
74.812695
70
0
0
VERTEX
8
Layer 1
10
26.179694
20
75.922786
70
0
0
VERTEX
8
Layer 1
10
26.372599
20
77.939504
70
0
0
VERTEX
8
Layer 1
10
26.270471
20
79.776044
70
0
0
VERTEX
8
Layer 1
10
25.873304
20
81.432410
70
0
0
VERTEX
8
Layer 1
10
25.181092
20
82.908604
70
0
0
VERTEX
8
Layer 1
10
24.193828
20
84.204629
70
0
0
VERTEX
8
Layer 1
10
22.911507
20
85.320489
70
0
0
VERTEX
8
Layer 1
10
21.334122
20
86.256186
70
0
0
VERTEX
8
Layer 1
10
19.461667
20
87.011724
70
0
0
VERTEX
8
Layer 1
10
17.362135
20
87.218065
70
0
0
VERTEX
8
Layer 1
10
15.252681
20
87.254346
70
0
0
VERTEX
8
Layer 1
10
15.252681
20
87.254346
70
0
0
SEQEND
8
Layer 1
0
POLYLINE
8
Layer 1
62
7
70
1
10
0.000000
20
0.000000
66
1
0
VERTEX
8
Layer 1
10
91.175302
20
168.519427
70
0
0
VERTEX
8
Layer 1
10
99.755199
20
168.438465
70
0
0
VERTEX
8
Layer 1
10
101.535843
20
168.033653
70
0
0
VERTEX
8
Layer 1
10
97.358507
20
165.539958
70
0
0
VERTEX
8
Layer 1
10
92.955945
20
163.420119
70
0
0
VERTEX
8
Layer 1
10
91.878754
20
163.427894
70
0
0
VERTEX
8
Layer 1
10
90.906982
20
163.583772
70
0
0
VERTEX
8
Layer 1
10
90.040629
20
163.887746
70
0
0
VERTEX
8
Layer 1
10
89.279697
20
164.339810
70
0
0
VERTEX
8
Layer 1
10
88.624184
20
164.939957
70
0
0
VERTEX
8
Layer 1
10
88.074091
20
165.688182
70
0
0
VERTEX
8
Layer 1
10
87.629418
20
166.584479
70
0
0
VERTEX
8
Layer 1
10
87.290165
20
167.628841
70
0
0
VERTEX
8
Layer 1
10
87.614015
20
168.114615
70
0
0
VERTEX
8
Layer 1
10
91.175302
20
168.519427
70
0
0
VERTEX
8
Layer 1
10
91.175302
20
168.519427
70
0
0
SEQEND
8
Layer 1
0
POLYLINE
8
Layer 1
62
7
70
1
10
0.000000
20
0.000000
66
1
0
VERTEX
8
Layer 1
10
43.582112
20
166.738519
70
0
0
VERTEX
8
Layer 1
10
44.336661
20
166.621288
70
0
0
VERTEX
8
Layer 1
10
44.911972
20
166.298948
70
0
0
VERTEX
8
Layer 1
10
45.307995
20
165.771472
70
0
0
VERTEX
8
Layer 1
10
45.524680
20
165.038838
70
0
0
VERTEX
8
Layer 1
10
45.386758
20
164.527916
70
0
0
VERTEX
8
Layer 1
10
45.111468
20
164.182217
70
0
0
VERTEX
8
Layer 1
10
44.698760
20
164.001768
70
0
0
VERTEX
8
Layer 1
10
44.148584
20
163.986591
70
0
0
VERTEX
8
Layer 1
10
43.482471
20
164.162014
70
0
0
VERTEX
8
Layer 1
10
43.071599
20
164.517246
70
0
0
VERTEX
8
Layer 1
10
42.915917
20
165.052311
70
0
0
VERTEX
8
Layer 1
10
43.015375
20
165.767235
70
0
0
VERTEX
8
Layer 1
10
43.225520
20
166.299907
70
0
0
VERTEX
8
Layer 1
10
43.582112
20
166.738519
70
0
0
VERTEX
8
Layer 1
10
43.582112
20
166.738519
70
0
0
SEQEND
8
Layer 1
0
POLYLINE
8
Layer 1
62
7
70
1
10
0.000000
20
0.000000
66
1
0
VERTEX
8
Layer 1
10
66.892932
20
165.443650
70
0
0
VERTEX
8
Layer 1
10
67.584346
20
165.364775
70
0
0
VERTEX
8
Layer 1
10
68.057627
20
165.068637
70
0
0
VERTEX
8
Layer 1
10
68.312825
20
164.555259
70
0
0
VERTEX
8
Layer 1
10
68.349991
20
163.824667
70
0
0
VERTEX
8
Layer 1
10
68.255336
20
163.342100
70
0
0
VERTEX
8
Layer 1
10
68.026141
20
162.934345
70
0
0
VERTEX
8
Layer 1
10
67.052815
20
162.756938
70
0
0
VERTEX
8
Layer 1
10
66.391085
20
162.954155
70
0
0
VERTEX
8
Layer 1
10
66.041000
20
163.525973
70
0
0
VERTEX
8
Layer 1
10
66.002611
20
164.472366
70
0
0
VERTEX
8
Layer 1
10
66.390324
20
165.021409
70
0
0
VERTEX
8
Layer 1
10
66.892932
20
165.443650
70
0
0
VERTEX
8
Layer 1
10
66.892932
20
165.443650
70
0
0
SEQEND
8
Layer 1
0
POLYLINE
8
Layer 1
62
7
70
1
10
0.000000
20
0.000000
66
1
0
VERTEX
8
Layer 1
10
49.247892
20
163.824667
70
0
0
VERTEX
8
Layer 1
10
52.061335
20
163.985401
70
0
0
VERTEX
8
Layer 1
10
54.913672
20
163.824667
70
0
0
VERTEX
8
Layer 1
10
54.751748
20
163.662742
70
0
0
VERTEX
8
Layer 1
10
52.021549
20
163.824071
70
0
0
VERTEX
8
Layer 1
10
49.247892
20
163.824667
70
0
0
VERTEX
8
Layer 1
10
49.247892
20
163.824667
70
0
0
SEQEND
8
Layer 1
0
POLYLINE
8
Layer 1
62
7
70
1
10
0.000000
20
0.000000
66
1
0
VERTEX
8
Layer 1
10
57.503940
20
163.986591
70
0
0
VERTEX
8
Layer 1
10
60.663425
20
163.941149
70
0
0
VERTEX
8
Layer 1
10
63.817155
20
163.743704
70
0
0
VERTEX
8
Layer 1
10
64.464854
20
163.501082
70
0
0
VERTEX
8
Layer 1
10
58.937947
20
160.494724
70
0
0
VERTEX
8
Layer 1
10
53.213991
20
157.835037
70
0
0
VERTEX
8
Layer 1
10
52.971104
20
157.996961
70
0
0
VERTEX
8
Layer 1
10
54.742355
20
160.892260
70
0
0
VERTEX
8
Layer 1
10
56.694581
20
163.662742
70
0
0
VERTEX
8
Layer 1
10
57.503940
20
163.986591
70
0
0
VERTEX
8
Layer 1
10
57.503940
20
163.986591
70
0
0
SEQEND
8
Layer 1
0
POLYLINE
8
Layer 1
62
7
70
1
10
0.000000
20
0.000000
66
1
0
VERTEX
8
Layer 1
10
123.066285
20
160.748889
70
0
0
VERTEX
8
Layer 1
10
123.570679
20
160.703877
70
0
0
VERTEX
8
Layer 1
10
124.037569
20
160.506267
70
0
0
VERTEX
8
Layer 1
10
140.549400
20
149.821876
70
0
0
VERTEX
8
Layer 1
10
141.925496
20
148.446044
70
0
0
VERTEX
8
Layer 1
10
142.572931
20
146.017701
70
0
0
VERTEX
8
Layer 1
10
143.478334
20
145.039274
70
0
0
VERTEX
8
Layer 1
10
144.596462
20
144.318020
70
0
0
VERTEX
8
Layer 1
10
146.060275
20
144.463731
70
0
0
VERTEX
8
Layer 1
10
147.317169
20
144.175013
70
0
0
VERTEX
8
Layer 1
10
148.367092
20
143.451916
70
0
0
VERTEX
8
Layer 1
10
149.209995
20
142.294489
70
0
0
VERTEX
8
Layer 1
10
152.056412
20
137.249454
70
0
0
VERTEX
8
Layer 1
10
154.714116
20
132.095873
70
0
0
VERTEX
8
Layer 1
10
154.815620
20
131.591834
70
0
0
VERTEX
8
Layer 1
10
154.728039
20
131.194505
70
0
0
VERTEX
8
Layer 1
10
154.451397
20
130.903836
70
0
0
VERTEX
8
Layer 1
10
153.985719
20
130.719777
70
0
0
VERTEX
8
Layer 1
10
152.245721
20
131.017979
70
0
0
VERTEX
8
Layer 1
10
150.626970
20
131.589527
70
0
0
VERTEX
8
Layer 1
10
149.129463
20
132.434424
70
0
0
VERTEX
8
Layer 1
10
147.753201
20
133.552667
70
0
0
VERTEX
8
Layer 1
10
147.267427
20
135.657160
70
0
0
VERTEX
8
Layer 1
10
146.809682
20
136.367471
70
0
0
VERTEX
8
Layer 1
10
146.238927
20
136.941479
70
0
0
VERTEX
8
Layer 1
10
145.555162
20
137.379211
70
0
0
VERTEX
8
Layer 1
10
144.758386
20
137.680691
70
0
0
VERTEX
8
Layer 1
10
143.363666
20
137.631127
70
0
0
VERTEX
8
Layer 1
10
142.035397
20
137.830478
70
0
0
VERTEX
8
Layer 1
10
140.773556
20
138.278719
70
0
0
VERTEX
8
Layer 1
10
139.578116
20
138.975825
70
0
0
VERTEX
8
Layer 1
10
122.580510
20
150.793160
70
0
0
VERTEX
8
Layer 1
10
118.857298
20
153.140540
70
0
0
VERTEX
8
Layer 1
10
118.533449
20
153.787975
70
0
0
VERTEX
8
Layer 1
10
119.099921
20
155.083109
70
0
0
VERTEX
8
Layer 1
10
123.066285
20
160.748889
70
0
0
VERTEX
8
Layer 1
10
123.066285
20
160.748889
70
0
0
SEQEND
8
Layer 1
0
POLYLINE
8
Layer 1
62
7
70
1
10
0.000000
20
0.000000
66
1
0
VERTEX
8
Layer 1
10
37.592482
20
157.673112
70
0
0
VERTEX
8
Layer 1
10
38.563766
20
157.592149
70
0
0
VERTEX
8
Layer 1
10
38.725426
20
157.268564
70
0
0
VERTEX
8
Layer 1
10
37.997029
20
155.568619
70
0
0
VERTEX
8
Layer 1
10
37.574515
20
155.091774
70
0
0
VERTEX
8
Layer 1
10
37.163857
20
154.932826
70
0
0
VERTEX
8
Layer 1
10
36.765106
20
155.091774
70
0
0
VERTEX
8
Layer 1
10
36.378310
20
155.568619
70
0
0
VERTEX
8
Layer 1
10
36.353266
20
156.288007
70
0
0
VERTEX
8
Layer 1
10
36.547247
20
156.878536
70
0
0
VERTEX
8
Layer 1
10
36.960302
20
157.340229
70
0
0
VERTEX
8
Layer 1
10
37.592482
20
157.673112
70
0
0
VERTEX
8
Layer 1
10
37.592482
20
157.673112
70
0
0
SEQEND
8
Layer 1
0
POLYLINE
8
Layer 1
62
7
70
1
10
0.000000
20
0.000000
66
1
0
VERTEX
8
Layer 1
10
50.057252
20
157.025677
70
0
0
VERTEX
8
Layer 1
10
50.939760
20
156.880169
70
0
0
VERTEX
8
Layer 1
10
51.490233
20
156.480934
70
0
0
VERTEX
8
Layer 1
10
51.708721
20
155.827947
70
0
0
VERTEX
8
Layer 1
10
51.595272
20
154.921184
70
0
0
VERTEX
8
Layer 1
10
51.049268
20
154.559644
70
0
0
VERTEX
8
Layer 1
10
50.516535
20
154.466068
70
0
0
VERTEX
8
Layer 1
10
49.997046
20
154.640532
70
0
0
VERTEX
8
Layer 1
10
49.490779
20
155.083109
70
0
0
VERTEX
8
Layer 1
10
49.480428
20
156.161946
70
0
0
VERTEX
8
Layer 1
10
49.695455
20
156.620725
70
0
0
VERTEX
8
Layer 1
10
50.057252
20
157.025677
70
0
0
VERTEX
8
Layer 1
10
50.057252
20
157.025677
70
0
0
SEQEND
8
Layer 1
0
POLYLINE
8
Layer 1
62
7
70
1
10
0.000000
20
0.000000
66
1
0
VERTEX
8
Layer 1
10
145.243896
20
149.740913
70
0
0
VERTEX
8
Layer 1
10
146.481801
20
149.666810
70
0
0
VERTEX
8
Layer 1
10
147.312638
20
149.210391
70
0
0
VERTEX
8
Layer 1
10
147.736429
20
148.371734
70
0
0
VERTEX
8
Layer 1
10
147.753201
20
147.150910
70
0
0
VERTEX
8
Layer 1
10
146.999884
20
146.276546
70
0
0
VERTEX
8
Layer 1
10
146.182174
20
145.904129
70
0
0
VERTEX
8
Layer 1
10
145.300070
20
146.033659
70
0
0
VERTEX
8
Layer 1
10
144.353574
20
146.665136
70
0
0
VERTEX
8
Layer 1
10
144.150387
20
147.383446
70
0
0
VERTEX
8
Layer 1
10
144.123090
20
148.081515
70
0
0
VERTEX
8
Layer 1
10
144.271756
20
148.759443
70
0
0
VERTEX
8
Layer 1
10
144.596462
20
149.417328
70
0
0
VERTEX
8
Layer 1
10
145.243896
20
149.740913
70
0
0
VERTEX
8
Layer 1
10
145.243896
20
149.740913
70
0
0
SEQEND
8
Layer 1
0
POLYLINE
8
Layer 1
62
7
70
1
10
0.000000
20
0.000000
66
1
0
VERTEX
8
Layer 1
10
21.727821
20
145.693852
70
0
0
VERTEX
8
Layer 1
10
22.413785
20
145.661044
70
0
0
VERTEX
8
Layer 1
10
23.022954
20
145.370267
70
0
0
VERTEX
8
Layer 1
10
23.463634
20
144.423473
70
0
0
VERTEX
8
Layer 1
10
23.651008
20
143.460308
70
0
0
VERTEX
8
Layer 1
10
23.585077
20
142.480772
70
0
0
VERTEX
8
Layer 1
10
23.265842
20
141.484866
70
0
0
VERTEX
8
Layer 1
10
21.727821
20
138.247428
70
0
0
VERTEX
8
Layer 1
10
19.866215
20
140.351921
70
0
0
VERTEX
8
Layer 1
10
19.252890
20
141.704821
70
0
0
VERTEX
8
Layer 1
10
19.196853
20
142.951681
70
0
0
VERTEX
8
Layer 1
10
19.698076
20
144.092525
70
0
0
VERTEX
8
Layer 1
10
20.756536
20
145.127380
70
0
0
VERTEX
8
Layer 1
10
21.727821
20
145.693852
70
0
0
VERTEX
8
Layer 1
10
21.727821
20
145.693852
70
0
0
SEQEND
8
Layer 1
0
POLYLINE
8
Layer 1
62
7
70
1
10
0.000000
20
0.000000
66
1
0
VERTEX
8
Layer 1
10
30.793228
20
145.855777
70
0
0
VERTEX
8
Layer 1
10
34.354780
20
145.531927
70
0
0
VERTEX
8
Layer 1
10
34.117147
20
144.718479
70
0
0
VERTEX
8
Layer 1
10
33.673710
20
144.123585
70
0
0
VERTEX
8
Layer 1
10
33.024444
20
143.747220
70
0
0
VERTEX
8
Layer 1
10
32.169324
20
143.589359
70
0
0
VERTEX
8
Layer 1
10
31.273425
20
143.808127
70
0
0
VERTEX
8
Layer 1
10
30.556591
20
144.231832
70
0
0
VERTEX
8
Layer 1
10
30.018798
20
144.860424
70
0
0
VERTEX
8
Layer 1
10
29.660019
20
145.693852
70
0
0
VERTEX
8
Layer 1
10
30.254107
20
145.697721
70
0
0
VERTEX
8
Layer 1
10
30.793228
20
145.855777
70
0
0
VERTEX
8
Layer 1
10
30.793228
20
145.855777
70
0
0
SEQEND
8
Layer 1
0
POLYLINE
8
Layer 1
62
7
70
1
10
0.000000
20
0.000000
66
1
0
VERTEX
8
Layer 1
10
143.463253
20
135.981010
70
0
0
VERTEX
8
Layer 1
10
144.758386
20
135.900048
70
0
0
VERTEX
8
Layer 1
10
145.122486
20
135.697675
70
0
0
VERTEX
8
Layer 1
10
145.324859
20
135.333575
70
0
0
VERTEX
8
Layer 1
10
145.602286
20
133.764528
70
0
0
VERTEX
8
Layer 1
10
145.514805
20
133.205322
70
0
0
VERTEX
8
Layer 1
10
145.276539
20
132.796324
70
0
0
VERTEX
8
Layer 1
10
144.887498
20
132.537530
70
0
0
VERTEX
8
Layer 1
10
144.347692
20
132.428938
70
0
0
VERTEX
8
Layer 1
10
142.815818
20
132.662345
70
0
0
VERTEX
8
Layer 1
10
142.316351
20
133.206006
70
0
0
VERTEX
8
Layer 1
10
142.055406
20
133.805476
70
0
0
VERTEX
8
Layer 1
10
142.032983
20
134.460708
70
0
0
VERTEX
8
Layer 1
10
142.249081
20
135.171651
70
0
0
VERTEX
8
Layer 1
10
142.816182
20
135.656003
70
0
0
VERTEX
8
Layer 1
10
143.463253
20
135.981010
70
0
0
VERTEX
8
Layer 1
10
143.463253
20
135.981010
70
0
0
SEQEND
8
Layer 1
0
POLYLINE
8
Layer 1
62
7
70
1
10
0.000000
20
0.000000
66
1
0
VERTEX
8
Layer 1
10
21.889745
20
135.495236
70
0
0
VERTEX
8
Layer 1
10
23.012735
20
135.338702
70
0
0
VERTEX
8
Layer 1
10
23.994239
20
134.766839
70
0
0
VERTEX
8
Layer 1
10
24.271257
20
134.191007
70
0
0
VERTEX
8
Layer 1
10
24.237126
20
133.552667
70
0
0
VERTEX
8
Layer 1
10
18.490383
20
124.649185
70
0
0
VERTEX
8
Layer 1
10
17.540100
20
124.565047
70
0
0
VERTEX
8
Layer 1
10
16.709475
20
125.053997
70
0
0
VERTEX
8
Layer 1
10
15.252681
20
126.591753
70
0
0
VERTEX
8
Layer 1
10
18.424469
20
131.155611
70
0
0
VERTEX
8
Layer 1
10
21.889745
20
135.495236
70
0
0
VERTEX
8
Layer 1
10
21.889745
20
135.495236
70
0
0
SEQEND
8
Layer 1
0
POLYLINE
8
Layer 1
62
7
70
1
10
0.000000
20
0.000000
66
1
0
VERTEX
8
Layer 1
10
26.260656
20
132.419458
70
0
0
VERTEX
8
Layer 1
10
26.765547
20
131.899916
70
0
0
VERTEX
8
Layer 1
10
27.070016
20
131.205551
70
0
0
VERTEX
8
Layer 1
10
27.545480
20
129.799669
70
0
0
VERTEX
8
Layer 1
10
27.798347
20
128.373223
70
0
0
VERTEX
8
Layer 1
10
27.828666
20
126.926190
70
0
0
VERTEX
8
Layer 1
10
27.636488
20
125.458544
70
0
0
VERTEX
8
Layer 1
10
27.017715
20
124.273481
70
0
0
VERTEX
8
Layer 1
10
26.177412
20
123.352364
70
0
0
VERTEX
8
Layer 1
10
25.115603
20
122.695219
70
0
0
VERTEX
8
Layer 1
10
23.832314
20
122.302069
70
0
0
VERTEX
8
Layer 1
10
22.716757
20
122.099845
70
0
0
VERTEX
8
Layer 1
10
21.616431
20
122.086434
70
0
0
VERTEX
8
Layer 1
10
20.531384
20
122.261736
70
0
0
VERTEX
8
Layer 1
10
19.461667
20
122.625654
70
0
0
VERTEX
8
Layer 1
10
19.317800
20
122.894735
70
0
0
VERTEX
8
Layer 1
10
19.380705
20
123.192391
70
0
0
VERTEX
8
Layer 1
10
24.722636
20
130.800739
70
0
0
VERTEX
8
Layer 1
10
26.260656
20
132.419458
70
0
0
VERTEX
8
Layer 1
10
26.260656
20
132.419458
70
0
0
SEQEND
8
Layer 1
0
POLYLINE
8
Layer 1
62
7
70
1
10
0.000000
20
0.000000
66
1
0
VERTEX
8
Layer 1
10
155.604437
20
129.829455
70
0
0
VERTEX
8
Layer 1
10
156.960363
20
129.504613
70
0
0
VERTEX
8
Layer 1
10
157.803552
20
128.829728
70
0
0
VERTEX
8
Layer 1
10
158.134029
20
127.804800
70
0
0
VERTEX
8
Layer 1
10
157.951818
20
126.429828
70
0
0
VERTEX
8
Layer 1
10
157.394503
20
125.840474
70
0
0
VERTEX
8
Layer 1
10
156.763542
20
125.522606
70
0
0
VERTEX
8
Layer 1
10
156.058912
20
125.476250
70
0
0
VERTEX
8
Layer 1
10
155.280588
20
125.701431
70
0
0
VERTEX
8
Layer 1
10
154.530197
20
126.810406
70
0
0
VERTEX
8
Layer 1
10
154.334042
20
127.868035
70
0
0
VERTEX
8
Layer 1
10
154.692122
20
128.874368
70
0
0
VERTEX
8
Layer 1
10
155.604437
20
129.829455
70
0
0
VERTEX
8
Layer 1
10
155.604437
20
129.829455
70
0
0
SEQEND
8
Layer 1
0
POLYLINE
8
Layer 1
62
7
70
1
10
0.000000
20
0.000000
66
1
0
VERTEX
8
Layer 1
10
157.870855
20
114.936343
70
0
0
VERTEX
8
Layer 1
10
159.262347
20
114.941043
70
0
0
VERTEX
8
Layer 1
10
159.782215
20
114.770246
70
0
0
VERTEX
8
Layer 1
10
160.184832
20
114.484005
70
0
0
VERTEX
8
Layer 1
10
160.470197
20
114.082311
70
0
0
VERTEX
8
Layer 1
10
160.638311
20
113.565154
70
0
0
VERTEX
8
Layer 1
10
160.622783
20
112.184415
70
0
0
VERTEX
8
Layer 1
10
160.138249
20
111.648337
70
0
0
VERTEX
8
Layer 1
10
159.572058
20
111.321213
70
0
0
VERTEX
8
Layer 1
10
158.924210
20
111.203043
70
0
0
VERTEX
8
Layer 1
10
158.194705
20
111.293829
70
0
0
VERTEX
8
Layer 1
10
157.453583
20
111.754108
70
0
0
VERTEX
8
Layer 1
10
156.977226
20
112.352723
70
0
0
VERTEX
8
Layer 1
10
156.765585
20
113.089698
70
0
0
VERTEX
8
Layer 1
10
156.818609
20
113.965059
70
0
0
VERTEX
8
Layer 1
10
157.870855
20
114.936343
70
0
0
VERTEX
8
Layer 1
10
157.870855
20
114.936343
70
0
0
SEQEND
8
Layer 1
0
POLYLINE
8
Layer 1
62
7
70
1
10
0.000000
20
0.000000
66
1
0
VERTEX
8
Layer 1
10
7.482407
20
113.965059
70
0
0
VERTEX
8
Layer 1
10
8.179509
20
113.692749
70
0
0
VERTEX
8
Layer 1
10
8.735671
20
113.278234
70
0
0
VERTEX
8
Layer 1
10
9.150843
20
112.721489
70
0
0
VERTEX
8
Layer 1
10
9.424976
20
112.022490
70
0
0
VERTEX
8
Layer 1
10
9.263051
20
111.455753
70
0
0
VERTEX
8
Layer 1
10
7.959087
20
111.522428
70
0
0
VERTEX
8
Layer 1
10
6.753746
20
112.022490
70
0
0
VERTEX
8
Layer 1
10
6.660393
20
112.622965
70
0
0
VERTEX
8
Layer 1
10
6.750670
20
113.146869
70
0
0
VERTEX
8
Layer 1
10
7.024650
20
113.594225
70
0
0
VERTEX
8
Layer 1
10
7.482407
20
113.965059
70
0
0
VERTEX
8
Layer 1
10
7.482407
20
113.965059
70
0
0
SEQEND
8
Layer 1
0
POLYLINE
8
Layer 1
62
7
70
1
10
0.000000
20
0.000000
66
1
0
VERTEX
8
Layer 1
10
21.889745
20
113.965059
70
0
0
VERTEX
8
Layer 1
10
22.495839
20
113.894415
70
0
0
VERTEX
8
Layer 1
10
22.941992
20
113.479284
70
0
0
VERTEX
8
Layer 1
10
23.011743
20
112.743347
70
0
0
VERTEX
8
Layer 1
10
22.861030
20
112.022490
70
0
0
VERTEX
8
Layer 1
10
22.375520
20
111.779603
70
0
0
VERTEX
8
Layer 1
10
20.594612
20
111.698641
70
0
0
VERTEX
8
Layer 1
10
20.649525
20
112.420820
70
0
0
VERTEX
8
Layer 1
10
20.883702
20
113.039216
70
0
0
VERTEX
8
Layer 1
10
21.297117
20
113.553930
70
0
0
VERTEX
8
Layer 1
10
21.889745
20
113.965059
70
0
0
VERTEX
8
Layer 1
10
21.889745
20
113.965059
70
0
0
SEQEND
8
Layer 1
0
POLYLINE
8
Layer 1
62
7
70
1
10
0.000000
20
0.000000
66
1
0
VERTEX
8
Layer 1
10
148.319674
20
112.831850
70
0
0
VERTEX
8
Layer 1
10
149.466079
20
112.417347
70
0
0
VERTEX
8
Layer 1
10
150.343204
20
111.536716
70
0
0
VERTEX
8
Layer 1
10
150.674499
20
110.859301
70
0
0
VERTEX
8
Layer 1
10
150.744478
20
110.215322
70
0
0
VERTEX
8
Layer 1
10
150.553163
20
109.604780
70
0
0
VERTEX
8
Layer 1
10
150.100582
20
109.027675
70
0
0
VERTEX
8
Layer 1
10
148.319674
20
108.299014
70
0
0
VERTEX
8
Layer 1
10
147.651482
20
108.734625
70
0
0
VERTEX
8
Layer 1
10
147.105006
20
109.271092
70
0
0
VERTEX
8
Layer 1
10
146.680222
20
109.908364
70
0
0
VERTEX
8
Layer 1
10
146.377105
20
110.646394
70
0
0
VERTEX
8
Layer 1
10
147.156203
20
111.911068
70
0
0
VERTEX
8
Layer 1
10
148.319674
20
112.831850
70
0
0
VERTEX
8
Layer 1
10
148.319674
20
112.831850
70
0
0
SEQEND
8
Layer 1
0
POLYLINE
8
Layer 1
62
7
70
1
10
0.000000
20
0.000000
66
1
0
VERTEX
8
Layer 1
10
7.158558
20
110.079922
70
0
0
VERTEX
8
Layer 1
10
9.586636
20
110.079922
70
0
0
VERTEX
8
Layer 1
10
9.586470
20
104.393074
70
0
0
VERTEX
8
Layer 1
10
9.424976
20
98.748096
70
0
0
VERTEX
8
Layer 1
10
9.424976
20
109.917997
70
0
0
VERTEX
8
Layer 1
10
8.267855
20
109.919684
70
0
0
VERTEX
8
Layer 1
10
7.158558
20
110.079922
70
0
0
VERTEX
8
Layer 1
10
7.158558
20
110.079922
70
0
0
SEQEND
8
Layer 1
0
POLYLINE
8
Layer 1
62
7
70
1
10
0.000000
20
0.000000
66
1
0
VERTEX
8
Layer 1
10
11.205619
20
109.917997
70
0
0
VERTEX
8
Layer 1
10
14.907499
20
110.079426
70
0
0
VERTEX
8
Layer 1
10
18.652043
20
110.079922
70
0
0
VERTEX
8
Layer 1
10
18.651878
20
104.312112
70
0
0
VERTEX
8
Layer 1
10
18.490383
20
98.586172
70
0
0
VERTEX
8
Layer 1
10
18.490383
20
109.917997
70
0
0
VERTEX
8
Layer 1
10
11.205619
20
109.917997
70
0
0
VERTEX
8
Layer 1
10
11.205619
20
109.917997
70
0
0
SEQEND
8
Layer 1
0
POLYLINE
8
Layer 1
62
7
70
1
10
0.000000
20
0.000000
66
1
0
VERTEX
8
Layer 1
10
11.205619
20
109.917997
70
0
0
VERTEX
8
Layer 1
10
18.490383
20
109.917997
70
0
0
VERTEX
8
Layer 1
10
18.490383
20
98.586172
70
0
0
VERTEX
8
Layer 1
10
11.205619
20
98.586172
70
0
0
VERTEX
8
Layer 1
10
11.205619
20
109.917997
70
0
0
VERTEX
8
Layer 1
10
11.205619
20
109.917997
70
0
0
SEQEND
8
Layer 1
0
POLYLINE
8
Layer 1
62
7
70
1
10
0.000000
20
0.000000
66
1
0
VERTEX
8
Layer 1
10
20.271027
20
109.917997
70
0
0
VERTEX
8
Layer 1
10
20.272416
20
104.323919
70
0
0
VERTEX
8
Layer 1
10
20.432951
20
98.748096
70
0
0
VERTEX
8
Layer 1
10
20.190263
20
101.497643
70
0
0
VERTEX
8
Layer 1
10
20.109102
20
104.332914
70
0
0
VERTEX
8
Layer 1
10
20.271027
20
109.917997
70
0
0
VERTEX
8
Layer 1
10
20.271027
20
109.917997
70
0
0
SEQEND
8
Layer 1
0
POLYLINE
8
Layer 1
62
7
70
1
10
0.000000
20
0.000000
66
1
0
VERTEX
8
Layer 1
10
159.327649
20
101.985799
70
0
0
VERTEX
8
Layer 1
10
160.547546
20
101.848029
70
0
0
VERTEX
8
Layer 1
10
161.345392
20
101.343424
70
0
0
VERTEX
8
Layer 1
10
161.721212
20
100.471958
70
0
0
VERTEX
8
Layer 1
10
161.675030
20
99.233606
70
0
0
VERTEX
8
Layer 1
10
161.062094
20
98.524148
70
0
0
VERTEX
8
Layer 1
10
160.358696
20
98.166245
70
0
0
VERTEX
8
Layer 1
10
159.564761
20
98.159924
70
0
0
VERTEX
8
Layer 1
10
158.680215
20
98.505209
70
0
0
VERTEX
8
Layer 1
10
158.019675
20
99.532519
70
0
0
VERTEX
8
Layer 1
10
157.907368
20
100.455054
70
0
0
VERTEX
8
Layer 1
10
158.343343
20
101.272814
70
0
0
VERTEX
8
Layer 1
10
159.327649
20
101.985799
70
0
0
VERTEX
8
Layer 1
10
159.327649
20
101.985799
70
0
0
SEQEND
8
Layer 1
0
POLYLINE
8
Layer 1
62
7
70
1
10
0.000000
20
0.000000
66
1
0
VERTEX
8
Layer 1
10
8.291767
20
96.805528
70
0
0
VERTEX
8
Layer 1
10
8.908803
20
96.788715
70
0
0
VERTEX
8
Layer 1
10
9.303367
20
96.567238
70
0
0
VERTEX
8
Layer 1
10
9.475432
20
96.141123
70
0
0
VERTEX
8
Layer 1
10
9.424976
20
95.510394
70
0
0
VERTEX
8
Layer 1
10
9.339854
20
94.583651
70
0
0
VERTEX
8
Layer 1
10
8.987686
20
94.018411
70
0
0
VERTEX
8
Layer 1
10
8.368521
20
93.814723
70
0
0
VERTEX
8
Layer 1
10
7.482407
20
93.972638
70
0
0
VERTEX
8
Layer 1
10
7.100366
20
94.336923
70
0
0
VERTEX
8
Layer 1
10
6.905550
20
94.741615
70
0
0
VERTEX
8
Layer 1
10
6.897960
20
95.186739
70
0
0
VERTEX
8
Layer 1
10
7.077595
20
95.672319
70
0
0
VERTEX
8
Layer 1
10
8.291767
20
96.805528
70
0
0
VERTEX
8
Layer 1
10
8.291767
20
96.805528
70
0
0
SEQEND
8
Layer 1
0
POLYLINE
8
Layer 1
62
7
70
1
10
0.000000
20
0.000000
66
1
0
VERTEX
8
Layer 1
10
17.680759
20
96.805528
70
0
0
VERTEX
8
Layer 1
10
15.252681
20
96.805528
70
0
0
VERTEX
8
Layer 1
10
15.252681
20
87.254346
70
0
0
VERTEX
8
Layer 1
10
15.091153
20
92.089865
70
0
0
VERTEX
8
Layer 1
10
15.090756
20
96.967453
70
0
0
VERTEX
8
Layer 1
10
16.409173
20
96.965865
70
0
0
VERTEX
8
Layer 1
10
17.680759
20
96.805528
70
0
0
VERTEX
8
Layer 1
10
17.680759
20
96.805528
70
0
0
SEQEND
8
Layer 1
0
POLYLINE
8
Layer 1
62
7
70
1
10
0.000000
20
0.000000
66
1
0
VERTEX
8
Layer 1
10
20.432951
20
96.805528
70
0
0
VERTEX
8
Layer 1
10
21.546623
20
96.694548
70
0
0
VERTEX
8
Layer 1
10
22.187666
20
96.266341
70
0
0
VERTEX
8
Layer 1
10
22.356032
20
95.520882
70
0
0
VERTEX
8
Layer 1
10
22.051670
20
94.458148
70
0
0
VERTEX
8
Layer 1
10
21.418391
20
94.217245
70
0
0
VERTEX
8
Layer 1
10
20.837499
20
94.539110
70
0
0
VERTEX
8
Layer 1
10
20.362572
20
95.635509
70
0
0
VERTEX
8
Layer 1
10
20.432951
20
96.805528
70
0
0
VERTEX
8
Layer 1
10
20.432951
20
96.805528
70
0
0
SEQEND
8
Layer 1
0
POLYLINE
8
Layer 1
62
7
70
1
10
0.000000
20
0.000000
66
1
0
VERTEX
8
Layer 1
10
156.737646
20
89.520764
70
0
0
VERTEX
8
Layer 1
10
157.636406
20
89.249794
70
0
0
VERTEX
8
Layer 1
10
158.367709
20
88.781751
70
0
0
VERTEX
8
Layer 1
10
158.931482
20
88.116610
70
0
0
VERTEX
8
Layer 1
10
159.327649
20
87.254346
70
0
0
VERTEX
8
Layer 1
10
158.896991
20
86.307404
70
0
0
VERTEX
8
Layer 1
10
158.267796
20
85.627558
70
0
0
VERTEX
8
Layer 1
10
157.440065
20
85.214808
70
0
0
VERTEX
8
Layer 1
10
156.413797
20
85.069155
70
0
0
VERTEX
8
Layer 1
10
155.432888
20
86.048145
70
0
0
VERTEX
8
Layer 1
10
154.957003
20
87.335309
70
0
0
VERTEX
8
Layer 1
10
155.025232
20
87.818470
70
0
0
VERTEX
8
Layer 1
10
155.280588
20
88.225631
70
0
0
VERTEX
8
Layer 1
10
156.737646
20
89.520764
70
0
0
VERTEX
8
Layer 1
10
156.737646
20
89.520764
70
0
0
SEQEND
8
Layer 1
0
POLYLINE
8
Layer 1
62
7
70
1
10
0.000000
20
0.000000
66
1
0
VERTEX
8
Layer 1
10
13.795622
20
82.074340
70
0
0
VERTEX
8
Layer 1
10
13.795622
20
78.188939
70
0
0
VERTEX
8
Layer 1
10
13.310112
20
78.188939
70
0
0
VERTEX
8
Layer 1
10
12.219216
20
78.250975
70
0
0
VERTEX
8
Layer 1
10
11.350392
20
78.445613
70
0
0
VERTEX
8
Layer 1
10
10.703638
20
78.772851
70
0
0
VERTEX
8
Layer 1
10
10.278950
20
79.232686
70
0
0
VERTEX
8
Layer 1
10
10.076327
20
79.825114
70
0
0
VERTEX
8
Layer 1
10
10.095764
20
80.550131
70
0
0
VERTEX
8
Layer 1
10
10.337258
20
81.407736
70
0
0
VERTEX
8
Layer 1
10
10.800807
20
82.397925
70
0
0
VERTEX
8
Layer 1
10
13.552735
20
84.988193
70
0
0
VERTEX
8
Layer 1
10
13.778755
20
83.542478
70
0
0
VERTEX
8
Layer 1
10
13.795622
20
82.074340
70
0
0
VERTEX
8
Layer 1
10
13.795622
20
82.074340
70
0
0
SEQEND
8
Layer 1
0
POLYLINE
8
Layer 1
62
7
70
1
10
0.000000
20
0.000000
66
1
0
VERTEX
8
Layer 1
10
13.795622
20
82.074340
70
0
0
VERTEX
8
Layer 1
10
13.956753
20
80.073035
70
0
0
VERTEX
8
Layer 1
10
13.957547
20
78.027279
70
0
0
VERTEX
8
Layer 1
10
13.601584
20
78.035183
70
0
0
VERTEX
8
Layer 1
10
13.310112
20
78.188939
70
0
0
VERTEX
8
Layer 1
10
13.795622
20
78.188939
70
0
0
VERTEX
8
Layer 1
10
13.795622
20
82.074340
70
0
0
VERTEX
8
Layer 1
10
13.795622
20
82.074340
70
0
0
SEQEND
8
Layer 1
0
POLYLINE
8
Layer 1
62
7
70
1
10
0.000000
20
0.000000
66
1
0
VERTEX
8
Layer 1
10
156.575721
20
76.408295
70
0
0
VERTEX
8
Layer 1
10
157.946828
20
76.272763
70
0
0
VERTEX
8
Layer 1
10
158.426188
20
76.056764
70
0
0
VERTEX
8
Layer 1
10
158.768089
20
75.741943
70
0
0
VERTEX
8
Layer 1
10
158.972536
20
75.328301
70
0
0
VERTEX
8
Layer 1
10
159.039531
20
74.815836
70
0
0
VERTEX
8
Layer 1
10
158.761177
20
73.494443
70
0
0
VERTEX
8
Layer 1
10
158.227377
20
73.019983
70
0
0
VERTEX
8
Layer 1
10
157.631242
20
72.740414
70
0
0
VERTEX
8
Layer 1
10
156.972749
20
72.655760
70
0
0
VERTEX
8
Layer 1
10
156.251872
20
72.766046
70
0
0
VERTEX
8
Layer 1
10
155.253832
20
73.786356
70
0
0
VERTEX
8
Layer 1
10
155.024562
20
74.269082
70
0
0
VERTEX
8
Layer 1
10
154.975127
20
74.733518
70
0
0
VERTEX
8
Layer 1
10
155.105525
20
75.179660
70
0
0
VERTEX
8
Layer 1
10
155.415757
20
75.607506
70
0
0
VERTEX
8
Layer 1
10
156.575721
20
76.408295
70
0
0
VERTEX
8
Layer 1
10
156.575721
20
76.408295
70
0
0
SEQEND
8
Layer 1
0
POLYLINE
8
Layer 1
62
7
70
1
10
0.000000
20
0.000000
66
1
0
VERTEX
8
Layer 1
10
20.109102
20
75.922786
70
0
0
VERTEX
8
Layer 1
10
21.177190
20
75.834278
70
0
0
VERTEX
8
Layer 1
10
22.099824
20
75.494525
70
0
0
VERTEX
8
Layer 1
10
22.877004
20
74.903500
70
0
0
VERTEX
8
Layer 1
10
23.508729
20
74.061180
70
0
0
VERTEX
8
Layer 1
10
23.194445
20
73.478076
70
0
0
VERTEX
8
Layer 1
10
22.765912
20
73.040848
70
0
0
VERTEX
8
Layer 1
10
22.223079
20
72.749522
70
0
0
VERTEX
8
Layer 1
10
21.565896
20
72.604121
70
0
0
VERTEX
8
Layer 1
10
20.337371
20
72.578721
70
0
0
VERTEX
8
Layer 1
10
19.137818
20
72.847008
70
0
0
VERTEX
8
Layer 1
10
18.776314
20
73.517875
70
0
0
VERTEX
8
Layer 1
10
18.655813
20
74.186658
70
0
0
VERTEX
8
Layer 1
10
18.776314
20
74.853358
70
0
0
VERTEX
8
Layer 1
10
19.137818
20
75.517974
70
0
0
VERTEX
8
Layer 1
10
20.109102
20
75.922786
70
0
0
VERTEX
8
Layer 1
10
20.109102
20
75.922786
70
0
0
SEQEND
8
Layer 1
0
POLYLINE
8
Layer 1
62
7
70
1
10
0.000000
20
0.000000
66
1
0
VERTEX
8
Layer 1
10
138.606832
20
69.609306
70
0
0
VERTEX
8
Layer 1
10
139.755477
20
69.401443
70
0
0
VERTEX
8
Layer 1
10
140.556610
20
68.873501
70
0
0
VERTEX
8
Layer 1
10
141.010180
20
68.025479
70
0
0
VERTEX
8
Layer 1
10
141.116137
20
66.857378
70
0
0
VERTEX
8
Layer 1
10
140.549400
20
66.290641
70
0
0
VERTEX
8
Layer 1
10
139.268488
20
66.060454
70
0
0
VERTEX
8
Layer 1
10
137.959397
20
66.128717
70
0
0
VERTEX
8
Layer 1
10
137.587774
20
66.651987
70
0
0
VERTEX
8
Layer 1
10
137.369443
20
67.217674
70
0
0
VERTEX
8
Layer 1
10
137.304405
20
67.825727
70
0
0
VERTEX
8
Layer 1
10
137.392660
20
68.476097
70
0
0
VERTEX
8
Layer 1
10
137.910747
20
69.156605
70
0
0
VERTEX
8
Layer 1
10
138.606832
20
69.609306
70
0
0
VERTEX
8
Layer 1
10
138.606832
20
69.609306
70
0
0
SEQEND
8
Layer 1
0
POLYLINE
8
Layer 1
62
7
70
1
10
0.000000
20
0.000000
66
1
0
VERTEX
8
Layer 1
10
149.290958
20
65.076470
70
0
0
VERTEX
8
Layer 1
10
150.619053
20
64.871625
70
0
0
VERTEX
8
Layer 1
10
151.452965
20
64.290791
70
0
0
VERTEX
8
Layer 1
10
151.792718
20
63.333918
70
0
0
VERTEX
8
Layer 1
10
151.638338
20
62.000957
70
0
0
VERTEX
8
Layer 1
10
150.914786
20
61.459819
70
0
0
VERTEX
8
Layer 1
10
150.147479
20
61.211971
70
0
0
VERTEX
8
Layer 1
10
149.336416
20
61.257413
70
0
0
VERTEX
8
Layer 1
10
148.481598
20
61.596145
70
0
0
VERTEX
8
Layer 1
10
147.934652
20
62.661848
70
0
0
VERTEX
8
Layer 1
10
147.887246
20
63.597153
70
0
0
VERTEX
8
Layer 1
10
148.339356
20
64.402036
70
0
0
VERTEX
8
Layer 1
10
149.290958
20
65.076470
70
0
0
VERTEX
8
Layer 1
10
149.290958
20
65.076470
70
0
0
SEQEND
8
Layer 1
0
POLYLINE
8
Layer 1
62
7
70
1
10
0.000000
20
0.000000
66
1
0
VERTEX
8
Layer 1
10
132.779126
20
50.183358
70
0
0
VERTEX
8
Layer 1
10
134.519223
20
49.951021
70
0
0
VERTEX
8
Layer 1
10
136.097791
20
49.212073
70
0
0
VERTEX
8
Layer 1
10
136.614567
20
47.675809
70
0
0
VERTEX
8
Layer 1
10
136.607178
20
47.089410
70
0
0
VERTEX
8
Layer 1
10
136.422600
20
46.624154
70
0
0
VERTEX
8
Layer 1
10
136.060830
20
46.280031
70
0
0
VERTEX
8
Layer 1
10
135.521864
20
46.057033
70
0
0
VERTEX
8
Layer 1
10
133.912335
20
45.974371
70
0
0
VERTEX
8
Layer 1
10
132.759113
20
45.964057
70
0
0
VERTEX
8
Layer 1
10
132.010480
20
46.338338
70
0
0
VERTEX
8
Layer 1
10
131.666410
20
47.097241
70
0
0
VERTEX
8
Layer 1
10
131.726880
20
48.240789
70
0
0
VERTEX
8
Layer 1
10
132.160234
20
49.269819
70
0
0
VERTEX
8
Layer 1
10
132.779126
20
50.183358
70
0
0
VERTEX
8
Layer 1
10
132.779126
20
50.183358
70
0
0
SEQEND
8
Layer 1
0
POLYLINE
8
Layer 1
62
7
70
1
10
0.000000
20
0.000000
66
1
0
VERTEX
8
Layer 1
10
54.590087
20
33.833451
70
0
0
VERTEX
8
Layer 1
10
55.877400
20
33.810614
70
0
0
VERTEX
8
Layer 1
10
56.751664
20
33.371357
70
0
0
VERTEX
8
Layer 1
10
57.212882
20
32.515580
70
0
0
VERTEX
8
Layer 1
10
57.261053
20
31.243184
70
0
0
VERTEX
8
Layer 1
10
56.780835
20
30.555937
70
0
0
VERTEX
8
Layer 1
10
56.175601
20
30.124527
70
0
0
VERTEX
8
Layer 1
10
55.445352
20
29.948901
70
0
0
VERTEX
8
Layer 1
10
54.590087
20
30.029012
70
0
0
VERTEX
8
Layer 1
10
53.982903
20
30.474272
70
0
0
VERTEX
8
Layer 1
10
53.537841
20
31.081259
70
0
0
VERTEX
8
Layer 1
10
53.457672
20
32.057603
70
0
0
VERTEX
8
Layer 1
10
53.618803
20
33.023827
70
0
0
VERTEX
8
Layer 1
10
54.590087
20
33.833451
70
0
0
VERTEX
8
Layer 1
10
54.590087
20
33.833451
70
0
0
SEQEND
8
Layer 1
0
POLYLINE
8
Layer 1
62
7
70
1
10
0.000000
20
0.000000
66
1
0
VERTEX
8
Layer 1
10
68.511916
20
32.376393
70
0
0
VERTEX
8
Layer 1
10
69.445468
20
32.312740
70
0
0
VERTEX
8
Layer 1
10
70.134372
20
31.967777
70
0
0
VERTEX
8
Layer 1
10
70.578652
20
31.341480
70
0
0
VERTEX
8
Layer 1
10
70.778334
20
30.433824
70
0
0
VERTEX
8
Layer 1
10
70.601386
20
29.599094
70
0
0
VERTEX
8
Layer 1
10
70.205115
20
28.970118
70
0
0
VERTEX
8
Layer 1
10
69.589571
20
28.546872
70
0
0
VERTEX
8
Layer 1
10
68.754803
20
28.329331
70
0
0
VERTEX
8
Layer 1
10
67.826567
20
28.769366
70
0
0
VERTEX
8
Layer 1
10
67.247308
20
29.401686
70
0
0
VERTEX
8
Layer 1
10
67.017051
20
30.226292
70
0
0
VERTEX
8
Layer 1
10
67.135820
20
31.243184
70
0
0
VERTEX
8
Layer 1
10
67.753819
20
31.913670
70
0
0
VERTEX
8
Layer 1
10
68.511916
20
32.376393
70
0
0
VERTEX
8
Layer 1
10
68.511916
20
32.376393
70
0
0
SEQEND
8
Layer 1
 0 
ENDSEC
 0 
EOF