999
"DXF R12 Output" (www.mydxf.blogspot.com)
 0 
SECTION
 2 
HEADER
 9 
$ACADVER
 1 
AC1009
 9 
$EXTMIN
 10 
 0 
 20 
 0 
 9 
$EXTMAX
 10 
 8.5 
 20 
 11 
 0 
ENDSEC
 0 
SECTION
 2 
ENTITIES
0
POLYLINE
8
Layer 1
62
7
70
0
10
0.000000
20
0.000000
66
1
0
VERTEX
8
Layer 1
10
134.275873
20
228.160005
70
0
0
VERTEX
8
Layer 1
10
131.946819
20
227.640004
70
0
0
VERTEX
8
Layer 1
10
129.533652
20
226.820983
70
0
0
VERTEX
8
Layer 1
10
127.231065
20
225.779762
70
0
0
VERTEX
8
Layer 1
10
125.233748
20
224.593161
70
0
0
VERTEX
8
Layer 1
10
122.257454
20
222.891628
70
0
0
VERTEX
8
Layer 1
10
120.557773
20
222.075125
70
0
0
VERTEX
8
Layer 1
10
118.950167
20
223.707602
70
0
0
VERTEX
8
Layer 1
10
117.788416
20
224.773578
70
0
0
VERTEX
8
Layer 1
10
116.783034
20
225.383967
70
0
0
VERTEX
8
Layer 1
10
115.760486
20
225.610330
70
0
0
VERTEX
8
Layer 1
10
114.547241
20
225.524229
70
0
0
VERTEX
8
Layer 1
10
113.513052
20
225.153647
70
0
0
VERTEX
8
Layer 1
10
112.457829
20
224.446318
70
0
0
VERTEX
8
Layer 1
10
111.389443
20
223.531919
70
0
0
VERTEX
8
Layer 1
10
111.389443
20
221.441978
70
0
0
VERTEX
8
Layer 1
10
111.292110
20
219.630114
70
0
0
VERTEX
8
Layer 1
10
111.112511
20
219.234190
70
0
0
VERTEX
8
Layer 1
10
110.794131
20
218.963629
70
0
0
VERTEX
8
Layer 1
10
106.143126
20
216.998340
70
0
0
VERTEX
8
Layer 1
10
98.299464
20
214.124406
70
0
0
VERTEX
8
Layer 1
10
94.544336
20
212.938247
70
0
0
VERTEX
8
Layer 1
10
93.581506
20
212.804488
70
0
0
VERTEX
8
Layer 1
10
92.743221
20
212.867107
70
0
0
VERTEX
8
Layer 1
10
89.641779
20
213.093591
70
0
0
VERTEX
8
Layer 1
10
87.991541
20
212.986368
70
0
0
VERTEX
8
Layer 1
10
87.495419
20
212.718321
70
0
0
VERTEX
8
Layer 1
10
86.934830
20
212.215175
70
0
0
VERTEX
8
Layer 1
10
86.260156
20
211.450580
70
0
0
VERTEX
8
Layer 1
10
85.809989
20
210.571982
70
0
0
VERTEX
8
Layer 1
10
85.491832
20
209.323299
70
0
0
VERTEX
8
Layer 1
10
85.213188
20
207.448448
70
0
0
VERTEX
8
Layer 1
10
84.851900
20
205.539349
70
0
0
VERTEX
8
Layer 1
10
84.382662
20
204.086656
70
0
0
VERTEX
8
Layer 1
10
83.732462
20
203.043856
70
0
0
VERTEX
8
Layer 1
10
82.918427
20
202.170844
70
0
0
VERTEX
8
Layer 1
10
82.058305
20
201.571129
70
0
0
VERTEX
8
Layer 1
10
81.269843
20
201.348222
70
0
0
VERTEX
8
Layer 1
10
80.215253
20
201.131115
70
0
0
VERTEX
8
Layer 1
10
79.007493
20
200.571605
70
0
0
VERTEX
8
Layer 1
10
77.888584
20
199.807406
70
0
0
VERTEX
8
Layer 1
10
77.100545
20
198.976235
70
0
0
VERTEX
8
Layer 1
10
76.588808
20
197.880167
70
0
0
VERTEX
8
Layer 1
10
76.286423
20
196.615626
70
0
0
VERTEX
8
Layer 1
10
76.267703
20
195.327967
70
0
0
VERTEX
8
Layer 1
10
76.476997
20
194.909016
70
0
0
VERTEX
8
Layer 1
10
76.889143
20
194.433610
70
0
0
VERTEX
8
Layer 1
10
78.080209
20
193.417355
70
0
0
VERTEX
8
Layer 1
10
79.211818
20
193.005391
70
0
0
VERTEX
8
Layer 1
10
80.392292
20
193.186953
70
0
0
VERTEX
8
Layer 1
10
81.729953
20
193.951275
70
0
0
VERTEX
8
Layer 1
10
82.756800
20
194.987084
70
0
0
VERTEX
8
Layer 1
10
83.695540
20
196.675157
70
0
0
VERTEX
8
Layer 1
10
84.881931
20
198.804256
70
0
0
VERTEX
8
Layer 1
10
85.109205
20
198.817060
70
0
0
VERTEX
8
Layer 1
10
85.417480
20
198.658984
70
0
0
VERTEX
8
Layer 1
10
86.159800
20
197.964536
70
0
0
VERTEX
8
Layer 1
10
86.874439
20
196.989597
70
0
0
VERTEX
8
Layer 1
10
87.326942
20
196.002852
70
0
0
VERTEX
8
Layer 1
10
87.453178
20
195.243628
70
0
0
VERTEX
8
Layer 1
10
87.425656
20
194.494212
70
0
0
VERTEX
8
Layer 1
10
86.930597
20
193.062243
70
0
0
VERTEX
8
Layer 1
10
85.884278
20
191.781831
70
0
0
VERTEX
8
Layer 1
10
84.329217
20
190.727860
70
0
0
VERTEX
8
Layer 1
10
83.534327
20
190.408128
70
0
0
VERTEX
8
Layer 1
10
82.148590
20
190.159139
70
0
0
VERTEX
8
Layer 1
10
74.463710
20
189.474531
70
0
0
VERTEX
8
Layer 1
10
71.978085
20
189.166721
70
0
0
VERTEX
8
Layer 1
10
70.476709
20
188.697980
70
0
0
VERTEX
8
Layer 1
10
69.573985
20
188.101729
70
0
0
VERTEX
8
Layer 1
10
68.652806
20
187.257557
70
0
0
VERTEX
8
Layer 1
10
67.806438
20
186.262522
70
0
0
VERTEX
8
Layer 1
10
67.128147
20
185.213686
70
0
0
VERTEX
8
Layer 1
10
66.655072
20
184.337652
70
0
0
VERTEX
8
Layer 1
10
62.414865
20
184.523918
70
0
0
VERTEX
8
Layer 1
10
58.624251
20
184.600283
70
0
0
VERTEX
8
Layer 1
10
57.753946
20
184.453857
70
0
0
VERTEX
8
Layer 1
10
57.006524
20
184.145035
70
0
0
VERTEX
8
Layer 1
10
55.811688
20
183.354325
70
0
0
VERTEX
8
Layer 1
10
54.648527
20
182.232993
70
0
0
VERTEX
8
Layer 1
10
53.701614
20
180.987986
70
0
0
VERTEX
8
Layer 1
10
53.155518
20
179.826247
70
0
0
VERTEX
8
Layer 1
10
52.989030
20
178.625702
70
0
0
VERTEX
8
Layer 1
10
53.006294
20
177.283869
70
0
0
VERTEX
8
Layer 1
10
53.147238
20
176.446658
70
0
0
VERTEX
8
Layer 1
10
53.447254
20
175.634624
70
0
0
VERTEX
8
Layer 1
10
54.916318
20
173.260884
70
0
0
VERTEX
8
Layer 1
10
56.678706
20
170.680406
70
0
0
VERTEX
8
Layer 1
10
56.075456
20
169.676314
70
0
0
VERTEX
8
Layer 1
10
53.097343
20
165.193484
70
0
0
VERTEX
8
Layer 1
10
49.777323
20
160.647155
70
0
0
VERTEX
8
Layer 1
10
48.560964
20
159.229940
70
0
0
VERTEX
8
Layer 1
10
47.516825
20
158.320279
70
0
0
VERTEX
8
Layer 1
10
46.523832
20
157.835274
70
0
0
VERTEX
8
Layer 1
10
45.460916
20
157.692027
70
0
0
VERTEX
8
Layer 1
10
44.302613
20
157.588596
70
0
0
VERTEX
8
Layer 1
10
43.224925
20
157.297765
70
0
0
VERTEX
8
Layer 1
10
42.306582
20
156.848731
70
0
0
VERTEX
8
Layer 1
10
41.626314
20
156.270687
70
0
0
VERTEX
8
Layer 1
10
40.726062
20
155.009197
70
0
0
VERTEX
8
Layer 1
10
40.172232
20
153.553883
70
0
0
VERTEX
8
Layer 1
10
39.855634
20
151.459303
70
0
0
VERTEX
8
Layer 1
10
39.667077
20
148.280016
70
0
0
VERTEX
8
Layer 1
10
39.471525
20
144.694172
70
0
0
VERTEX
8
Layer 1
10
39.164303
20
142.539755
70
0
0
VERTEX
8
Layer 1
10
38.605562
20
141.262630
70
0
0
VERTEX
8
Layer 1
10
37.655453
20
140.308659
70
0
0
VERTEX
8
Layer 1
10
36.789150
20
139.479179
70
0
0
VERTEX
8
Layer 1
10
36.186025
20
138.617279
70
0
0
VERTEX
8
Layer 1
10
35.833427
20
137.699371
70
0
0
VERTEX
8
Layer 1
10
35.718705
20
136.701864
70
0
0
VERTEX
8
Layer 1
10
35.791287
20
136.076026
70
0
0
VERTEX
8
Layer 1
10
36.008349
20
135.512452
70
0
0
VERTEX
8
Layer 1
10
36.871824
20
134.574980
70
0
0
VERTEX
8
Layer 1
10
38.300944
20
133.895229
70
0
0
VERTEX
8
Layer 1
10
40.287524
20
133.478978
70
0
0
VERTEX
8
Layer 1
10
41.804114
20
133.289537
70
0
0
VERTEX
8
Layer 1
10
41.804114
20
130.144968
70
0
0
VERTEX
8
Layer 1
10
41.804114
20
127.000399
70
0
0
VERTEX
8
Layer 1
10
33.643845
20
127.000399
70
0
0
VERTEX
8
Layer 1
10
21.869902
20
126.827097
70
0
0
VERTEX
8
Layer 1
10
18.256227
20
126.653795
70
0
0
VERTEX
8
Layer 1
10
18.256227
20
125.596786
70
0
0
VERTEX
8
Layer 1
10
18.256227
20
124.539777
70
0
0
VERTEX
8
Layer 1
10
30.030171
20
124.682387
70
0
0
VERTEX
8
Layer 1
10
41.804114
20
124.824998
70
0
0
VERTEX
8
Layer 1
10
41.804114
20
121.456591
70
0
0
VERTEX
8
Layer 1
10
41.804114
20
118.088450
70
0
0
VERTEX
8
Layer 1
10
40.679636
20
117.752429
70
0
0
VERTEX
8
Layer 1
10
38.694267
20
116.984085
70
0
0
VERTEX
8
Layer 1
10
37.314504
20
116.032607
70
0
0
VERTEX
8
Layer 1
10
36.509366
20
114.867958
70
0
0
VERTEX
8
Layer 1
10
36.247871
20
113.460099
70
0
0
VERTEX
8
Layer 1
10
36.359380
20
112.289609
70
0
0
VERTEX
8
Layer 1
10
36.691874
20
111.255197
70
0
0
VERTEX
8
Layer 1
10
37.242302
20
110.363660
70
0
0
VERTEX
8
Layer 1
10
38.007613
20
109.621794
70
0
0
VERTEX
8
Layer 1
10
38.974928
20
109.088394
70
0
0
VERTEX
8
Layer 1
10
40.208149
20
109.067757
70
0
0
VERTEX
8
Layer 1
10
41.429101
20
109.342460
70
0
0
VERTEX
8
Layer 1
10
42.470863
20
109.920773
70
0
0
VERTEX
8
Layer 1
10
43.130845
20
110.512508
70
0
0
VERTEX
8
Layer 1
10
43.592265
20
111.197683
70
0
0
VERTEX
8
Layer 1
10
43.936558
20
112.140876
70
0
0
VERTEX
8
Layer 1
10
44.245157
20
113.506666
70
0
0
VERTEX
8
Layer 1
10
44.786229
20
115.292601
70
0
0
VERTEX
8
Layer 1
10
45.200053
20
115.570248
70
0
0
VERTEX
8
Layer 1
10
45.732841
20
115.604214
70
0
0
VERTEX
8
Layer 1
10
46.268704
20
115.411664
70
0
0
VERTEX
8
Layer 1
10
46.691756
20
115.009762
70
0
0
VERTEX
8
Layer 1
10
47.081590
20
113.357607
70
0
0
VERTEX
8
Layer 1
10
47.395447
20
110.294562
70
0
0
VERTEX
8
Layer 1
10
47.560725
20
106.812915
70
0
0
VERTEX
8
Layer 1
10
47.504819
20
103.904949
70
0
0
VERTEX
8
Layer 1
10
47.313790
20
101.610750
70
0
0
VERTEX
8
Layer 1
10
45.597440
20
100.765672
70
0
0
VERTEX
8
Layer 1
10
44.467270
20
100.106600
70
0
0
VERTEX
8
Layer 1
10
43.460304
20
99.309246
70
0
0
VERTEX
8
Layer 1
10
42.585051
20
98.387527
70
0
0
VERTEX
8
Layer 1
10
41.850019
20
97.355362
70
0
0
VERTEX
8
Layer 1
10
41.263716
20
96.226670
70
0
0
VERTEX
8
Layer 1
10
40.834649
20
95.015369
70
0
0
VERTEX
8
Layer 1
10
40.571327
20
93.735378
70
0
0
VERTEX
8
Layer 1
10
40.482257
20
92.400616
70
0
0
VERTEX
8
Layer 1
10
40.559454
20
91.398790
70
0
0
VERTEX
8
Layer 1
10
40.794085
20
90.534144
70
0
0
VERTEX
8
Layer 1
10
41.192799
20
89.801154
70
0
0
VERTEX
8
Layer 1
10
41.762244
20
89.194299
70
0
0
VERTEX
8
Layer 1
10
42.509066
20
88.708057
70
0
0
VERTEX
8
Layer 1
10
43.439915
20
88.336906
70
0
0
VERTEX
8
Layer 1
10
45.880280
20
87.917786
70
0
0
VERTEX
8
Layer 1
10
47.456512
20
87.912556
70
0
0
VERTEX
8
Layer 1
10
48.655788
20
88.168842
70
0
0
VERTEX
8
Layer 1
10
49.494157
20
88.692770
70
0
0
VERTEX
8
Layer 1
10
49.987666
20
89.490467
70
0
0
VERTEX
8
Layer 1
10
50.195397
20
91.004378
70
0
0
VERTEX
8
Layer 1
10
50.296964
20
93.503927
70
0
0
VERTEX
8
Layer 1
10
50.495401
20
98.160852
70
0
0
VERTEX
8
Layer 1
10
50.667645
20
99.616059
70
0
0
VERTEX
8
Layer 1
10
52.359917
20
99.695963
70
0
0
VERTEX
8
Layer 1
10
54.000874
20
99.666066
70
0
0
VERTEX
8
Layer 1
10
55.555782
20
99.426282
70
0
0
VERTEX
8
Layer 1
10
57.003982
20
98.988402
70
0
0
VERTEX
8
Layer 1
10
58.324809
20
98.364217
70
0
0
VERTEX
8
Layer 1
10
59.497602
20
97.565519
70
0
0
VERTEX
8
Layer 1
10
60.501699
20
96.604099
70
0
0
VERTEX
8
Layer 1
10
61.316436
20
95.491750
70
0
0
VERTEX
8
Layer 1
10
61.921153
20
94.240261
70
0
0
VERTEX
8
Layer 1
10
62.367951
20
92.680569
70
0
0
VERTEX
8
Layer 1
10
62.716820
20
90.825156
70
0
0
VERTEX
8
Layer 1
10
62.902673
20
89.109046
70
0
0
VERTEX
8
Layer 1
10
62.860423
20
87.967263
70
0
0
VERTEX
8
Layer 1
10
62.567964
20
87.482617
70
0
0
VERTEX
8
Layer 1
10
62.036015
20
87.317480
70
0
0
VERTEX
8
Layer 1
10
61.297544
20
87.472075
70
0
0
VERTEX
8
Layer 1
10
60.385514
20
87.946625
70
0
0
VERTEX
8
Layer 1
10
59.289954
20
88.547708
70
0
0
VERTEX
8
Layer 1
10
58.199033
20
88.933189
70
0
0
VERTEX
8
Layer 1
10
57.085738
20
89.110013
70
0
0
VERTEX
8
Layer 1
10
55.923057
20
89.085126
70
0
0
VERTEX
8
Layer 1
10
54.283266
20
88.677395
70
0
0
VERTEX
8
Layer 1
10
53.630795
20
88.307714
70
0
0
VERTEX
8
Layer 1
10
53.086165
20
87.823330
70
0
0
VERTEX
8
Layer 1
10
52.309105
20
86.497975
70
0
0
VERTEX
8
Layer 1
10
51.929441
20
84.676379
70
0
0
VERTEX
8
Layer 1
10
51.963059
20
83.219817
70
0
0
VERTEX
8
Layer 1
10
52.349003
20
82.015270
70
0
0
VERTEX
8
Layer 1
10
53.085090
20
81.067004
70
0
0
VERTEX
8
Layer 1
10
54.169136
20
80.379287
70
0
0
VERTEX
8
Layer 1
10
55.543070
20
80.000908
70
0
0
VERTEX
8
Layer 1
10
57.126281
20
79.948810
70
0
0
VERTEX
8
Layer 1
10
58.800624
20
80.215204
70
0
0
VERTEX
8
Layer 1
10
60.447955
20
80.792301
70
0
0
VERTEX
8
Layer 1
10
62.447409
20
81.492123
70
0
0
VERTEX
8
Layer 1
10
63.013483
20
81.007515
70
0
0
VERTEX
8
Layer 1
10
63.993090
20
79.718400
70
0
0
VERTEX
8
Layer 1
10
66.590018
20
75.714887
70
0
0
VERTEX
8
Layer 1
10
69.032413
20
71.458069
70
0
0
VERTEX
8
Layer 1
10
69.818854
20
69.852322
70
0
0
VERTEX
8
Layer 1
10
70.114495
20
68.924430
70
0
0
VERTEX
8
Layer 1
10
69.917281
20
68.361365
70
0
0
VERTEX
8
Layer 1
10
69.386892
20
67.861601
70
0
0
VERTEX
8
Layer 1
10
67.360240
20
66.404232
70
0
0
VERTEX
8
Layer 1
10
65.600808
20
64.785856
70
0
0
VERTEX
8
Layer 1
10
64.139777
20
63.038943
70
0
0
VERTEX
8
Layer 1
10
63.008325
20
61.195961
70
0
0
VERTEX
8
Layer 1
10
62.618461
20
60.191519
70
0
0
VERTEX
8
Layer 1
10
62.419541
20
59.092361
70
0
0
VERTEX
8
Layer 1
10
62.410246
20
57.904799
70
0
0
VERTEX
8
Layer 1
10
62.589258
20
56.635145
70
0
0
VERTEX
8
Layer 1
10
62.955261
20
55.289714
70
0
0
VERTEX
8
Layer 1
10
63.506936
20
53.874817
70
0
0
VERTEX
8
Layer 1
10
65.162030
20
50.861878
70
0
0
VERTEX
8
Layer 1
10
67.684036
20
47.622423
70
0
0
VERTEX
8
Layer 1
10
68.989513
20
46.238427
70
0
0
VERTEX
8
Layer 1
10
69.917910
20
45.472587
70
0
0
VERTEX
8
Layer 1
10
71.008546
20
45.243868
70
0
0
VERTEX
8
Layer 1
10
72.699802
20
45.226360
70
0
0
VERTEX
8
Layer 1
10
74.532246
20
45.399699
70
0
0
VERTEX
8
Layer 1
10
76.046446
20
45.743520
70
0
0
VERTEX
8
Layer 1
10
77.720305
20
46.591860
70
0
0
VERTEX
8
Layer 1
10
80.405451
20
48.209864
70
0
0
VERTEX
8
Layer 1
10
86.518641
20
52.317085
70
0
0
VERTEX
8
Layer 1
10
87.973848
20
53.374358
70
0
0
VERTEX
8
Layer 1
10
91.962436
20
51.492115
70
0
0
VERTEX
8
Layer 1
10
97.518679
20
48.721666
70
0
0
VERTEX
8
Layer 1
10
101.245662
20
46.212857
70
0
0
VERTEX
8
Layer 1
10
102.804527
20
44.978607
70
0
0
VERTEX
8
Layer 1
10
103.446661
20
44.291224
70
0
0
VERTEX
8
Layer 1
10
102.976828
20
43.713044
70
0
0
VERTEX
8
Layer 1
10
101.839849
20
42.732830
70
0
0
VERTEX
8
Layer 1
10
100.263728
20
41.326121
70
0
0
VERTEX
8
Layer 1
10
98.769363
20
39.664693
70
0
0
VERTEX
8
Layer 1
10
97.417278
20
37.823034
70
0
0
VERTEX
8
Layer 1
10
96.267995
20
35.875633
70
0
0
VERTEX
8
Layer 1
10
95.334348
20
33.763533
70
0
0
VERTEX
8
Layer 1
10
95.047209
20
31.751048
70
0
0
VERTEX
8
Layer 1
10
95.168285
20
29.639713
70
0
0
VERTEX
8
Layer 1
10
95.786620
20
27.906823
70
0
0
VERTEX
8
Layer 1
10
96.284825
20
27.177713
70
0
0
VERTEX
8
Layer 1
10
96.910424
20
26.537717
70
0
0
VERTEX
8
Layer 1
10
98.547907
20
25.517737
70
0
0
VERTEX
8
Layer 1
10
99.838477
20
24.730206
70
0
0
VERTEX
8
Layer 1
10
101.070706
20
23.675181
70
0
0
VERTEX
8
Layer 1
10
101.990379
20
22.826135
70
0
0
VERTEX
8
Layer 1
10
102.902956
20
22.215469
70
0
0
VERTEX
8
Layer 1
10
103.815302
20
21.843063
70
0
0
VERTEX
8
Layer 1
10
104.734288
20
21.708800
70
0
0
VERTEX
8
Layer 1
10
105.666779
20
21.812563
70
0
0
VERTEX
8
Layer 1
10
106.619644
20
22.154234
70
0
0
VERTEX
8
Layer 1
10
107.599751
20
22.733695
70
0
0
VERTEX
8
Layer 1
10
108.613967
20
23.550827
70
0
0
VERTEX
8
Layer 1
10
109.785776
20
24.471865
70
0
0
VERTEX
8
Layer 1
10
110.904826
20
24.967405
70
0
0
VERTEX
8
Layer 1
10
112.197260
20
25.096033
70
0
0
VERTEX
8
Layer 1
10
113.889223
20
24.916340
70
0
0
VERTEX
8
Layer 1
10
115.805383
20
24.569951
70
0
0
VERTEX
8
Layer 1
10
117.036636
20
24.222868
70
0
0
VERTEX
8
Layer 1
10
117.778246
20
23.798791
70
0
0
VERTEX
8
Layer 1
10
118.225474
20
23.221421
70
0
0
VERTEX
8
Layer 1
10
118.889118
20
22.196898
70
0
0
VERTEX
8
Layer 1
10
119.717689
20
21.240092
70
0
0
VERTEX
8
Layer 1
10
120.629752
20
20.433502
70
0
0
VERTEX
8
Layer 1
10
121.543874
20
19.859630
70
0
0
VERTEX
8
Layer 1
10
122.703882
20
19.451039
70
0
0
VERTEX
8
Layer 1
10
123.829425
20
19.340700
70
0
0
VERTEX
8
Layer 1
10
124.887424
20
19.508396
70
0
0
VERTEX
8
Layer 1
10
125.844803
20
19.933911
70
0
0
VERTEX
8
Layer 1
10
126.668485
20
20.597031
70
0
0
VERTEX
8
Layer 1
10
127.325393
20
21.477538
70
0
0
VERTEX
8
Layer 1
10
127.782450
20
22.555218
70
0
0
VERTEX
8
Layer 1
10
128.006578
20
23.809854
70
0
0
VERTEX
8
Layer 1
10
128.007248
20
25.117956
70
0
0
VERTEX
8
Layer 1
10
127.786908
20
26.255031
70
0
0
VERTEX
8
Layer 1
10
127.320407
20
27.300874
70
0
0
VERTEX
8
Layer 1
10
126.582593
20
28.335282
70
0
0
VERTEX
8
Layer 1
10
125.943029
20
29.239494
70
0
0
VERTEX
8
Layer 1
10
125.676925
20
29.891294
70
0
0
VERTEX
8
Layer 1
10
125.768657
20
30.164811
70
0
0
VERTEX
8
Layer 1
10
126.059942
20
30.396830
70
0
0
VERTEX
8
Layer 1
10
127.337712
20
30.752049
70
0
0
VERTEX
8
Layer 1
10
129.703316
20
30.988305
70
0
0
VERTEX
8
Layer 1
10
133.349832
20
31.136951
70
0
0
VERTEX
8
Layer 1
10
137.383611
20
31.165927
70
0
0
VERTEX
8
Layer 1
10
140.426865
20
30.966526
70
0
0
VERTEX
8
Layer 1
10
142.941234
20
30.481922
70
0
0
VERTEX
8
Layer 1
10
145.388359
20
29.655286
70
0
0
VERTEX
8
Layer 1
10
146.973331
20
28.893130
70
0
0
VERTEX
8
Layer 1
10
148.850328
20
27.633938
70
0
0
VERTEX
8
Layer 1
10
155.405735
20
22.189548
70
0
0
VERTEX
8
Layer 1
10
157.390769
20
20.660258
70
0
0
VERTEX
8
Layer 1
10
159.310716
20
19.449262
70
0
0
VERTEX
8
Layer 1
10
161.166369
20
18.633321
70
0
0
VERTEX
8
Layer 1
10
161.935297
20
18.538397
70
0
0
VERTEX
8
Layer 1
10
162.943441
20
18.568465
70
0
0
VERTEX
8
Layer 1
10
164.617771
20
18.816792
70
0
0
VERTEX
8
Layer 1
10
166.100908
20
19.405142
70
0
0
VERTEX
8
Layer 1
10
167.552195
20
20.420628
70
0
0
VERTEX
8
Layer 1
10
169.130979
20
21.950365
70
0
0
VERTEX
8
Layer 1
10
172.047279
20
25.339971
70
0
0
VERTEX
8
Layer 1
10
174.779826
20
29.236980
70
0
0
VERTEX
8
Layer 1
10
176.008201
20
30.993452
70
0
0
VERTEX
8
Layer 1
10
177.160572
20
32.366815
70
0
0
VERTEX
8
Layer 1
10
178.245419
20
33.360742
70
0
0
VERTEX
8
Layer 1
10
179.271221
20
33.978903
70
0
0
VERTEX
8
Layer 1
10
180.246459
20
34.224969
70
0
0
VERTEX
8
Layer 1
10
181.179613
20
34.102612
70
0
0
VERTEX
8
Layer 1
10
182.079163
20
33.615503
70
0
0
VERTEX
8
Layer 1
10
182.953588
20
32.767311
70
0
0
VERTEX
8
Layer 1
10
183.643654
20
31.751379
70
0
0
VERTEX
8
Layer 1
10
184.293437
20
30.508831
70
0
0
VERTEX
8
Layer 1
10
184.922846
20
29.372182
70
0
0
VERTEX
8
Layer 1
10
185.219184
20
29.161120
70
0
0
VERTEX
8
Layer 1
10
185.579839
20
29.104689
70
0
0
VERTEX
8
Layer 1
10
186.257986
20
29.299773
70
0
0
VERTEX
8
Layer 1
10
186.987652
20
29.953967
70
0
0
VERTEX
8
Layer 1
10
187.857167
20
31.170681
70
0
0
VERTEX
8
Layer 1
10
188.954860
20
33.053326
70
0
0
VERTEX
8
Layer 1
10
190.858523
20
36.302861
70
0
0
VERTEX
8
Layer 1
10
192.822542
20
39.258715
70
0
0
VERTEX
8
Layer 1
10
194.847990
20
41.922010
70
0
0
VERTEX
8
Layer 1
10
196.935940
20
44.293870
70
0
0
VERTEX
8
Layer 1
10
199.087464
20
46.375416
70
0
0
VERTEX
8
Layer 1
10
201.303635
20
48.167770
70
0
0
VERTEX
8
Layer 1
10
203.585526
20
49.672056
70
0
0
VERTEX
8
Layer 1
10
205.934209
20
50.889395
70
0
0
VERTEX
8
Layer 1
10
207.478051
20
51.585513
70
0
0
VERTEX
8
Layer 1
10
207.301574
20
50.541204
70
0
0
VERTEX
8
Layer 1
10
207.107469
20
48.805859
70
0
0
VERTEX
8
Layer 1
10
207.155553
20
47.316259
70
0
0
VERTEX
8
Layer 1
10
207.449049
20
46.068096
70
0
0
VERTEX
8
Layer 1
10
207.991177
20
45.057060
70
0
0
VERTEX
8
Layer 1
10
208.785159
20
44.278839
70
0
0
VERTEX
8
Layer 1
10
209.834216
20
43.729126
70
0
0
VERTEX
8
Layer 1
10
211.141571
20
43.403609
70
0
0
VERTEX
8
Layer 1
10
212.710445
20
43.297979
70
0
0
VERTEX
8
Layer 1
10
214.163034
20
43.375192
70
0
0
VERTEX
8
Layer 1
10
215.279446
20
43.644021
70
0
0
VERTEX
8
Layer 1
10
216.228030
20
44.169181
70
0
0
VERTEX
8
Layer 1
10
217.177135
20
45.015388
70
0
0
VERTEX
8
Layer 1
10
217.880917
20
45.926169
70
0
0
VERTEX
8
Layer 1
10
218.297710
20
46.933317
70
0
0
VERTEX
8
Layer 1
10
218.431829
20
48.053524
70
0
0
VERTEX
8
Layer 1
10
218.287590
20
49.303484
70
0
0
VERTEX
8
Layer 1
10
217.763914
20
50.697142
70
0
0
VERTEX
8
Layer 1
10
216.500067
20
52.182677
70
0
0
VERTEX
8
Layer 1
10
215.121060
20
53.796897
70
0
0
VERTEX
8
Layer 1
10
218.799938
20
56.695144
70
0
0
VERTEX
8
Layer 1
10
223.555040
20
60.182972
70
0
0
VERTEX
8
Layer 1
10
227.853737
20
63.165132
70
0
0
VERTEX
8
Layer 1
10
230.163398
20
64.546376
70
0
0
VERTEX
8
Layer 1
10
231.152607
20
64.569659
70
0
0
VERTEX
8
Layer 1
10
232.568457
20
64.367517
70
0
0
VERTEX
8
Layer 1
10
234.637587
20
64.194075
70
0
0
VERTEX
8
Layer 1
10
235.563684
20
64.321967
70
0
0
VERTEX
8
Layer 1
10
236.410202
20
64.589900
70
0
0
VERTEX
8
Layer 1
10
237.171690
20
64.995597
70
0
0
VERTEX
8
Layer 1
10
237.842696
20
65.536784
70
0
0
VERTEX
8
Layer 1
10
238.417770
20
66.211185
70
0
0
VERTEX
8
Layer 1
10
238.891462
20
67.016522
70
0
0
VERTEX
8
Layer 1
10
239.390279
20
68.538003
70
0
0
VERTEX
8
Layer 1
10
239.395459
20
69.988815
70
0
0
VERTEX
8
Layer 1
10
238.913228
20
71.332421
70
0
0
VERTEX
8
Layer 1
10
237.949811
20
72.532284
70
0
0
VERTEX
8
Layer 1
10
236.548232
20
73.572352
70
0
0
VERTEX
8
Layer 1
10
235.082855
20
74.126595
70
0
0
VERTEX
8
Layer 1
10
233.506255
20
74.204887
70
0
0
VERTEX
8
Layer 1
10
231.771004
20
73.817099
70
0
0
VERTEX
8
Layer 1
10
230.355448
20
73.446501
70
0
0
VERTEX
8
Layer 1
10
229.089091
20
73.368697
70
0
0
VERTEX
8
Layer 1
10
227.865052
20
73.589839
70
0
0
VERTEX
8
Layer 1
10
226.576446
20
74.116078
70
0
0
VERTEX
8
Layer 1
10
225.654804
20
74.650908
70
0
0
VERTEX
8
Layer 1
10
225.102851
20
75.152251
70
0
0
VERTEX
8
Layer 1
10
224.906894
20
75.638216
70
0
0
VERTEX
8
Layer 1
10
225.053241
20
76.126909
70
0
0
VERTEX
8
Layer 1
10
227.059442
20
77.087808
70
0
0
VERTEX
8
Layer 1
10
231.931077
20
78.891272
70
0
0
VERTEX
8
Layer 1
10
236.427904
20
80.407804
70
0
0
VERTEX
8
Layer 1
10
239.185678
20
81.125279
70
0
0
VERTEX
8
Layer 1
10
240.099369
20
81.215856
70
0
0
VERTEX
8
Layer 1
10
240.802635
20
81.144453
70
0
0
VERTEX
8
Layer 1
10
241.370258
20
80.923663
70
0
0
VERTEX
8
Layer 1
10
241.877016
20
80.566082
70
0
0
VERTEX
8
Layer 1
10
242.455601
20
80.196032
70
0
0
VERTEX
8
Layer 1
10
243.112222
20
79.981371
70
0
0
VERTEX
8
Layer 1
10
244.587934
20
80.003579
70
0
0
VERTEX
8
Layer 1
10
246.160879
20
80.603438
70
0
0
VERTEX
8
Layer 1
10
247.687788
20
81.751679
70
0
0
VERTEX
8
Layer 1
10
248.426496
20
82.578119
70
0
0
VERTEX
8
Layer 1
10
248.961015
20
83.424149
70
0
0
VERTEX
8
Layer 1
10
249.291274
20
84.286861
70
0
0
VERTEX
8
Layer 1
10
249.417202
20
85.163344
70
0
0
VERTEX
8
Layer 1
10
249.338726
20
86.050693
70
0
0
VERTEX
8
Layer 1
10
249.055777
20
86.945997
70
0
0
VERTEX
8
Layer 1
10
248.568282
20
87.846349
70
0
0
VERTEX
8
Layer 1
10
247.876171
20
88.748841
70
0
0
VERTEX
8
Layer 1
10
246.958333
20
89.945397
70
0
0
VERTEX
8
Layer 1
10
246.313544
20
91.147782
70
0
0
VERTEX
8
Layer 1
10
245.931883
20
92.379685
70
0
0
VERTEX
8
Layer 1
10
245.803428
20
93.664793
70
0
0
VERTEX
8
Layer 1
10
245.877958
20
95.066000
70
0
0
VERTEX
8
Layer 1
10
246.183567
20
96.258699
70
0
0
VERTEX
8
Layer 1
10
246.824239
20
97.511623
70
0
0
VERTEX
8
Layer 1
10
247.903952
20
99.093507
70
0
0
VERTEX
8
Layer 1
10
249.003319
20
100.765849
70
0
0
VERTEX
8
Layer 1
10
249.472202
20
102.076317
70
0
0
VERTEX
8
Layer 1
10
249.357778
20
103.371752
70
0
0
VERTEX
8
Layer 1
10
248.707226
20
104.999000
70
0
0
VERTEX
8
Layer 1
10
248.109918
20
106.524176
70
0
0
VERTEX
8
Layer 1
10
247.779631
20
108.012368
70
0
0
VERTEX
8
Layer 1
10
247.715697
20
109.468861
70
0
0
VERTEX
8
Layer 1
10
247.917446
20
110.898936
70
0
0
VERTEX
8
Layer 1
10
248.378201
20
112.425634
70
0
0
VERTEX
8
Layer 1
10
248.994828
20
113.719887
70
0
0
VERTEX
8
Layer 1
10
249.788660
20
114.817836
70
0
0
VERTEX
8
Layer 1
10
250.781028
20
115.755621
70
0
0
VERTEX
8
Layer 1
10
251.614451
20
116.521710
70
0
0
VERTEX
8
Layer 1
10
252.269349
20
117.350978
70
0
0
VERTEX
8
Layer 1
10
252.742589
20
118.228598
70
0
0
VERTEX
8
Layer 1
10
253.031042
20
119.139737
70
0
0
VERTEX
8
Layer 1
10
253.131574
20
120.069567
70
0
0
VERTEX
8
Layer 1
10
253.041054
20
121.003257
70
0
0
VERTEX
8
Layer 1
10
252.756352
20
121.925978
70
0
0
VERTEX
8
Layer 1
10
252.274334
20
122.822898
70
0
0
VERTEX
8
Layer 1
10
251.509491
20
123.716593
70
0
0
VERTEX
8
Layer 1
10
250.598995
20
124.462254
70
0
0
VERTEX
8
Layer 1
10
249.728694
20
125.169212
70
0
0
VERTEX
8
Layer 1
10
249.222799
20
126.082891
70
0
0
VERTEX
8
Layer 1
10
249.008657
20
127.431446
70
0
0
VERTEX
8
Layer 1
10
249.013613
20
129.443029
70
0
0
VERTEX
8
Layer 1
10
249.114949
20
132.159767
70
0
0
VERTEX
8
Layer 1
10
250.402410
20
134.223515
70
0
0
VERTEX
8
Layer 1
10
251.482768
20
136.192608
70
0
0
VERTEX
8
Layer 1
10
251.595712
20
136.864839
70
0
0
VERTEX
8
Layer 1
10
251.544350
20
137.695373
70
0
0
VERTEX
8
Layer 1
10
251.274343
20
139.104893
70
0
0
VERTEX
8
Layer 1
10
250.776133
20
140.282763
70
0
0
VERTEX
8
Layer 1
10
250.044164
20
141.238631
70
0
0
VERTEX
8
Layer 1
10
249.072880
20
141.982147
70
0
0
VERTEX
8
Layer 1
10
247.496391
20
142.583122
70
0
0
VERTEX
8
Layer 1
10
245.884159
20
142.588240
70
0
0
VERTEX
8
Layer 1
10
244.293010
20
142.007671
70
0
0
VERTEX
8
Layer 1
10
242.779773
20
140.851584
70
0
0
VERTEX
8
Layer 1
10
242.173738
20
140.107618
70
0
0
VERTEX
8
Layer 1
10
241.615674
20
139.183123
70
0
0
VERTEX
8
Layer 1
10
241.204950
20
138.266963
70
0
0
VERTEX
8
Layer 1
10
241.040934
20
137.548000
70
0
0
VERTEX
8
Layer 1
10
240.845060
20
137.099301
70
0
0
VERTEX
8
Layer 1
10
240.351431
20
136.684335
70
0
0
VERTEX
8
Layer 1
10
239.683177
20
136.379403
70
0
0
VERTEX
8
Layer 1
10
238.963428
20
136.260804
70
0
0
VERTEX
8
Layer 1
10
238.208606
20
136.428285
70
0
0
VERTEX
8
Layer 1
10
237.471445
20
136.830716
70
0
0
VERTEX
8
Layer 1
10
237.071953
20
137.187874
70
0
0
VERTEX
8
Layer 1
10
236.868691
20
137.572044
70
0
0
VERTEX
8
Layer 1
10
236.859464
20
139.145817
70
0
0
VERTEX
8
Layer 1
10
236.994240
20
140.213943
70
0
0
VERTEX
8
Layer 1
10
237.330852
20
141.409093
70
0
0
VERTEX
8
Layer 1
10
239.070055
20
145.505334
70
0
0
VERTEX
8
Layer 1
10
240.629917
20
148.735864
70
0
0
VERTEX
8
Layer 1
10
241.905889
20
150.828777
70
0
0
VERTEX
8
Layer 1
10
243.091423
20
152.044052
70
0
0
VERTEX
8
Layer 1
10
244.379971
20
152.641667
70
0
0
VERTEX
8
Layer 1
10
245.064145
20
152.917748
70
0
0
VERTEX
8
Layer 1
10
245.739659
20
153.360005
70
0
0
VERTEX
8
Layer 1
10
246.962004
20
154.608345
70
0
0
VERTEX
8
Layer 1
10
247.841597
20
156.117283
70
0
0
VERTEX
8
Layer 1
10
248.088673
20
156.885287
70
0
0
VERTEX
8
Layer 1
10
248.173033
20
157.617415
70
0
0
VERTEX
8
Layer 1
10
248.015511
20
158.529176
70
0
0
VERTEX
8
Layer 1
10
247.588536
20
159.581083
70
0
0
VERTEX
8
Layer 1
10
246.941445
20
160.674564
70
0
0
VERTEX
8
Layer 1
10
246.123573
20
161.711043
70
0
0
VERTEX
8
Layer 1
10
244.282113
20
164.093050
70
0
0
VERTEX
8
Layer 1
10
242.013243
20
167.567257
70
0
0
VERTEX
8
Layer 1
10
239.581209
20
171.705732
70
0
0
VERTEX
8
Layer 1
10
237.250253
20
176.080545
70
0
0
VERTEX
8
Layer 1
10
235.573318
20
179.468167
70
0
0
VERTEX
8
Layer 1
10
234.642259
20
181.597299
70
0
0
VERTEX
8
Layer 1
10
234.241622
20
183.046884
70
0
0
VERTEX
8
Layer 1
10
234.155955
20
184.395860
70
0
0
VERTEX
8
Layer 1
10
233.996544
20
186.062634
70
0
0
VERTEX
8
Layer 1
10
233.526975
20
187.478781
70
0
0
VERTEX
8
Layer 1
10
232.760247
20
188.617513
70
0
0
VERTEX
8
Layer 1
10
231.709356
20
189.452041
70
0
0
VERTEX
8
Layer 1
10
230.807847
20
189.828725
70
0
0
VERTEX
8
Layer 1
10
229.645741
20
190.027112
70
0
0
VERTEX
8
Layer 1
10
225.821591
20
189.949722
70
0
0
VERTEX
8
Layer 1
10
223.925151
20
190.729441
70
0
0
VERTEX
8
Layer 1
10
219.903104
20
192.922485
70
0
0
VERTEX
8
Layer 1
10
207.790821
20
200.132529
70
0
0
VERTEX
8
Layer 1
10
194.102004
20
208.747806
70
0
0
VERTEX
8
Layer 1
10
188.109289
20
212.697393
70
0
0
VERTEX
8
Layer 1
10
183.453915
20
215.936270
70
0
0
VERTEX
8
Layer 1
10
181.563093
20
217.362290
70
0
0
VERTEX
8
Layer 1
10
180.499085
20
218.353434
70
0
0
VERTEX
8
Layer 1
10
180.029049
20
219.186524
70
0
0
VERTEX
8
Layer 1
10
179.920144
20
220.138377
70
0
0
VERTEX
8
Layer 1
10
179.714406
20
220.954087
70
0
0
VERTEX
8
Layer 1
10
179.181495
20
221.852346
70
0
0
VERTEX
8
Layer 1
10
178.435958
20
222.678573
70
0
0
VERTEX
8
Layer 1
10
177.592343
20
223.278184
70
0
0
VERTEX
8
Layer 1
10
176.087858
20
223.727479
70
0
0
VERTEX
8
Layer 1
10
173.698740
20
224.089660
70
0
0
VERTEX
8
Layer 1
10
170.028709
20
224.654181
70
0
0
VERTEX
8
Layer 1
10
165.291879
20
225.574500
70
0
0
VERTEX
8
Layer 1
10
160.210860
20
226.541451
70
0
0
VERTEX
8
Layer 1
10
156.657213
20
226.748190
70
0
0
VERTEX
8
Layer 1
10
154.761198
20
226.688634
70
0
0
VERTEX
8
Layer 1
10
153.146288
20
226.492950
70
0
0
VERTEX
8
Layer 1
10
151.769043
20
226.135614
70
0
0
VERTEX
8
Layer 1
10
150.586025
20
225.591102
70
0
0
VERTEX
8
Layer 1
10
149.553795
20
224.833891
70
0
0
VERTEX
8
Layer 1
10
148.628913
20
223.838455
70
0
0
VERTEX
8
Layer 1
10
147.767940
20
222.579271
70
0
0
VERTEX
8
Layer 1
10
146.927438
20
221.030816
70
0
0
VERTEX
8
Layer 1
10
145.690777
20
218.539502
70
0
0
VERTEX
8
Layer 1
10
145.270884
20
220.196321
70
0
0
VERTEX
8
Layer 1
10
144.630973
20
221.953638
70
0
0
VERTEX
8
Layer 1
10
143.667064
20
223.575956
70
0
0
VERTEX
8
Layer 1
10
142.436232
20
225.021937
70
0
0
VERTEX
8
Layer 1
10
140.995553
20
226.250245
70
0
0
VERTEX
8
Layer 1
10
139.402102
20
227.219543
70
0
0
VERTEX
8
Layer 1
10
137.712954
20
227.888493
70
0
0
VERTEX
8
Layer 1
10
135.985186
20
228.215760
70
0
0
VERTEX
8
Layer 1
10
134.275873
20
228.160005
70
0
0
SEQEND
8
Layer 1
0
POLYLINE
8
Layer 1
62
7
70
0
10
0.000000
20
0.000000
66
1
0
VERTEX
8
Layer 1
10
130.405288
20
224.672801
70
0
0
VERTEX
8
Layer 1
10
128.336873
20
223.669767
70
0
0
VERTEX
8
Layer 1
10
125.861835
20
222.231163
70
0
0
VERTEX
8
Layer 1
10
123.421276
20
220.629741
70
0
0
VERTEX
8
Layer 1
10
121.456297
20
219.138254
70
0
0
VERTEX
8
Layer 1
10
120.542956
20
218.360644
70
0
0
VERTEX
8
Layer 1
10
122.646920
20
217.672199
70
0
0
VERTEX
8
Layer 1
10
126.819328
20
216.480617
70
0
0
VERTEX
8
Layer 1
10
130.948477
20
215.753973
70
0
0
VERTEX
8
Layer 1
10
134.665388
20
215.454035
70
0
0
VERTEX
8
Layer 1
10
138.576471
20
215.423773
70
0
0
VERTEX
8
Layer 1
10
141.792527
20
215.639970
70
0
0
VERTEX
8
Layer 1
10
142.862046
20
215.833236
70
0
0
VERTEX
8
Layer 1
10
143.424359
20
216.079410
70
0
0
VERTEX
8
Layer 1
10
143.565444
20
216.762836
70
0
0
VERTEX
8
Layer 1
10
143.406466
20
217.979909
70
0
0
VERTEX
8
Layer 1
10
143.012292
20
219.419034
70
0
0
VERTEX
8
Layer 1
10
142.447783
20
220.768614
70
0
0
VERTEX
8
Layer 1
10
141.123863
20
222.901686
70
0
0
VERTEX
8
Layer 1
10
140.428686
20
223.640784
70
0
0
VERTEX
8
Layer 1
10
139.650843
20
224.195791
70
0
0
VERTEX
8
Layer 1
10
138.744947
20
224.592358
70
0
0
VERTEX
8
Layer 1
10
137.665607
20
224.856136
70
0
0
VERTEX
8
Layer 1
10
134.805038
20
225.087932
70
0
0
VERTEX
8
Layer 1
10
132.002212
20
225.057968
70
0
0
VERTEX
8
Layer 1
10
130.405288
20
224.672801
70
0
0
SEQEND
8
Layer 1
0
POLYLINE
8
Layer 1
62
7
70
0
10
0.000000
20
0.000000
66
1
0
VERTEX
8
Layer 1
10
153.213401
20
224.176179
70
0
0
VERTEX
8
Layer 1
10
152.347186
20
223.765160
70
0
0
VERTEX
8
Layer 1
10
151.530562
20
223.172839
70
0
0
VERTEX
8
Layer 1
10
150.778492
20
222.421804
70
0
0
VERTEX
8
Layer 1
10
150.105940
20
221.534648
70
0
0
VERTEX
8
Layer 1
10
149.059241
20
219.442334
70
0
0
VERTEX
8
Layer 1
10
148.510173
20
217.076623
70
0
0
VERTEX
8
Layer 1
10
148.367828
20
215.739421
70
0
0
VERTEX
8
Layer 1
10
158.519613
20
215.831760
70
0
0
VERTEX
8
Layer 1
10
169.232049
20
216.040781
70
0
0
VERTEX
8
Layer 1
10
169.541880
20
216.179042
70
0
0
VERTEX
8
Layer 1
10
169.727117
20
216.575569
70
0
0
VERTEX
8
Layer 1
10
169.925521
20
219.005433
70
0
0
VERTEX
8
Layer 1
10
170.012040
20
221.911877
70
0
0
VERTEX
8
Layer 1
10
163.601194
20
223.300938
70
0
0
VERTEX
8
Layer 1
10
159.420121
20
224.123568
70
0
0
VERTEX
8
Layer 1
10
156.611440
20
224.517028
70
0
0
VERTEX
8
Layer 1
10
154.700688
20
224.521253
70
0
0
VERTEX
8
Layer 1
10
153.213401
20
224.176179
70
0
0
SEQEND
8
Layer 1
0
POLYLINE
8
Layer 1
62
7
70
0
10
0.000000
20
0.000000
66
1
0
VERTEX
8
Layer 1
10
113.604532
20
222.076977
70
0
0
VERTEX
8
Layer 1
10
113.545063
20
221.402435
70
0
0
VERTEX
8
Layer 1
10
113.759412
20
220.912911
70
0
0
VERTEX
8
Layer 1
10
114.256287
20
220.598558
70
0
0
VERTEX
8
Layer 1
10
115.044393
20
220.449527
70
0
0
VERTEX
8
Layer 1
10
115.889347
20
220.467060
70
0
0
VERTEX
8
Layer 1
10
116.577585
20
220.635231
70
0
0
VERTEX
8
Layer 1
10
117.040696
20
220.926781
70
0
0
VERTEX
8
Layer 1
10
117.210269
20
221.314449
70
0
0
VERTEX
8
Layer 1
10
116.985245
20
221.819951
70
0
0
VERTEX
8
Layer 1
10
116.409211
20
222.292811
70
0
0
VERTEX
8
Layer 1
10
115.630721
20
222.642738
70
0
0
VERTEX
8
Layer 1
10
114.798330
20
222.779445
70
0
0
VERTEX
8
Layer 1
10
113.928381
20
222.656215
70
0
0
VERTEX
8
Layer 1
10
113.604532
20
222.076977
70
0
0
SEQEND
8
Layer 1
0
POLYLINE
8
Layer 1
62
7
70
0
10
0.000000
20
0.000000
66
1
0
VERTEX
8
Layer 1
10
173.057655
20
220.642408
70
0
0
VERTEX
8
Layer 1
10
172.435215
20
219.791505
70
0
0
VERTEX
8
Layer 1
10
172.220713
20
218.912994
70
0
0
VERTEX
8
Layer 1
10
172.414495
20
218.039296
70
0
0
VERTEX
8
Layer 1
10
173.016909
20
217.202829
70
0
0
VERTEX
8
Layer 1
10
173.895176
20
216.618911
70
0
0
VERTEX
8
Layer 1
10
174.904312
20
216.389303
70
0
0
VERTEX
8
Layer 1
10
175.881103
20
216.521941
70
0
0
VERTEX
8
Layer 1
10
176.662334
20
217.024765
70
0
0
VERTEX
8
Layer 1
10
177.450820
20
218.048044
70
0
0
VERTEX
8
Layer 1
10
177.748745
20
218.910216
70
0
0
VERTEX
8
Layer 1
10
177.562929
20
219.712709
70
0
0
VERTEX
8
Layer 1
10
176.900194
20
220.556948
70
0
0
VERTEX
8
Layer 1
10
175.945624
20
221.255988
70
0
0
VERTEX
8
Layer 1
10
174.958783
20
221.503857
70
0
0
VERTEX
8
Layer 1
10
173.982013
20
221.299636
70
0
0
VERTEX
8
Layer 1
10
173.057655
20
220.642408
70
0
0
SEQEND
8
Layer 1
0
POLYLINE
8
Layer 1
62
7
70
0
10
0.000000
20
0.000000
66
1
0
VERTEX
8
Layer 1
10
113.840275
20
216.295309
70
0
0
VERTEX
8
Layer 1
10
112.522582
20
214.877430
70
0
0
VERTEX
8
Layer 1
10
110.924075
20
212.820111
70
0
0
VERTEX
8
Layer 1
10
109.575648
20
210.849063
70
0
0
VERTEX
8
Layer 1
10
109.008196
20
209.689995
70
0
0
VERTEX
8
Layer 1
10
109.330468
20
209.486193
70
0
0
VERTEX
8
Layer 1
10
110.199646
20
209.436586
70
0
0
VERTEX
8
Layer 1
10
112.992882
20
209.711988
70
0
0
VERTEX
8
Layer 1
10
116.216231
20
210.340261
70
0
0
VERTEX
8
Layer 1
10
118.698019
20
211.145466
70
0
0
VERTEX
8
Layer 1
10
120.757004
20
211.931542
70
0
0
VERTEX
8
Layer 1
10
121.919975
20
211.613120
70
0
0
VERTEX
8
Layer 1
10
123.280762
20
210.850423
70
0
0
VERTEX
8
Layer 1
10
124.411214
20
209.932299
70
0
0
VERTEX
8
Layer 1
10
124.756266
20
209.505218
70
0
0
VERTEX
8
Layer 1
10
124.883176
20
209.147600
70
0
0
VERTEX
8
Layer 1
10
125.517381
20
208.253045
70
0
0
VERTEX
8
Layer 1
10
125.949607
20
207.934495
70
0
0
VERTEX
8
Layer 1
10
126.555440
20
207.734462
70
0
0
VERTEX
8
Layer 1
10
129.155398
20
207.513535
70
0
0
VERTEX
8
Layer 1
10
133.002199
20
207.521324
70
0
0
VERTEX
8
Layer 1
10
136.321331
20
207.914577
70
0
0
VERTEX
8
Layer 1
10
138.966917
20
208.665314
70
0
0
VERTEX
8
Layer 1
10
139.991544
20
209.165996
70
0
0
VERTEX
8
Layer 1
10
140.793081
20
209.745557
70
0
0
VERTEX
8
Layer 1
10
142.167523
20
211.402144
70
0
0
VERTEX
8
Layer 1
10
142.674638
20
212.255429
70
0
0
VERTEX
8
Layer 1
10
142.874820
20
212.846999
70
0
0
VERTEX
8
Layer 1
10
139.898261
20
213.002045
70
0
0
VERTEX
8
Layer 1
10
132.820666
20
213.237259
70
0
0
VERTEX
8
Layer 1
10
130.371124
20
213.401371
70
0
0
VERTEX
8
Layer 1
10
128.356754
20
213.688737
70
0
0
VERTEX
8
Layer 1
10
121.984669
20
215.341752
70
0
0
VERTEX
8
Layer 1
10
115.086990
20
217.223202
70
0
0
VERTEX
8
Layer 1
10
113.840275
20
216.295309
70
0
0
SEQEND
8
Layer 1
0
POLYLINE
8
Layer 1
62
7
70
0
10
0.000000
20
0.000000
66
1
0
VERTEX
8
Layer 1
10
103.007718
20
213.398919
70
0
0
VERTEX
8
Layer 1
10
96.351174
20
210.531766
70
0
0
VERTEX
8
Layer 1
10
94.872523
20
209.720265
70
0
0
VERTEX
8
Layer 1
10
94.610654
20
209.477348
70
0
0
VERTEX
8
Layer 1
10
94.672824
20
209.345772
70
0
0
VERTEX
8
Layer 1
10
96.818593
20
209.529393
70
0
0
VERTEX
8
Layer 1
10
101.386089
20
209.816465
70
0
0
VERTEX
8
Layer 1
10
103.712728
20
209.882599
70
0
0
VERTEX
8
Layer 1
10
105.235672
20
210.170312
70
0
0
VERTEX
8
Layer 1
10
106.343734
20
210.817743
70
0
0
VERTEX
8
Layer 1
10
107.425725
20
211.963027
70
0
0
VERTEX
8
Layer 1
10
109.043551
20
214.206691
70
0
0
VERTEX
8
Layer 1
10
109.801945
20
215.757412
70
0
0
VERTEX
8
Layer 1
10
109.558119
20
215.860757
70
0
0
VERTEX
8
Layer 1
10
108.585558
20
215.585830
70
0
0
VERTEX
8
Layer 1
10
103.007718
20
213.398919
70
0
0
SEQEND
8
Layer 1
0
POLYLINE
8
Layer 1
62
7
70
0
10
0.000000
20
0.000000
66
1
0
VERTEX
8
Layer 1
10
177.769349
20
214.617853
70
0
0
VERTEX
8
Layer 1
10
176.744057
20
214.098477
70
0
0
VERTEX
8
Layer 1
10
175.165323
20
213.535444
70
0
0
VERTEX
8
Layer 1
10
173.451210
20
212.940013
70
0
0
VERTEX
8
Layer 1
10
171.535211
20
212.088076
70
0
0
VERTEX
8
Layer 1
10
165.893541
20
209.029596
70
0
0
VERTEX
8
Layer 1
10
159.090318
20
205.454021
70
0
0
VERTEX
8
Layer 1
10
156.129072
20
204.170099
70
0
0
VERTEX
8
Layer 1
10
155.297029
20
204.022557
70
0
0
VERTEX
8
Layer 1
10
154.430483
20
204.065489
70
0
0
VERTEX
8
Layer 1
10
153.247493
20
204.276541
70
0
0
VERTEX
8
Layer 1
10
152.138284
20
204.659619
70
0
0
VERTEX
8
Layer 1
10
151.099546
20
205.217632
70
0
0
VERTEX
8
Layer 1
10
150.127966
20
205.953488
70
0
0
VERTEX
8
Layer 1
10
149.220233
20
206.870095
70
0
0
VERTEX
8
Layer 1
10
148.373037
20
207.970362
70
0
0
VERTEX
8
Layer 1
10
146.847005
20
210.733510
70
0
0
VERTEX
8
Layer 1
10
145.688396
20
213.297319
70
0
0
VERTEX
8
Layer 1
10
144.809451
20
211.447355
70
0
0
VERTEX
8
Layer 1
10
143.898140
20
209.896965
70
0
0
VERTEX
8
Layer 1
10
142.727348
20
208.536082
70
0
0
VERTEX
8
Layer 1
10
141.298042
20
207.365600
70
0
0
VERTEX
8
Layer 1
10
139.611189
20
206.386411
70
0
0
VERTEX
8
Layer 1
10
137.704839
20
205.574282
70
0
0
VERTEX
8
Layer 1
10
135.802483
20
205.087243
70
0
0
VERTEX
8
Layer 1
10
133.464111
20
204.850135
70
0
0
VERTEX
8
Layer 1
10
130.249713
20
204.787801
70
0
0
VERTEX
8
Layer 1
10
127.161381
20
204.711341
70
0
0
VERTEX
8
Layer 1
10
124.203702
20
204.479430
70
0
0
VERTEX
8
Layer 1
10
121.360583
20
204.088272
70
0
0
VERTEX
8
Layer 1
10
118.615932
20
203.534074
70
0
0
VERTEX
8
Layer 1
10
115.953658
20
202.813040
70
0
0
VERTEX
8
Layer 1
10
113.357668
20
201.921375
70
0
0
VERTEX
8
Layer 1
10
110.811870
20
200.855283
70
0
0
VERTEX
8
Layer 1
10
108.300172
20
199.610970
70
0
0
VERTEX
8
Layer 1
10
105.846512
20
198.248868
70
0
0
VERTEX
8
Layer 1
10
104.221030
20
197.190598
70
0
0
VERTEX
8
Layer 1
10
103.187188
20
196.259179
70
0
0
VERTEX
8
Layer 1
10
102.508450
20
195.277630
70
0
0
VERTEX
8
Layer 1
10
101.659949
20
194.036248
70
0
0
VERTEX
8
Layer 1
10
100.658552
20
193.168771
70
0
0
VERTEX
8
Layer 1
10
99.479653
20
192.659672
70
0
0
VERTEX
8
Layer 1
10
98.098645
20
192.493423
70
0
0
VERTEX
8
Layer 1
10
96.626671
20
192.637455
70
0
0
VERTEX
8
Layer 1
10
96.165259
20
192.927293
70
0
0
VERTEX
8
Layer 1
10
95.638288
20
193.459944
70
0
0
VERTEX
8
Layer 1
10
94.936800
20
194.422659
70
0
0
VERTEX
8
Layer 1
10
94.481696
20
195.467699
70
0
0
VERTEX
8
Layer 1
10
94.302669
20
196.498006
70
0
0
VERTEX
8
Layer 1
10
94.429408
20
197.416519
70
0
0
VERTEX
8
Layer 1
10
94.927701
20
198.533869
70
0
0
VERTEX
8
Layer 1
10
95.674933
20
199.391961
70
0
0
VERTEX
8
Layer 1
10
96.928973
20
200.206298
70
0
0
VERTEX
8
Layer 1
10
98.947692
20
201.192383
70
0
0
VERTEX
8
Layer 1
10
99.846832
20
201.939540
70
0
0
VERTEX
8
Layer 1
10
101.154876
20
203.359648
70
0
0
VERTEX
8
Layer 1
10
102.482021
20
204.999922
70
0
0
VERTEX
8
Layer 1
10
103.438459
20
206.407578
70
0
0
VERTEX
8
Layer 1
10
104.014986
20
207.433631
70
0
0
VERTEX
8
Layer 1
10
99.564435
20
207.433631
70
0
0
VERTEX
8
Layer 1
10
96.622776
20
207.393476
70
0
0
VERTEX
8
Layer 1
10
94.715025
20
207.227488
70
0
0
VERTEX
8
Layer 1
10
93.426399
20
206.867378
70
0
0
VERTEX
8
Layer 1
10
92.342113
20
206.244860
70
0
0
VERTEX
8
Layer 1
10
91.134490
20
205.660991
70
0
0
VERTEX
8
Layer 1
10
89.592302
20
205.200550
70
0
0
VERTEX
8
Layer 1
10
88.386552
20
204.906314
70
0
0
VERTEX
8
Layer 1
10
87.594072
20
204.574646
70
0
0
VERTEX
8
Layer 1
10
87.060999
20
204.113548
70
0
0
VERTEX
8
Layer 1
10
86.633470
20
203.431019
70
0
0
VERTEX
8
Layer 1
10
86.306698
20
202.563237
70
0
0
VERTEX
8
Layer 1
10
86.345174
20
201.759847
70
0
0
VERTEX
8
Layer 1
10
86.795953
20
200.856743
70
0
0
VERTEX
8
Layer 1
10
87.706090
20
199.689816
70
0
0
VERTEX
8
Layer 1
10
88.810087
20
198.282842
70
0
0
VERTEX
8
Layer 1
10
89.500690
20
197.073784
70
0
0
VERTEX
8
Layer 1
10
89.857025
20
195.881048
70
0
0
VERTEX
8
Layer 1
10
89.958220
20
194.523039
70
0
0
VERTEX
8
Layer 1
10
89.804861
20
193.032610
70
0
0
VERTEX
8
Layer 1
10
89.143304
20
191.742007
70
0
0
VERTEX
8
Layer 1
10
88.312593
20
190.626737
70
0
0
VERTEX
8
Layer 1
10
87.401546
20
189.710039
70
0
0
VERTEX
8
Layer 1
10
86.354408
20
188.970835
70
0
0
VERTEX
8
Layer 1
10
85.115425
20
188.388054
70
0
0
VERTEX
8
Layer 1
10
83.628842
20
187.940619
70
0
0
VERTEX
8
Layer 1
10
81.838904
20
187.607455
70
0
0
VERTEX
8
Layer 1
10
77.125945
20
187.199646
70
0
0
VERTEX
8
Layer 1
10
72.719315
20
186.776578
70
0
0
VERTEX
8
Layer 1
10
71.912390
20
186.474188
70
0
0
VERTEX
8
Layer 1
10
71.199252
20
186.059062
70
0
0
VERTEX
8
Layer 1
10
70.738675
20
185.643588
70
0
0
VERTEX
8
Layer 1
10
70.689434
20
185.340157
70
0
0
VERTEX
8
Layer 1
10
73.732138
20
184.969211
70
0
0
VERTEX
8
Layer 1
10
76.766409
20
184.559207
70
0
0
VERTEX
8
Layer 1
10
77.619189
20
184.224365
70
0
0
VERTEX
8
Layer 1
10
78.114162
20
183.779911
70
0
0
VERTEX
8
Layer 1
10
78.311541
20
182.165954
70
0
0
VERTEX
8
Layer 1
10
78.075281
20
180.648406
70
0
0
VERTEX
8
Layer 1
10
77.387452
20
179.357869
70
0
0
VERTEX
8
Layer 1
10
76.290792
20
178.349411
70
0
0
VERTEX
8
Layer 1
10
74.828041
20
177.678098
70
0
0
VERTEX
8
Layer 1
10
72.797156
20
177.320811
70
0
0
VERTEX
8
Layer 1
10
71.892238
20
177.366340
70
0
0
VERTEX
8
Layer 1
10
71.051350
20
177.564592
70
0
0
VERTEX
8
Layer 1
10
70.267253
20
177.918021
70
0
0
VERTEX
8
Layer 1
10
69.532706
20
178.429083
70
0
0
VERTEX
8
Layer 1
10
68.183304
20
179.933932
70
0
0
VERTEX
8
Layer 1
10
67.393898
20
180.932756
70
0
0
VERTEX
8
Layer 1
10
66.653567
20
181.617044
70
0
0
VERTEX
8
Layer 1
10
65.971404
20
181.988297
70
0
0
VERTEX
8
Layer 1
10
65.356499
20
182.048017
70
0
0
VERTEX
8
Layer 1
10
64.817942
20
181.797703
70
0
0
VERTEX
8
Layer 1
10
64.364825
20
181.238856
70
0
0
VERTEX
8
Layer 1
10
64.006239
20
180.372977
70
0
0
VERTEX
8
Layer 1
10
63.751274
20
179.201567
70
0
0
VERTEX
8
Layer 1
10
63.185860
20
176.974274
70
0
0
VERTEX
8
Layer 1
10
62.158484
20
174.211002
70
0
0
VERTEX
8
Layer 1
10
60.859382
20
170.825133
70
0
0
VERTEX
8
Layer 1
10
61.256025
20
170.379543
70
0
0
VERTEX
8
Layer 1
10
62.202140
20
169.730553
70
0
0
VERTEX
8
Layer 1
10
63.749800
20
168.631655
70
0
0
VERTEX
8
Layer 1
10
65.188257
20
167.265144
70
0
0
VERTEX
8
Layer 1
10
66.480367
20
165.695893
70
0
0
VERTEX
8
Layer 1
10
67.588984
20
163.988772
70
0
0
VERTEX
8
Layer 1
10
68.476964
20
162.208650
70
0
0
VERTEX
8
Layer 1
10
69.107161
20
160.420399
70
0
0
VERTEX
8
Layer 1
10
69.442431
20
158.688888
70
0
0
VERTEX
8
Layer 1
10
69.445629
20
157.078988
70
0
0
VERTEX
8
Layer 1
10
69.100914
20
155.062522
70
0
0
VERTEX
8
Layer 1
10
68.554361
20
153.314113
70
0
0
VERTEX
8
Layer 1
10
67.795895
20
151.823437
70
0
0
VERTEX
8
Layer 1
10
66.815443
20
150.580168
70
0
0
VERTEX
8
Layer 1
10
65.602931
20
149.573983
70
0
0
VERTEX
8
Layer 1
10
64.148285
20
148.794555
70
0
0
VERTEX
8
Layer 1
10
62.441431
20
148.231561
70
0
0
VERTEX
8
Layer 1
10
60.472297
20
147.874675
70
0
0
VERTEX
8
Layer 1
10
58.509686
20
147.728261
70
0
0
VERTEX
8
Layer 1
10
57.286453
20
147.901133
70
0
0
VERTEX
8
Layer 1
10
56.026091
20
148.506177
70
0
0
VERTEX
8
Layer 1
10
54.330829
20
149.572239
70
0
0
VERTEX
8
Layer 1
10
50.687224
20
152.374438
70
0
0
VERTEX
8
Layer 1
10
48.534113
20
154.030674
70
0
0
VERTEX
8
Layer 1
10
46.621707
20
155.014679
70
0
0
VERTEX
8
Layer 1
10
45.770806
20
155.249161
70
0
0
VERTEX
8
Layer 1
10
44.998127
20
155.309064
70
0
0
VERTEX
8
Layer 1
10
44.309684
20
155.192216
70
0
0
VERTEX
8
Layer 1
10
43.711493
20
154.896443
70
0
0
VERTEX
8
Layer 1
10
43.133743
20
154.290350
70
0
0
VERTEX
8
Layer 1
10
42.575638
20
153.414778
70
0
0
VERTEX
8
Layer 1
10
42.284919
20
152.707072
70
0
0
VERTEX
8
Layer 1
10
42.120952
20
151.776050
70
0
0
VERTEX
8
Layer 1
10
42.033772
20
147.800327
70
0
0
VERTEX
8
Layer 1
10
42.110183
20
144.552798
70
0
0
VERTEX
8
Layer 1
10
42.360301
20
141.994020
70
0
0
VERTEX
8
Layer 1
10
42.822597
20
139.871556
70
0
0
VERTEX
8
Layer 1
10
43.535545
20
137.932969
70
0
0
VERTEX
8
Layer 1
10
44.201265
20
136.740419
70
0
0
VERTEX
8
Layer 1
10
44.612469
20
136.352555
70
0
0
VERTEX
8
Layer 1
10
45.145169
20
136.078242
70
0
0
VERTEX
8
Layer 1
10
46.782859
20
135.794088
70
0
0
VERTEX
8
Layer 1
10
49.529938
20
135.735607
70
0
0
VERTEX
8
Layer 1
10
52.207075
20
135.788908
70
0
0
VERTEX
8
Layer 1
10
53.754832
20
136.039778
70
0
0
VERTEX
8
Layer 1
10
54.233968
20
136.285105
70
0
0
VERTEX
8
Layer 1
10
54.585288
20
136.634788
70
0
0
VERTEX
8
Layer 1
10
55.110522
20
137.720508
70
0
0
VERTEX
8
Layer 1
10
55.934938
20
139.279766
70
0
0
VERTEX
8
Layer 1
10
57.051503
20
140.342361
70
0
0
VERTEX
8
Layer 1
10
58.419488
20
140.882023
70
0
0
VERTEX
8
Layer 1
10
59.998164
20
140.872486
70
0
0
VERTEX
8
Layer 1
10
60.932663
20
140.631566
70
0
0
VERTEX
8
Layer 1
10
61.641092
20
140.242910
70
0
0
VERTEX
8
Layer 1
10
62.206250
20
139.642125
70
0
0
VERTEX
8
Layer 1
10
62.710933
20
138.764818
70
0
0
VERTEX
8
Layer 1
10
63.149182
20
137.579717
70
0
0
VERTEX
8
Layer 1
10
63.010177
20
136.552374
70
0
0
VERTEX
8
Layer 1
10
62.615750
20
135.682227
70
0
0
VERTEX
8
Layer 1
10
62.082020
20
134.972814
70
0
0
VERTEX
8
Layer 1
10
61.313158
20
134.492290
70
0
0
VERTEX
8
Layer 1
10
60.181851
20
134.057754
70
0
0
VERTEX
8
Layer 1
10
58.920468
20
133.742081
70
0
0
VERTEX
8
Layer 1
10
57.761379
20
133.618149
70
0
0
VERTEX
8
Layer 1
10
57.288028
20
133.588383
70
0
0
VERTEX
8
Layer 1
10
57.013238
20
133.438960
70
0
0
VERTEX
8
Layer 1
10
56.734797
20
132.394188
70
0
0
VERTEX
8
Layer 1
10
56.673149
20
124.830818
70
0
0
VERTEX
8
Layer 1
10
56.765807
20
120.871284
70
0
0
VERTEX
8
Layer 1
10
56.968325
20
118.879751
70
0
0
VERTEX
8
Layer 1
10
57.168615
20
118.395643
70
0
0
VERTEX
8
Layer 1
10
57.465770
20
118.131924
70
0
0
VERTEX
8
Layer 1
10
58.443210
20
117.903506
70
0
0
VERTEX
8
Layer 1
10
59.539815
20
117.615612
70
0
0
VERTEX
8
Layer 1
10
60.438674
20
117.155605
70
0
0
VERTEX
8
Layer 1
10
61.131772
20
116.541126
70
0
0
VERTEX
8
Layer 1
10
61.611095
20
115.789819
70
0
0
VERTEX
8
Layer 1
10
61.868627
20
114.919325
70
0
0
VERTEX
8
Layer 1
10
61.896353
20
113.947288
70
0
0
VERTEX
8
Layer 1
10
61.686258
20
112.891348
70
0
0
VERTEX
8
Layer 1
10
61.230327
20
111.769149
70
0
0
VERTEX
8
Layer 1
10
60.227781
20
110.363482
70
0
0
VERTEX
8
Layer 1
10
59.652109
20
109.918590
70
0
0
VERTEX
8
Layer 1
10
59.041035
20
109.649740
70
0
0
VERTEX
8
Layer 1
10
58.405206
20
109.559992
70
0
0
VERTEX
8
Layer 1
10
57.755269
20
109.652407
70
0
0
VERTEX
8
Layer 1
10
57.101872
20
109.930044
70
0
0
VERTEX
8
Layer 1
10
56.455662
20
110.395964
70
0
0
VERTEX
8
Layer 1
10
55.675969
20
111.276645
70
0
0
VERTEX
8
Layer 1
10
54.964340
20
112.408845
70
0
0
VERTEX
8
Layer 1
10
54.444997
20
113.561980
70
0
0
VERTEX
8
Layer 1
10
54.242161
20
114.505467
70
0
0
VERTEX
8
Layer 1
10
54.069909
20
115.009192
70
0
0
VERTEX
8
Layer 1
10
53.541214
20
115.356895
70
0
0
VERTEX
8
Layer 1
10
52.630429
20
115.558350
70
0
0
VERTEX
8
Layer 1
10
51.311904
20
115.623330
70
0
0
VERTEX
8
Layer 1
10
49.741604
20
115.623330
70
0
0
VERTEX
8
Layer 1
10
49.745308
20
109.604067
70
0
0
VERTEX
8
Layer 1
10
49.898766
20
103.026004
70
0
0
VERTEX
8
Layer 1
10
50.057140
20
102.718563
70
0
0
VERTEX
8
Layer 1
10
50.465668
20
102.532590
70
0
0
VERTEX
8
Layer 1
10
52.871885
20
102.328299
70
0
0
VERTEX
8
Layer 1
10
54.956456
20
102.152736
70
0
0
VERTEX
8
Layer 1
10
56.592683
20
101.791559
70
0
0
VERTEX
8
Layer 1
10
58.117735
20
101.136448
70
0
0
VERTEX
8
Layer 1
10
59.868783
20
100.079079
70
0
0
VERTEX
8
Layer 1
10
61.088646
20
99.174922
70
0
0
VERTEX
8
Layer 1
10
62.146305
20
98.166673
70
0
0
VERTEX
8
Layer 1
10
63.041729
20
97.054393
70
0
0
VERTEX
8
Layer 1
10
63.774888
20
95.838144
70
0
0
VERTEX
8
Layer 1
10
64.345749
20
94.517989
70
0
0
VERTEX
8
Layer 1
10
64.754283
20
93.093988
70
0
0
VERTEX
8
Layer 1
10
65.000458
20
91.566205
70
0
0
VERTEX
8
Layer 1
10
65.084243
20
89.934702
70
0
0
VERTEX
8
Layer 1
10
64.970803
20
88.134711
70
0
0
VERTEX
8
Layer 1
10
64.693454
20
86.627414
70
0
0
VERTEX
8
Layer 1
10
64.296579
20
84.908419
70
0
0
VERTEX
8
Layer 1
10
64.962965
20
83.491444
70
0
0
VERTEX
8
Layer 1
10
66.569347
20
80.675091
70
0
0
VERTEX
8
Layer 1
10
70.833632
20
73.200092
70
0
0
VERTEX
8
Layer 1
10
73.554074
20
68.125390
70
0
0
VERTEX
8
Layer 1
10
72.297305
20
67.173420
70
0
0
VERTEX
8
Layer 1
10
70.384514
20
65.758873
70
0
0
VERTEX
8
Layer 1
10
68.460091
20
64.141597
70
0
0
VERTEX
8
Layer 1
10
66.845477
20
62.607714
70
0
0
VERTEX
8
Layer 1
10
65.862117
20
61.443346
70
0
0
VERTEX
8
Layer 1
10
65.240909
20
60.202981
70
0
0
VERTEX
8
Layer 1
10
64.803256
20
58.885622
70
0
0
VERTEX
8
Layer 1
10
64.651898
20
58.076924
70
0
0
VERTEX
8
Layer 1
10
64.664548
20
57.427968
70
0
0
VERTEX
8
Layer 1
10
65.358086
20
55.549231
70
0
0
VERTEX
8
Layer 1
10
66.572237
20
53.078038
70
0
0
VERTEX
8
Layer 1
10
67.893023
20
50.887708
70
0
0
VERTEX
8
Layer 1
10
69.193122
20
49.168121
70
0
0
VERTEX
8
Layer 1
10
70.345211
20
48.109157
70
0
0
VERTEX
8
Layer 1
10
71.631250
20
47.472008
70
0
0
VERTEX
8
Layer 1
10
73.157200
20
47.418066
70
0
0
VERTEX
8
Layer 1
10
74.874546
20
47.739030
70
0
0
VERTEX
8
Layer 1
10
76.850877
20
48.611798
70
0
0
VERTEX
8
Layer 1
10
79.398262
20
50.206581
70
0
0
VERTEX
8
Layer 1
10
82.828766
20
52.693586
70
0
0
VERTEX
8
Layer 1
10
87.549456
20
56.207513
70
0
0
VERTEX
8
Layer 1
10
88.304447
20
56.030961
70
0
0
VERTEX
8
Layer 1
10
89.934511
20
55.316439
70
0
0
VERTEX
8
Layer 1
10
94.744097
20
52.853791
70
0
0
VERTEX
8
Layer 1
10
99.826682
20
49.980180
70
0
0
VERTEX
8
Layer 1
10
103.030737
20
47.856215
70
0
0
VERTEX
8
Layer 1
10
104.233105
20
46.606135
70
0
0
VERTEX
8
Layer 1
10
105.308697
20
45.166002
70
0
0
VERTEX
8
Layer 1
10
106.064855
20
43.827964
70
0
0
VERTEX
8
Layer 1
10
106.308920
20
42.884172
70
0
0
VERTEX
8
Layer 1
10
106.186811
20
42.509071
70
0
0
VERTEX
8
Layer 1
10
105.869018
20
42.144364
70
0
0
VERTEX
8
Layer 1
10
104.377994
20
41.213859
70
0
0
VERTEX
8
Layer 1
10
102.793996
20
40.209759
70
0
0
VERTEX
8
Layer 1
10
101.367969
20
39.006385
70
0
0
VERTEX
8
Layer 1
10
100.126942
20
37.648342
70
0
0
VERTEX
8
Layer 1
10
99.097942
20
36.180234
70
0
0
VERTEX
8
Layer 1
10
98.307997
20
34.646666
70
0
0
VERTEX
8
Layer 1
10
97.784135
20
33.092244
70
0
0
VERTEX
8
Layer 1
10
97.553382
20
31.561573
70
0
0
VERTEX
8
Layer 1
10
97.642769
20
30.099256
70
0
0
VERTEX
8
Layer 1
10
98.074142
20
28.890352
70
0
0
VERTEX
8
Layer 1
10
98.385174
20
28.544349
70
0
0
VERTEX
8
Layer 1
10
98.745848
20
28.373646
70
0
0
VERTEX
8
Layer 1
10
99.145727
20
28.380495
70
0
0
VERTEX
8
Layer 1
10
99.574369
20
28.567147
70
0
0
VERTEX
8
Layer 1
10
100.476188
20
29.488864
70
0
0
VERTEX
8
Layer 1
10
101.173385
20
30.302254
70
0
0
VERTEX
8
Layer 1
10
101.989227
20
30.956869
70
0
0
VERTEX
8
Layer 1
10
102.892758
20
31.445542
70
0
0
VERTEX
8
Layer 1
10
103.853028
20
31.761102
70
0
0
VERTEX
8
Layer 1
10
104.839082
20
31.896383
70
0
0
VERTEX
8
Layer 1
10
105.819967
20
31.844214
70
0
0
VERTEX
8
Layer 1
10
106.764730
20
31.597429
70
0
0
VERTEX
8
Layer 1
10
107.642419
20
31.148857
70
0
0
VERTEX
8
Layer 1
10
108.527085
20
30.377929
70
0
0
VERTEX
8
Layer 1
10
109.107150
20
29.540722
70
0
0
VERTEX
8
Layer 1
10
109.652563
20
28.777358
70
0
0
VERTEX
8
Layer 1
10
110.635580
20
28.210002
70
0
0
VERTEX
8
Layer 1
10
112.175312
20
27.792068
70
0
0
VERTEX
8
Layer 1
10
114.390873
20
27.476974
70
0
0
VERTEX
8
Layer 1
10
116.606834
20
27.322032
70
0
0
VERTEX
8
Layer 1
10
118.183901
20
27.522913
70
0
0
VERTEX
8
Layer 1
10
119.561490
20
28.211998
70
0
0
VERTEX
8
Layer 1
10
121.179014
20
29.521672
70
0
0
VERTEX
8
Layer 1
10
122.861026
20
30.881211
70
0
0
VERTEX
8
Layer 1
10
124.506476
20
31.918165
70
0
0
VERTEX
8
Layer 1
10
126.281208
20
32.721807
70
0
0
VERTEX
8
Layer 1
10
128.351065
20
33.381409
70
0
0
VERTEX
8
Layer 1
10
131.015251
20
33.879089
70
0
0
VERTEX
8
Layer 1
10
135.334204
20
33.983070
70
0
0
VERTEX
8
Layer 1
10
139.572063
20
33.882297
70
0
0
VERTEX
8
Layer 1
10
141.952748
20
33.429298
70
0
0
VERTEX
8
Layer 1
10
145.490198
20
32.147141
70
0
0
VERTEX
8
Layer 1
10
148.807035
20
30.410638
70
0
0
VERTEX
8
Layer 1
10
152.193524
20
28.042062
70
0
0
VERTEX
8
Layer 1
10
155.939929
20
24.863688
70
0
0
VERTEX
8
Layer 1
10
158.107008
20
22.991553
70
0
0
VERTEX
8
Layer 1
10
159.712386
20
21.912496
70
0
0
VERTEX
8
Layer 1
10
161.160850
20
21.417986
70
0
0
VERTEX
8
Layer 1
10
162.857186
20
21.299490
70
0
0
VERTEX
8
Layer 1
10
164.980200
20
21.299490
70
0
0
VERTEX
8
Layer 1
10
166.399159
20
22.490114
70
0
0
VERTEX
8
Layer 1
10
168.163432
20
24.421834
70
0
0
VERTEX
8
Layer 1
10
170.654977
20
27.914065
70
0
0
VERTEX
8
Layer 1
10
173.608728
20
31.982137
70
0
0
VERTEX
8
Layer 1
10
174.930268
20
33.513484
70
0
0
VERTEX
8
Layer 1
10
176.172227
20
34.730848
70
0
0
VERTEX
8
Layer 1
10
177.352583
20
35.650085
70
0
0
VERTEX
8
Layer 1
10
178.489317
20
36.287051
70
0
0
VERTEX
8
Layer 1
10
179.600409
20
36.657602
70
0
0
VERTEX
8
Layer 1
10
180.703839
20
36.777596
70
0
0
VERTEX
8
Layer 1
10
181.543948
20
36.577439
70
0
0
VERTEX
8
Layer 1
10
182.629077
20
36.058393
70
0
0
VERTEX
8
Layer 1
10
183.741789
20
35.342597
70
0
0
VERTEX
8
Layer 1
10
184.664647
20
34.552188
70
0
0
VERTEX
8
Layer 1
10
185.429490
20
33.881570
70
0
0
VERTEX
8
Layer 1
10
185.987562
20
33.602865
70
0
0
VERTEX
8
Layer 1
10
186.503531
20
34.011050
70
0
0
VERTEX
8
Layer 1
10
187.166543
20
34.991925
70
0
0
VERTEX
8
Layer 1
10
190.045967
20
39.466917
70
0
0
VERTEX
8
Layer 1
10
193.412554
20
44.053629
70
0
0
VERTEX
8
Layer 1
10
195.049385
20
45.927385
70
0
0
VERTEX
8
Layer 1
10
196.755399
20
47.622622
70
0
0
VERTEX
8
Layer 1
10
198.531617
20
49.140009
70
0
0
VERTEX
8
Layer 1
10
200.379058
20
50.480217
70
0
0
VERTEX
8
Layer 1
10
202.298742
20
51.643915
70
0
0
VERTEX
8
Layer 1
10
204.291690
20
52.631773
70
0
0
VERTEX
8
Layer 1
10
206.358922
20
53.444461
70
0
0
VERTEX
8
Layer 1
10
208.501458
20
54.082647
70
0
0
VERTEX
8
Layer 1
10
210.642323
20
54.817712
70
0
0
VERTEX
8
Layer 1
10
213.163940
20
56.088881
70
0
0
VERTEX
8
Layer 1
10
216.314404
20
58.036968
70
0
0
VERTEX
8
Layer 1
10
220.341812
20
60.802791
70
0
0
VERTEX
8
Layer 1
10
223.131455
20
62.921046
70
0
0
VERTEX
8
Layer 1
10
225.820764
20
65.198077
70
0
0
VERTEX
8
Layer 1
10
227.964518
20
67.236436
70
0
0
VERTEX
8
Layer 1
10
229.117501
20
68.638681
70
0
0
VERTEX
8
Layer 1
10
229.331516
20
69.292862
70
0
0
VERTEX
8
Layer 1
10
229.054795
20
69.931169
70
0
0
VERTEX
8
Layer 1
10
228.574953
20
70.458971
70
0
0
VERTEX
8
Layer 1
10
227.915207
20
70.877384
70
0
0
VERTEX
8
Layer 1
10
226.163862
20
71.371956
70
0
0
VERTEX
8
Layer 1
10
224.016485
20
71.386706
70
0
0
VERTEX
8
Layer 1
10
221.688804
20
70.893457
70
0
0
VERTEX
8
Layer 1
10
219.673959
20
70.506765
70
0
0
VERTEX
8
Layer 1
10
218.775251
20
70.543642
70
0
0
VERTEX
8
Layer 1
10
217.951933
20
70.733021
70
0
0
VERTEX
8
Layer 1
10
217.206192
20
71.074167
70
0
0
VERTEX
8
Layer 1
10
216.540213
20
71.566345
70
0
0
VERTEX
8
Layer 1
10
215.956183
20
72.208822
70
0
0
VERTEX
8
Layer 1
10
215.456287
20
73.000861
70
0
0
VERTEX
8
Layer 1
10
215.015922
20
74.209108
70
0
0
VERTEX
8
Layer 1
10
214.840668
20
75.559808
70
0
0
VERTEX
8
Layer 1
10
214.935389
20
76.892302
70
0
0
VERTEX
8
Layer 1
10
215.304945
20
78.045929
70
0
0
VERTEX
8
Layer 1
10
215.966734
20
78.928876
70
0
0
VERTEX
8
Layer 1
10
216.908318
20
79.761221
70
0
0
VERTEX
8
Layer 1
10
218.123250
20
80.407630
70
0
0
VERTEX
8
Layer 1
10
219.583253
20
80.557351
70
0
0
VERTEX
8
Layer 1
10
221.032936
20
80.411070
70
0
0
VERTEX
8
Layer 1
10
222.213737
20
79.797469
70
0
0
VERTEX
8
Layer 1
10
223.338115
20
79.196899
70
0
0
VERTEX
8
Layer 1
10
224.565880
20
79.186282
70
0
0
VERTEX
8
Layer 1
10
227.698174
20
79.973144
70
0
0
VERTEX
8
Layer 1
10
231.998248
20
81.470758
70
0
0
VERTEX
8
Layer 1
10
235.976406
20
83.113926
70
0
0
VERTEX
8
Layer 1
10
237.379238
20
83.813468
70
0
0
VERTEX
8
Layer 1
10
238.142956
20
84.337449
70
0
0
VERTEX
8
Layer 1
10
239.041745
20
86.083961
70
0
0
VERTEX
8
Layer 1
10
239.543237
20
87.155406
70
0
0
VERTEX
8
Layer 1
10
240.219404
20
88.140829
70
0
0
VERTEX
8
Layer 1
10
241.039239
20
89.002030
70
0
0
VERTEX
8
Layer 1
10
241.971737
20
89.700811
70
0
0
VERTEX
8
Layer 1
10
242.445094
20
90.086048
70
0
0
VERTEX
8
Layer 1
10
242.827378
20
90.595089
70
0
0
VERTEX
8
Layer 1
10
243.311817
20
91.947881
70
0
0
VERTEX
8
Layer 1
10
243.411238
20
93.685790
70
0
0
VERTEX
8
Layer 1
10
243.111825
20
95.735420
70
0
0
VERTEX
8
Layer 1
10
242.625091
20
96.994306
70
0
0
VERTEX
8
Layer 1
10
241.509510
20
98.044435
70
0
0
VERTEX
8
Layer 1
10
240.093847
20
99.465713
70
0
0
VERTEX
8
Layer 1
10
239.253973
20
101.073349
70
0
0
VERTEX
8
Layer 1
10
239.061655
20
101.910998
70
0
0
VERTEX
8
Layer 1
10
239.027321
20
102.751975
70
0
0
VERTEX
8
Layer 1
10
239.155649
20
103.581857
70
0
0
VERTEX
8
Layer 1
10
239.451319
20
104.386225
70
0
0
VERTEX
8
Layer 1
10
239.974677
20
105.259738
70
0
0
VERTEX
8
Layer 1
10
240.671543
20
106.022274
70
0
0
VERTEX
8
Layer 1
10
241.611445
20
106.736591
70
0
0
VERTEX
8
Layer 1
10
242.863911
20
107.465442
70
0
0
VERTEX
8
Layer 1
10
243.833806
20
108.098259
70
0
0
VERTEX
8
Layer 1
10
244.526286
20
108.752903
70
0
0
VERTEX
8
Layer 1
10
245.010109
20
109.677311
70
0
0
VERTEX
8
Layer 1
10
245.413366
20
110.951092
70
0
0
VERTEX
8
Layer 1
10
245.690120
20
112.390816
70
0
0
VERTEX
8
Layer 1
10
245.794432
20
113.813053
70
0
0
VERTEX
8
Layer 1
10
245.765005
20
114.665287
70
0
0
VERTEX
8
Layer 1
10
245.618352
20
115.297132
70
0
0
VERTEX
8
Layer 1
10
244.649317
20
116.723466
70
0
0
VERTEX
8
Layer 1
10
243.219874
20
118.713229
70
0
0
VERTEX
8
Layer 1
10
242.956883
20
119.408806
70
0
0
VERTEX
8
Layer 1
10
242.887194
20
120.112245
70
0
0
VERTEX
8
Layer 1
10
242.995537
20
121.007148
70
0
0
VERTEX
8
Layer 1
10
243.335629
20
121.928938
70
0
0
VERTEX
8
Layer 1
10
243.930069
20
122.924051
70
0
0
VERTEX
8
Layer 1
10
244.801452
20
124.038921
70
0
0
VERTEX
8
Layer 1
10
245.749089
20
125.333047
70
0
0
VERTEX
8
Layer 1
10
246.310567
20
126.629652
70
0
0
VERTEX
8
Layer 1
10
246.538572
20
128.114277
70
0
0
VERTEX
8
Layer 1
10
246.485787
20
129.972460
70
0
0
VERTEX
8
Layer 1
10
246.108194
20
132.221548
70
0
0
VERTEX
8
Layer 1
10
245.832470
20
132.668776
70
0
0
VERTEX
8
Layer 1
10
245.497834
20
132.667238
70
0
0
VERTEX
8
Layer 1
10
245.024653
20
132.638336
70
0
0
VERTEX
8
Layer 1
10
244.309328
20
132.843417
70
0
0
VERTEX
8
Layer 1
10
243.566420
20
133.199856
70
0
0
VERTEX
8
Layer 1
10
243.010490
20
133.625028
70
0
0
VERTEX
8
Layer 1
10
242.401209
20
133.997416
70
0
0
VERTEX
8
Layer 1
10
241.544998
20
134.138352
70
0
0
VERTEX
8
Layer 1
10
240.577116
20
134.044388
70
0
0
VERTEX
8
Layer 1
10
239.632823
20
133.712076
70
0
0
VERTEX
8
Layer 1
10
236.934077
20
131.634041
70
0
0
VERTEX
8
Layer 1
10
235.488068
20
130.419233
70
0
0
VERTEX
8
Layer 1
10
234.346686
20
129.645303
70
0
0
VERTEX
8
Layer 1
10
233.374522
20
129.236497
70
0
0
VERTEX
8
Layer 1
10
232.436166
20
129.117063
70
0
0
VERTEX
8
Layer 1
10
231.551809
20
129.217675
70
0
0
VERTEX
8
Layer 1
10
230.726463
20
129.535402
70
0
0
VERTEX
8
Layer 1
10
229.915653
20
130.094081
70
0
0
VERTEX
8
Layer 1
10
229.074903
20
130.917550
70
0
0
VERTEX
8
Layer 1
10
228.029577
20
132.489430
70
0
0
VERTEX
8
Layer 1
10
227.582390
20
134.154723
70
0
0
VERTEX
8
Layer 1
10
227.586432
20
134.983907
70
0
0
VERTEX
8
Layer 1
10
227.744009
20
135.790251
70
0
0
VERTEX
8
Layer 1
10
228.056454
20
136.558360
70
0
0
VERTEX
8
Layer 1
10
228.525100
20
137.272834
70
0
0
VERTEX
8
Layer 1
10
229.376796
20
138.099867
70
0
0
VERTEX
8
Layer 1
10
230.484502
20
138.879944
70
0
0
VERTEX
8
Layer 1
10
231.601187
20
139.461832
70
0
0
VERTEX
8
Layer 1
10
232.479822
20
139.694298
70
0
0
VERTEX
8
Layer 1
10
233.145359
20
140.015403
70
0
0
VERTEX
8
Layer 1
10
233.955922
20
140.892433
70
0
0
VERTEX
8
Layer 1
10
234.854083
20
142.214415
70
0
0
VERTEX
8
Layer 1
10
235.782413
20
143.870376
70
0
0
VERTEX
8
Layer 1
10
237.499862
20
147.740345
70
0
0
VERTEX
8
Layer 1
10
238.174124
20
149.732407
70
0
0
VERTEX
8
Layer 1
10
238.648839
20
151.614555
70
0
0
VERTEX
8
Layer 1
10
238.842944
20
153.468687
70
0
0
VERTEX
8
Layer 1
10
238.404629
20
155.905033
70
0
0
VERTEX
8
Layer 1
10
237.725345
20
158.266238
70
0
0
VERTEX
8
Layer 1
10
237.284810
20
158.906074
70
0
0
VERTEX
8
Layer 1
10
236.582710
20
159.576916
70
0
0
VERTEX
8
Layer 1
10
235.383289
20
160.498806
70
0
0
VERTEX
8
Layer 1
10
234.052701
20
161.253513
70
0
0
VERTEX
8
Layer 1
10
232.614660
20
161.829725
70
0
0
VERTEX
8
Layer 1
10
231.092878
20
162.216132
70
0
0
VERTEX
8
Layer 1
10
229.549300
20
162.363769
70
0
0
VERTEX
8
Layer 1
10
228.032711
20
162.046269
70
0
0
VERTEX
8
Layer 1
10
226.450351
20
161.709385
70
0
0
VERTEX
8
Layer 1
10
225.060551
20
161.714383
70
0
0
VERTEX
8
Layer 1
10
223.867054
20
162.060743
70
0
0
VERTEX
8
Layer 1
10
222.873607
20
162.747944
70
0
0
VERTEX
8
Layer 1
10
222.079329
20
163.602675
70
0
0
VERTEX
8
Layer 1
10
221.566236
20
164.440117
70
0
0
VERTEX
8
Layer 1
10
221.251085
20
165.445487
70
0
0
VERTEX
8
Layer 1
10
221.050630
20
166.804001
70
0
0
VERTEX
8
Layer 1
10
220.911906
20
167.842460
70
0
0
VERTEX
8
Layer 1
10
220.699660
20
168.557690
70
0
0
VERTEX
8
Layer 1
10
220.310806
20
169.179109
70
0
0
VERTEX
8
Layer 1
10
219.642255
20
169.936134
70
0
0
VERTEX
8
Layer 1
10
217.178201
20
171.973610
70
0
0
VERTEX
8
Layer 1
10
211.978343
20
175.852905
70
0
0
VERTEX
8
Layer 1
10
195.328400
20
187.706323
70
0
0
VERTEX
8
Layer 1
10
187.853930
20
193.142180
70
0
0
VERTEX
8
Layer 1
10
188.713825
20
194.559816
70
0
0
VERTEX
8
Layer 1
10
192.616424
20
200.017105
70
0
0
VERTEX
8
Layer 1
10
195.736122
20
204.494378
70
0
0
VERTEX
8
Layer 1
10
194.913137
20
205.197409
70
0
0
VERTEX
8
Layer 1
10
192.825709
20
206.568974
70
0
0
VERTEX
8
Layer 1
10
185.869558
20
211.000210
70
0
0
VERTEX
8
Layer 1
10
181.199205
20
213.817853
70
0
0
VERTEX
8
Layer 1
10
179.415783
20
214.751604
70
0
0
VERTEX
8
Layer 1
10
178.472346
20
215.106538
70
0
0
VERTEX
8
Layer 1
10
177.769349
20
214.617853
70
0
0
SEQEND
8
Layer 1
0
POLYLINE
8
Layer 1
62
7
70
0
10
0.000000
20
0.000000
66
1
0
VERTEX
8
Layer 1
10
151.209185
20
213.496286
70
0
0
VERTEX
8
Layer 1
10
149.067782
20
213.108308
70
0
0
VERTEX
8
Layer 1
10
148.756649
20
212.856363
70
0
0
VERTEX
8
Layer 1
10
148.695646
20
212.460179
70
0
0
VERTEX
8
Layer 1
10
148.806356
20
211.761865
70
0
0
VERTEX
8
Layer 1
10
149.115047
20
210.992880
70
0
0
VERTEX
8
Layer 1
10
150.185744
20
209.408379
70
0
0
VERTEX
8
Layer 1
10
151.626477
20
208.037645
70
0
0
VERTEX
8
Layer 1
10
152.397714
20
207.535868
70
0
0
VERTEX
8
Layer 1
10
153.155986
20
207.211646
70
0
0
VERTEX
8
Layer 1
10
154.627675
20
206.900798
70
0
0
VERTEX
8
Layer 1
10
156.030780
20
206.974150
70
0
0
VERTEX
8
Layer 1
10
157.680095
20
207.492745
70
0
0
VERTEX
8
Layer 1
10
159.890417
20
208.517628
70
0
0
VERTEX
8
Layer 1
10
165.608056
20
211.613249
70
0
0
VERTEX
8
Layer 1
10
167.677922
20
212.935535
70
0
0
VERTEX
8
Layer 1
10
167.727626
20
213.175384
70
0
0
VERTEX
8
Layer 1
10
167.327845
20
213.342828
70
0
0
VERTEX
8
Layer 1
10
164.688940
20
213.552059
70
0
0
VERTEX
8
Layer 1
10
159.736926
20
213.660559
70
0
0
VERTEX
8
Layer 1
10
154.550707
20
213.648558
70
0
0
VERTEX
8
Layer 1
10
151.209185
20
213.496286
70
0
0
SEQEND
8
Layer 1
0
POLYLINE
8
Layer 1
62
7
70
0
10
0.000000
20
0.000000
66
1
0
VERTEX
8
Layer 1
10
88.236049
20
210.603865
70
0
0
VERTEX
8
Layer 1
10
87.869114
20
209.447649
70
0
0
VERTEX
8
Layer 1
10
88.032453
20
208.526855
70
0
0
VERTEX
8
Layer 1
10
88.685138
20
207.918153
70
0
0
VERTEX
8
Layer 1
10
89.786241
20
207.698214
70
0
0
VERTEX
8
Layer 1
10
90.582909
20
207.850808
70
0
0
VERTEX
8
Layer 1
10
91.070064
20
208.280991
70
0
0
VERTEX
8
Layer 1
10
91.223547
20
208.947364
70
0
0
VERTEX
8
Layer 1
10
91.019198
20
209.808528
70
0
0
VERTEX
8
Layer 1
10
90.489139
20
210.699875
70
0
0
VERTEX
8
Layer 1
10
89.417942
20
211.140968
70
0
0
VERTEX
8
Layer 1
10
88.695332
20
211.203806
70
0
0
VERTEX
8
Layer 1
10
88.236049
20
210.603865
70
0
0
SEQEND
8
Layer 1
0
POLYLINE
8
Layer 1
62
7
70
0
10
0.000000
20
0.000000
66
1
0
VERTEX
8
Layer 1
10
119.853718
20
208.753371
70
0
0
VERTEX
8
Layer 1
10
119.554325
20
208.187044
70
0
0
VERTEX
8
Layer 1
10
119.438083
20
207.624019
70
0
0
VERTEX
8
Layer 1
10
119.486382
20
207.094512
70
0
0
VERTEX
8
Layer 1
10
119.680614
20
206.628736
70
0
0
VERTEX
8
Layer 1
10
120.002168
20
206.256909
70
0
0
VERTEX
8
Layer 1
10
120.432435
20
206.009244
70
0
0
VERTEX
8
Layer 1
10
120.952805
20
205.915958
70
0
0
VERTEX
8
Layer 1
10
121.544668
20
206.007264
70
0
0
VERTEX
8
Layer 1
10
122.011963
20
206.216537
70
0
0
VERTEX
8
Layer 1
10
122.303095
20
206.533685
70
0
0
VERTEX
8
Layer 1
10
122.497960
20
207.749279
70
0
0
VERTEX
8
Layer 1
10
122.367885
20
208.598491
70
0
0
VERTEX
8
Layer 1
10
121.913761
20
209.138339
70
0
0
VERTEX
8
Layer 1
10
121.314055
20
209.460601
70
0
0
VERTEX
8
Layer 1
10
120.795336
20
209.508425
70
0
0
VERTEX
8
Layer 1
10
120.320818
20
209.274963
70
0
0
VERTEX
8
Layer 1
10
119.853718
20
208.753371
70
0
0
SEQEND
8
Layer 1
0
POLYLINE
8
Layer 1
62
7
70
0
10
0.000000
20
0.000000
66
1
0
VERTEX
8
Layer 1
10
106.702355
20
206.979871
70
0
0
VERTEX
8
Layer 1
10
104.698900
20
204.188785
70
0
0
VERTEX
8
Layer 1
10
102.147559
20
200.223744
70
0
0
VERTEX
8
Layer 1
10
101.808033
20
199.522963
70
0
0
VERTEX
8
Layer 1
10
101.821328
20
199.231558
70
0
0
VERTEX
8
Layer 1
10
104.165633
20
200.188914
70
0
0
VERTEX
8
Layer 1
10
108.743547
20
202.391440
70
0
0
VERTEX
8
Layer 1
10
113.530515
20
204.834818
70
0
0
VERTEX
8
Layer 1
10
116.501980
20
206.514734
70
0
0
VERTEX
8
Layer 1
10
116.786961
20
206.885055
70
0
0
VERTEX
8
Layer 1
10
116.224168
20
207.129394
70
0
0
VERTEX
8
Layer 1
10
111.759330
20
207.386271
70
0
0
VERTEX
8
Layer 1
10
107.823129
20
207.404130
70
0
0
VERTEX
8
Layer 1
10
107.100867
20
207.262520
70
0
0
VERTEX
8
Layer 1
10
106.702355
20
206.979871
70
0
0
SEQEND
8
Layer 1
0
POLYLINE
8
Layer 1
62
7
70
0
10
0.000000
20
0.000000
66
1
0
VERTEX
8
Layer 1
10
195.047942
20
199.418089
70
0
0
VERTEX
8
Layer 1
10
192.153271
20
195.024688
70
0
0
VERTEX
8
Layer 1
10
191.569014
20
193.852743
70
0
0
VERTEX
8
Layer 1
10
191.480305
20
193.225259
70
0
0
VERTEX
8
Layer 1
10
192.312881
20
192.533474
70
0
0
VERTEX
8
Layer 1
10
194.155503
20
191.316822
70
0
0
VERTEX
8
Layer 1
10
208.888279
20
181.254201
70
0
0
VERTEX
8
Layer 1
10
218.164691
20
174.920283
70
0
0
VERTEX
8
Layer 1
10
222.514303
20
172.225307
70
0
0
VERTEX
8
Layer 1
10
224.124952
20
171.789274
70
0
0
VERTEX
8
Layer 1
10
225.953882
20
171.523103
70
0
0
VERTEX
8
Layer 1
10
227.559835
20
171.317390
70
0
0
VERTEX
8
Layer 1
10
228.634372
20
171.026746
70
0
0
VERTEX
8
Layer 1
10
229.433049
20
170.471961
70
0
0
VERTEX
8
Layer 1
10
230.112862
20
169.690635
70
0
0
VERTEX
8
Layer 1
10
230.646228
20
168.722629
70
0
0
VERTEX
8
Layer 1
10
231.005565
20
167.607804
70
0
0
VERTEX
8
Layer 1
10
231.421184
20
166.444536
70
0
0
VERTEX
8
Layer 1
10
232.134012
20
165.431510
70
0
0
VERTEX
8
Layer 1
10
233.183588
20
164.525689
70
0
0
VERTEX
8
Layer 1
10
234.609450
20
163.684038
70
0
0
VERTEX
8
Layer 1
10
237.071788
20
162.665150
70
0
0
VERTEX
8
Layer 1
10
239.118573
20
162.244475
70
0
0
VERTEX
8
Layer 1
10
239.913448
20
162.263282
70
0
0
VERTEX
8
Layer 1
10
240.517212
20
162.437418
70
0
0
VERTEX
8
Layer 1
10
240.900792
20
162.768810
70
0
0
VERTEX
8
Layer 1
10
241.035113
20
163.259382
70
0
0
VERTEX
8
Layer 1
10
240.383160
20
164.804208
70
0
0
VERTEX
8
Layer 1
10
238.754176
20
168.038281
70
0
0
VERTEX
8
Layer 1
10
234.526371
20
175.796119
70
0
0
VERTEX
8
Layer 1
10
233.003841
20
178.255674
70
0
0
VERTEX
8
Layer 1
10
231.751061
20
179.699181
70
0
0
VERTEX
8
Layer 1
10
231.117237
20
180.130748
70
0
0
VERTEX
8
Layer 1
10
230.420543
20
180.417301
70
0
0
VERTEX
8
Layer 1
10
228.664799
20
180.700694
70
0
0
VERTEX
8
Layer 1
10
226.731136
20
180.995886
70
0
0
VERTEX
8
Layer 1
10
225.426171
20
181.616812
70
0
0
VERTEX
8
Layer 1
10
224.952261
20
182.094664
70
0
0
VERTEX
8
Layer 1
10
224.566897
20
182.708234
70
0
0
VERTEX
8
Layer 1
10
223.970303
20
184.414910
70
0
0
VERTEX
8
Layer 1
10
223.458071
20
185.874383
70
0
0
VERTEX
8
Layer 1
10
222.824394
20
186.902255
70
0
0
VERTEX
8
Layer 1
10
218.785113
20
189.811233
70
0
0
VERTEX
8
Layer 1
10
210.833890
20
195.105155
70
0
0
VERTEX
8
Layer 1
10
202.766183
20
200.299113
70
0
0
VERTEX
8
Layer 1
10
198.377454
20
202.908203
70
0
0
VERTEX
8
Layer 1
10
197.926311
20
202.988881
70
0
0
VERTEX
8
Layer 1
10
197.413678
20
202.636047
70
0
0
VERTEX
8
Layer 1
10
195.047942
20
199.418089
70
0
0
SEQEND
8
Layer 1
0
POLYLINE
8
Layer 1
62
7
70
0
10
0.000000
20
0.000000
66
1
0
VERTEX
8
Layer 1
10
79.646098
20
198.220586
70
0
0
VERTEX
8
Layer 1
10
79.076674
20
197.449893
70
0
0
VERTEX
8
Layer 1
10
78.838590
20
196.671883
70
0
0
VERTEX
8
Layer 1
10
78.941621
20
195.992148
70
0
0
VERTEX
8
Layer 1
10
79.395537
20
195.516284
70
0
0
VERTEX
8
Layer 1
10
79.898212
20
195.352341
70
0
0
VERTEX
8
Layer 1
10
80.334807
20
195.371557
70
0
0
VERTEX
8
Layer 1
10
80.776173
20
195.903071
70
0
0
VERTEX
8
Layer 1
10
81.370782
20
196.948339
70
0
0
VERTEX
8
Layer 1
10
81.859028
20
198.003728
70
0
0
VERTEX
8
Layer 1
10
81.981307
20
198.565603
70
0
0
VERTEX
8
Layer 1
10
81.166921
20
198.840240
70
0
0
VERTEX
8
Layer 1
10
80.430818
20
198.828367
70
0
0
VERTEX
8
Layer 1
10
79.646098
20
198.220586
70
0
0
SEQEND
8
Layer 1
0
POLYLINE
8
Layer 1
62
7
70
0
10
0.000000
20
0.000000
66
1
0
VERTEX
8
Layer 1
10
97.111221
20
197.396939
70
0
0
VERTEX
8
Layer 1
10
96.897356
20
196.760080
70
0
0
VERTEX
8
Layer 1
10
96.851269
20
196.059472
70
0
0
VERTEX
8
Layer 1
10
96.966114
20
195.427723
70
0
0
VERTEX
8
Layer 1
10
97.235046
20
194.997436
70
0
0
VERTEX
8
Layer 1
10
97.709741
20
194.764405
70
0
0
VERTEX
8
Layer 1
10
98.292585
20
194.667501
70
0
0
VERTEX
8
Layer 1
10
98.921461
20
194.766443
70
0
0
VERTEX
8
Layer 1
10
99.377077
20
195.059580
70
0
0
VERTEX
8
Layer 1
10
99.654249
20
195.541382
70
0
0
VERTEX
8
Layer 1
10
99.747791
20
196.206316
70
0
0
VERTEX
8
Layer 1
10
99.660231
20
196.723429
70
0
0
VERTEX
8
Layer 1
10
99.424045
20
197.171205
70
0
0
VERTEX
8
Layer 1
10
98.664754
20
197.786968
70
0
0
VERTEX
8
Layer 1
10
97.787839
20
197.910061
70
0
0
VERTEX
8
Layer 1
10
97.404623
20
197.741999
70
0
0
VERTEX
8
Layer 1
10
97.111221
20
197.396939
70
0
0
SEQEND
8
Layer 1
0
POLYLINE
8
Layer 1
62
7
70
0
10
0.000000
20
0.000000
66
1
0
VERTEX
8
Layer 1
10
227.320718
20
187.633827
70
0
0
VERTEX
8
Layer 1
10
226.909229
20
187.025348
70
0
0
VERTEX
8
Layer 1
10
226.630718
20
186.221384
70
0
0
VERTEX
8
Layer 1
10
226.515373
20
185.350397
70
0
0
VERTEX
8
Layer 1
10
226.593379
20
184.540852
70
0
0
VERTEX
8
Layer 1
10
226.934162
20
183.950670
70
0
0
VERTEX
8
Layer 1
10
227.566251
20
183.398217
70
0
0
VERTEX
8
Layer 1
10
228.335857
20
182.988985
70
0
0
VERTEX
8
Layer 1
10
229.089191
20
182.828470
70
0
0
VERTEX
8
Layer 1
10
229.786474
20
183.087687
70
0
0
VERTEX
8
Layer 1
10
230.583225
20
183.713567
70
0
0
VERTEX
8
Layer 1
10
231.238192
20
184.475475
70
0
0
VERTEX
8
Layer 1
10
231.510125
20
185.142778
70
0
0
VERTEX
8
Layer 1
10
231.185713
20
186.538023
70
0
0
VERTEX
8
Layer 1
10
230.849441
20
187.134579
70
0
0
VERTEX
8
Layer 1
10
230.458672
20
187.524289
70
0
0
VERTEX
8
Layer 1
10
228.905041
20
188.010858
70
0
0
VERTEX
8
Layer 1
10
227.962563
20
188.036952
70
0
0
VERTEX
8
Layer 1
10
227.320718
20
187.633827
70
0
0
SEQEND
8
Layer 1
0
POLYLINE
8
Layer 1
62
7
70
0
10
0.000000
20
0.000000
66
1
0
VERTEX
8
Layer 1
10
70.445224
20
182.610454
70
0
0
VERTEX
8
Layer 1
10
69.987111
20
182.422211
70
0
0
VERTEX
8
Layer 1
10
69.889236
20
182.051655
70
0
0
VERTEX
8
Layer 1
10
70.148200
20
181.517982
70
0
0
VERTEX
8
Layer 1
10
70.760607
20
180.840394
70
0
0
VERTEX
8
Layer 1
10
71.480499
20
180.287485
70
0
0
VERTEX
8
Layer 1
10
72.233404
20
179.933482
70
0
0
VERTEX
8
Layer 1
10
72.989775
20
179.773321
70
0
0
VERTEX
8
Layer 1
10
73.720067
20
179.801938
70
0
0
VERTEX
8
Layer 1
10
74.394734
20
180.014272
70
0
0
VERTEX
8
Layer 1
10
74.984232
20
180.405258
70
0
0
VERTEX
8
Layer 1
10
75.459014
20
180.969833
70
0
0
VERTEX
8
Layer 1
10
75.789536
20
181.702934
70
0
0
VERTEX
8
Layer 1
10
75.821881
20
182.189668
70
0
0
VERTEX
8
Layer 1
10
75.357736
20
182.314650
70
0
0
VERTEX
8
Layer 1
10
72.892617
20
182.513087
70
0
0
VERTEX
8
Layer 1
10
70.445224
20
182.610454
70
0
0
SEQEND
8
Layer 1
0
POLYLINE
8
Layer 1
62
7
70
0
10
0.000000
20
0.000000
66
1
0
VERTEX
8
Layer 1
10
57.675919
20
181.796597
70
0
0
VERTEX
8
Layer 1
10
56.688793
20
180.955818
70
0
0
VERTEX
8
Layer 1
10
55.917765
20
180.010661
70
0
0
VERTEX
8
Layer 1
10
55.354315
20
178.578846
70
0
0
VERTEX
8
Layer 1
10
55.307389
20
177.852740
70
0
0
VERTEX
8
Layer 1
10
55.420580
20
177.105805
70
0
0
VERTEX
8
Layer 1
10
56.138068
20
175.507351
70
0
0
VERTEX
8
Layer 1
10
57.528282
20
173.699298
70
0
0
VERTEX
8
Layer 1
10
58.709909
20
172.376384
70
0
0
VERTEX
8
Layer 1
10
59.958477
20
175.022214
70
0
0
VERTEX
8
Layer 1
10
60.940212
20
177.380343
70
0
0
VERTEX
8
Layer 1
10
61.229004
20
178.990959
70
0
0
VERTEX
8
Layer 1
10
61.152874
20
180.142568
70
0
0
VERTEX
8
Layer 1
10
60.894604
20
181.098990
70
0
0
VERTEX
8
Layer 1
10
60.470689
20
181.819619
70
0
0
VERTEX
8
Layer 1
10
59.897622
20
182.263850
70
0
0
VERTEX
8
Layer 1
10
59.354549
20
182.485223
70
0
0
VERTEX
8
Layer 1
10
58.935996
20
182.509053
70
0
0
VERTEX
8
Layer 1
10
57.675919
20
181.796597
70
0
0
SEQEND
8
Layer 1
0
POLYLINE
8
Layer 1
62
7
70
0
10
0.000000
20
0.000000
66
1
0
VERTEX
8
Layer 1
10
224.257640
20
168.254974
70
0
0
VERTEX
8
Layer 1
10
223.844237
20
167.633716
70
0
0
VERTEX
8
Layer 1
10
223.630112
20
167.010963
70
0
0
VERTEX
8
Layer 1
10
223.605686
20
166.407843
70
0
0
VERTEX
8
Layer 1
10
223.761382
20
165.845483
70
0
0
VERTEX
8
Layer 1
10
224.087623
20
165.345011
70
0
0
VERTEX
8
Layer 1
10
224.574830
20
164.927553
70
0
0
VERTEX
8
Layer 1
10
225.213426
20
164.614239
70
0
0
VERTEX
8
Layer 1
10
225.993834
20
164.426194
70
0
0
VERTEX
8
Layer 1
10
227.108688
20
164.390409
70
0
0
VERTEX
8
Layer 1
10
227.810196
20
164.840001
70
0
0
VERTEX
8
Layer 1
10
228.267528
20
165.575575
70
0
0
VERTEX
8
Layer 1
10
228.278773
20
166.834428
70
0
0
VERTEX
8
Layer 1
10
228.111007
20
167.969072
70
0
0
VERTEX
8
Layer 1
10
227.774841
20
168.649963
70
0
0
VERTEX
8
Layer 1
10
227.173316
20
168.981755
70
0
0
VERTEX
8
Layer 1
10
226.209469
20
169.069096
70
0
0
VERTEX
8
Layer 1
10
225.045833
20
168.924667
70
0
0
VERTEX
8
Layer 1
10
224.257640
20
168.254974
70
0
0
SEQEND
8
Layer 1
0
POLYLINE
8
Layer 1
62
7
70
0
10
0.000000
20
0.000000
66
1
0
VERTEX
8
Layer 1
10
56.590335
20
165.454628
70
0
0
VERTEX
8
Layer 1
10
52.012520
20
159.321858
70
0
0
VERTEX
8
Layer 1
10
49.940570
20
156.321487
70
0
0
VERTEX
8
Layer 1
10
51.201044
20
155.041699
70
0
0
VERTEX
8
Layer 1
10
52.206732
20
154.133551
70
0
0
VERTEX
8
Layer 1
10
53.030106
20
153.649265
70
0
0
VERTEX
8
Layer 1
10
53.702469
20
153.577232
70
0
0
VERTEX
8
Layer 1
10
54.255125
20
153.905844
70
0
0
VERTEX
8
Layer 1
10
58.454322
20
160.205566
70
0
0
VERTEX
8
Layer 1
10
61.286187
20
164.791715
70
0
0
VERTEX
8
Layer 1
10
61.936338
20
166.037388
70
0
0
VERTEX
8
Layer 1
10
62.119590
20
166.661655
70
0
0
VERTEX
8
Layer 1
10
61.895857
20
167.224667
70
0
0
VERTEX
8
Layer 1
10
61.405448
20
167.744693
70
0
0
VERTEX
8
Layer 1
10
60.719529
20
168.164855
70
0
0
VERTEX
8
Layer 1
10
59.909264
20
168.428276
70
0
0
VERTEX
8
Layer 1
10
59.399909
20
168.448971
70
0
0
VERTEX
8
Layer 1
10
58.857216
20
168.121757
70
0
0
VERTEX
8
Layer 1
10
56.590335
20
165.454628
70
0
0
SEQEND
8
Layer 1
0
POLYLINE
8
Layer 1
62
7
70
0
10
0.000000
20
0.000000
66
1
0
VERTEX
8
Layer 1
10
63.881449
20
163.185299
70
0
0
VERTEX
8
Layer 1
10
61.847872
20
160.539639
70
0
0
VERTEX
8
Layer 1
10
59.067030
20
156.606145
70
0
0
VERTEX
8
Layer 1
10
56.634942
20
152.975219
70
0
0
VERTEX
8
Layer 1
10
55.647626
20
151.237260
70
0
0
VERTEX
8
Layer 1
10
56.065411
20
150.887324
70
0
0
VERTEX
8
Layer 1
10
56.928935
20
150.582086
70
0
0
VERTEX
8
Layer 1
10
58.064219
20
150.366840
70
0
0
VERTEX
8
Layer 1
10
59.297284
20
150.286878
70
0
0
VERTEX
8
Layer 1
10
61.506085
20
150.501405
70
0
0
VERTEX
8
Layer 1
10
63.381288
20
151.136719
70
0
0
VERTEX
8
Layer 1
10
64.929119
20
152.195894
70
0
0
VERTEX
8
Layer 1
10
66.155804
20
153.682007
70
0
0
VERTEX
8
Layer 1
10
66.575313
20
154.416675
70
0
0
VERTEX
8
Layer 1
10
66.808762
20
155.100470
70
0
0
VERTEX
8
Layer 1
10
66.934472
20
157.333517
70
0
0
VERTEX
8
Layer 1
10
66.821280
20
159.285197
70
0
0
VERTEX
8
Layer 1
10
66.500820
20
161.124661
70
0
0
VERTEX
8
Layer 1
10
66.013673
20
162.681054
70
0
0
VERTEX
8
Layer 1
10
65.400420
20
163.783521
70
0
0
VERTEX
8
Layer 1
10
64.924435
20
164.371160
70
0
0
VERTEX
8
Layer 1
10
63.881449
20
163.185299
70
0
0
SEQEND
8
Layer 1
0
POLYLINE
8
Layer 1
62
7
70
0
10
0.000000
20
0.000000
66
1
0
VERTEX
8
Layer 1
10
241.530677
20
160.165613
70
0
0
VERTEX
8
Layer 1
10
240.850360
20
159.173101
70
0
0
VERTEX
8
Layer 1
10
240.541269
20
158.176445
70
0
0
VERTEX
8
Layer 1
10
240.603256
20
157.173986
70
0
0
VERTEX
8
Layer 1
10
241.036171
20
156.164060
70
0
0
VERTEX
8
Layer 1
10
241.854770
20
155.266322
70
0
0
VERTEX
8
Layer 1
10
242.838941
20
154.882685
70
0
0
VERTEX
8
Layer 1
10
243.886264
20
155.025303
70
0
0
VERTEX
8
Layer 1
10
244.894321
20
155.706332
70
0
0
VERTEX
8
Layer 1
10
245.401096
20
156.478649
70
0
0
VERTEX
8
Layer 1
10
245.533024
20
157.630379
70
0
0
VERTEX
8
Layer 1
10
245.389885
20
158.812371
70
0
0
VERTEX
8
Layer 1
10
244.768908
20
159.648089
70
0
0
VERTEX
8
Layer 1
10
243.928965
20
160.228865
70
0
0
VERTEX
8
Layer 1
10
243.005132
20
160.525380
70
0
0
VERTEX
8
Layer 1
10
242.153629
20
160.512631
70
0
0
VERTEX
8
Layer 1
10
241.530677
20
160.165613
70
0
0
SEQEND
8
Layer 1
0
POLYLINE
8
Layer 1
62
7
70
0
10
0.000000
20
0.000000
66
1
0
VERTEX
8
Layer 1
10
244.647729
20
139.749331
70
0
0
VERTEX
8
Layer 1
10
244.198527
20
139.148573
70
0
0
VERTEX
8
Layer 1
10
243.941772
20
138.516630
70
0
0
VERTEX
8
Layer 1
10
243.869489
20
137.878722
70
0
0
VERTEX
8
Layer 1
10
243.973704
20
137.260068
70
0
0
VERTEX
8
Layer 1
10
244.246442
20
136.685889
70
0
0
VERTEX
8
Layer 1
10
244.679727
20
136.181404
70
0
0
VERTEX
8
Layer 1
10
245.265586
20
135.771835
70
0
0
VERTEX
8
Layer 1
10
245.996044
20
135.482401
70
0
0
VERTEX
8
Layer 1
10
246.685118
20
135.349857
70
0
0
VERTEX
8
Layer 1
10
247.258700
20
135.392211
70
0
0
VERTEX
8
Layer 1
10
247.796267
20
135.629480
70
0
0
VERTEX
8
Layer 1
10
248.377291
20
136.081681
70
0
0
VERTEX
8
Layer 1
10
248.845702
20
136.765761
70
0
0
VERTEX
8
Layer 1
10
248.972603
20
137.848302
70
0
0
VERTEX
8
Layer 1
10
248.833623
20
138.865231
70
0
0
VERTEX
8
Layer 1
10
248.402294
20
139.611516
70
0
0
VERTEX
8
Layer 1
10
247.657038
20
140.110003
70
0
0
VERTEX
8
Layer 1
10
246.576275
20
140.383536
70
0
0
VERTEX
8
Layer 1
10
245.468929
20
140.388299
70
0
0
VERTEX
8
Layer 1
10
244.647729
20
139.749331
70
0
0
SEQEND
8
Layer 1
0
POLYLINE
8
Layer 1
62
7
70
0
10
0.000000
20
0.000000
66
1
0
VERTEX
8
Layer 1
10
38.503706
20
138.126114
70
0
0
VERTEX
8
Layer 1
10
38.186433
20
137.377861
70
0
0
VERTEX
8
Layer 1
10
38.154291
20
136.840472
70
0
0
VERTEX
8
Layer 1
10
38.425311
20
136.443131
70
0
0
VERTEX
8
Layer 1
10
39.017526
20
136.115019
70
0
0
VERTEX
8
Layer 1
10
39.982237
20
135.822543
70
0
0
VERTEX
8
Layer 1
10
40.881315
20
135.730613
70
0
0
VERTEX
8
Layer 1
10
41.545145
20
135.837566
70
0
0
VERTEX
8
Layer 1
10
41.804114
20
136.141742
70
0
0
VERTEX
8
Layer 1
10
41.667081
20
136.776700
70
0
0
VERTEX
8
Layer 1
10
41.307128
20
137.458836
70
0
0
VERTEX
8
Layer 1
10
40.800976
20
138.073305
70
0
0
VERTEX
8
Layer 1
10
40.225347
20
138.505262
70
0
0
VERTEX
8
Layer 1
10
39.568532
20
138.805663
70
0
0
VERTEX
8
Layer 1
10
39.135232
20
138.858612
70
0
0
VERTEX
8
Layer 1
10
38.816579
20
138.640100
70
0
0
VERTEX
8
Layer 1
10
38.503706
20
138.126114
70
0
0
SEQEND
8
Layer 1
0
POLYLINE
8
Layer 1
62
7
70
0
10
0.000000
20
0.000000
66
1
0
VERTEX
8
Layer 1
10
58.063269
20
138.206547
70
0
0
VERTEX
8
Layer 1
10
57.414511
20
137.169911
70
0
0
VERTEX
8
Layer 1
10
57.253909
20
136.414791
70
0
0
VERTEX
8
Layer 1
10
57.223817
20
136.203340
70
0
0
VERTEX
8
Layer 1
10
57.367184
20
136.076324
70
0
0
VERTEX
8
Layer 1
10
58.378387
20
136.000190
70
0
0
VERTEX
8
Layer 1
10
59.394683
20
136.059626
70
0
0
VERTEX
8
Layer 1
10
60.003786
20
136.275654
70
0
0
VERTEX
8
Layer 1
10
60.300053
20
136.716759
70
0
0
VERTEX
8
Layer 1
10
60.377841
20
137.451427
70
0
0
VERTEX
8
Layer 1
10
60.173984
20
138.404786
70
0
0
VERTEX
8
Layer 1
10
59.641341
20
138.874156
70
0
0
VERTEX
8
Layer 1
10
58.898305
20
138.820942
70
0
0
VERTEX
8
Layer 1
10
58.063269
20
138.206547
70
0
0
SEQEND
8
Layer 1
0
POLYLINE
8
Layer 1
62
7
70
0
10
0.000000
20
0.000000
66
1
0
VERTEX
8
Layer 1
10
230.854488
20
136.345471
70
0
0
VERTEX
8
Layer 1
10
230.082452
20
135.430067
70
0
0
VERTEX
8
Layer 1
10
229.756204
20
134.656869
70
0
0
VERTEX
8
Layer 1
10
229.856002
20
133.891558
70
0
0
VERTEX
8
Layer 1
10
230.362099
20
132.999819
70
0
0
VERTEX
8
Layer 1
10
231.339634
20
131.984527
70
0
0
VERTEX
8
Layer 1
10
232.406069
20
131.542595
70
0
0
VERTEX
8
Layer 1
10
233.501178
20
131.682431
70
0
0
VERTEX
8
Layer 1
10
234.564736
20
132.412444
70
0
0
VERTEX
8
Layer 1
10
234.988380
20
132.940168
70
0
0
VERTEX
8
Layer 1
10
235.255686
20
133.506813
70
0
0
VERTEX
8
Layer 1
10
235.369737
20
134.095814
70
0
0
VERTEX
8
Layer 1
10
235.333614
20
134.690603
70
0
0
VERTEX
8
Layer 1
10
234.823175
20
135.831282
70
0
0
VERTEX
8
Layer 1
10
233.749026
20
136.796320
70
0
0
VERTEX
8
Layer 1
10
232.936591
20
137.196915
70
0
0
VERTEX
8
Layer 1
10
232.249767
20
137.265624
70
0
0
VERTEX
8
Layer 1
10
231.588938
20
136.986969
70
0
0
VERTEX
8
Layer 1
10
230.854488
20
136.345471
70
0
0
SEQEND
8
Layer 1
0
POLYLINE
8
Layer 1
62
7
70
0
10
0.000000
20
0.000000
66
1
0
VERTEX
8
Layer 1
10
44.449944
20
125.809776
70
0
0
VERTEX
8
Layer 1
10
44.449944
20
118.004577
70
0
0
VERTEX
8
Layer 1
10
49.304777
20
118.004577
70
0
0
VERTEX
8
Layer 1
10
54.159611
20
118.004577
70
0
0
VERTEX
8
Layer 1
10
54.330532
20
120.584261
70
0
0
VERTEX
8
Layer 1
10
54.502775
20
128.389460
70
0
0
VERTEX
8
Layer 1
10
54.504098
20
133.614974
70
0
0
VERTEX
8
Layer 1
10
49.477021
20
133.614974
70
0
0
VERTEX
8
Layer 1
10
44.449944
20
133.614974
70
0
0
VERTEX
8
Layer 1
10
44.449944
20
125.809776
70
0
0
SEQEND
8
Layer 1
0
POLYLINE
8
Layer 1
62
7
70
0
10
0.000000
20
0.000000
66
1
0
VERTEX
8
Layer 1
10
246.225173
20
121.799491
70
0
0
VERTEX
8
Layer 1
10
245.685159
20
121.129401
70
0
0
VERTEX
8
Layer 1
10
245.373745
20
120.505151
70
0
0
VERTEX
8
Layer 1
10
245.383807
20
119.872599
70
0
0
VERTEX
8
Layer 1
10
245.641966
20
119.138844
70
0
0
VERTEX
8
Layer 1
10
246.084771
20
118.434061
70
0
0
VERTEX
8
Layer 1
10
246.648771
20
117.888425
70
0
0
VERTEX
8
Layer 1
10
247.269810
20
117.581302
70
0
0
VERTEX
8
Layer 1
10
247.925512
20
117.475841
70
0
0
VERTEX
8
Layer 1
10
248.579669
20
117.552595
70
0
0
VERTEX
8
Layer 1
10
249.196076
20
117.792117
70
0
0
VERTEX
8
Layer 1
10
249.738529
20
118.174960
70
0
0
VERTEX
8
Layer 1
10
250.170821
20
118.681678
70
0
0
VERTEX
8
Layer 1
10
250.456747
20
119.292823
70
0
0
VERTEX
8
Layer 1
10
250.560101
20
119.988950
70
0
0
VERTEX
8
Layer 1
10
250.437645
20
120.763794
70
0
0
VERTEX
8
Layer 1
10
250.101546
20
121.421096
70
0
0
VERTEX
8
Layer 1
10
249.598710
20
121.941265
70
0
0
VERTEX
8
Layer 1
10
248.976043
20
122.304712
70
0
0
VERTEX
8
Layer 1
10
248.280450
20
122.491848
70
0
0
VERTEX
8
Layer 1
10
247.558837
20
122.483082
70
0
0
VERTEX
8
Layer 1
10
246.858109
20
122.258827
70
0
0
VERTEX
8
Layer 1
10
246.225173
20
121.799491
70
0
0
SEQEND
8
Layer 1
0
POLYLINE
8
Layer 1
62
7
70
0
10
0.000000
20
0.000000
66
1
0
VERTEX
8
Layer 1
10
39.566271
20
114.758408
70
0
0
VERTEX
8
Layer 1
10
38.883717
20
114.006083
70
0
0
VERTEX
8
Layer 1
10
38.538730
20
113.356846
70
0
0
VERTEX
8
Layer 1
10
38.521313
20
112.776764
70
0
0
VERTEX
8
Layer 1
10
38.821470
20
112.231905
70
0
0
VERTEX
8
Layer 1
10
39.414934
20
111.724427
70
0
0
VERTEX
8
Layer 1
10
40.062992
20
111.495901
70
0
0
VERTEX
8
Layer 1
10
40.701278
20
111.554812
70
0
0
VERTEX
8
Layer 1
10
41.265423
20
111.909643
70
0
0
VERTEX
8
Layer 1
10
41.704002
20
112.628680
70
0
0
VERTEX
8
Layer 1
10
41.751462
20
113.821784
70
0
0
VERTEX
8
Layer 1
10
41.573629
20
114.958102
70
0
0
VERTEX
8
Layer 1
10
41.377569
20
115.225381
70
0
0
VERTEX
8
Layer 1
10
41.066986
20
115.390762
70
0
0
VERTEX
8
Layer 1
10
40.404933
20
115.400915
70
0
0
VERTEX
8
Layer 1
10
39.566271
20
114.758408
70
0
0
SEQEND
8
Layer 1
0
POLYLINE
8
Layer 1
62
7
70
0
10
0.000000
20
0.000000
66
1
0
VERTEX
8
Layer 1
10
57.030866
20
115.416162
70
0
0
VERTEX
8
Layer 1
10
56.851094
20
114.711201
70
0
0
VERTEX
8
Layer 1
10
57.044855
20
113.665846
70
0
0
VERTEX
8
Layer 1
10
57.491972
20
112.663998
70
0
0
VERTEX
8
Layer 1
10
58.072264
20
112.089559
70
0
0
VERTEX
8
Layer 1
10
58.443874
20
112.081610
70
0
0
VERTEX
8
Layer 1
10
58.800124
20
112.301689
70
0
0
VERTEX
8
Layer 1
10
59.367993
20
113.180964
70
0
0
VERTEX
8
Layer 1
10
59.578775
20
114.237444
70
0
0
VERTEX
8
Layer 1
10
59.488665
20
114.679029
70
0
0
VERTEX
8
Layer 1
10
59.235371
20
114.981187
70
0
0
VERTEX
8
Layer 1
10
58.021001
20
115.366255
70
0
0
VERTEX
8
Layer 1
10
57.030866
20
115.416162
70
0
0
SEQEND
8
Layer 1
0
POLYLINE
8
Layer 1
62
7
70
0
10
0.000000
20
0.000000
66
1
0
VERTEX
8
Layer 1
10
242.518365
20
104.417975
70
0
0
VERTEX
8
Layer 1
10
241.621293
20
103.332056
70
0
0
VERTEX
8
Layer 1
10
241.408021
20
102.807736
70
0
0
VERTEX
8
Layer 1
10
241.352050
20
102.285205
70
0
0
VERTEX
8
Layer 1
10
241.713392
20
101.213598
70
0
0
VERTEX
8
Layer 1
10
242.708071
20
100.053414
70
0
0
VERTEX
8
Layer 1
10
243.383362
20
99.647230
70
0
0
VERTEX
8
Layer 1
10
244.149784
20
99.598927
70
0
0
VERTEX
8
Layer 1
10
244.998757
20
99.907116
70
0
0
VERTEX
8
Layer 1
10
245.921696
20
100.570409
70
0
0
VERTEX
8
Layer 1
10
246.576556
20
101.272824
70
0
0
VERTEX
8
Layer 1
10
246.929890
20
101.971542
70
0
0
VERTEX
8
Layer 1
10
246.985370
20
102.679041
70
0
0
VERTEX
8
Layer 1
10
246.746666
20
103.407797
70
0
0
VERTEX
8
Layer 1
10
245.986784
20
104.439837
70
0
0
VERTEX
8
Layer 1
10
244.680802
20
105.158543
70
0
0
VERTEX
8
Layer 1
10
243.737035
20
105.552772
70
0
0
VERTEX
8
Layer 1
10
242.518365
20
104.417975
70
0
0
SEQEND
8
Layer 1
0
POLYLINE
8
Layer 1
62
7
70
0
10
0.000000
20
0.000000
66
1
0
VERTEX
8
Layer 1
10
45.635540
20
97.562630
70
0
0
VERTEX
8
Layer 1
10
44.091566
20
95.942985
70
0
0
VERTEX
8
Layer 1
10
43.323085
20
94.558290
70
0
0
VERTEX
8
Layer 1
10
42.872140
20
92.655335
70
0
0
VERTEX
8
Layer 1
10
42.935105
20
91.944602
70
0
0
VERTEX
8
Layer 1
10
43.207628
20
91.371255
70
0
0
VERTEX
8
Layer 1
10
43.702661
20
90.917964
70
0
0
VERTEX
8
Layer 1
10
44.433155
20
90.567394
70
0
0
VERTEX
8
Layer 1
10
46.652333
20
90.105093
70
0
0
VERTEX
8
Layer 1
10
48.193529
20
89.915652
70
0
0
VERTEX
8
Layer 1
10
48.012025
20
93.707656
70
0
0
VERTEX
8
Layer 1
10
47.657748
20
98.387070
70
0
0
VERTEX
8
Layer 1
10
47.484976
20
99.274746
70
0
0
VERTEX
8
Layer 1
10
45.635540
20
97.562630
70
0
0
SEQEND
8
Layer 1
0
POLYLINE
8
Layer 1
62
7
70
0
10
0.000000
20
0.000000
66
1
0
VERTEX
8
Layer 1
10
242.453013
20
86.872418
70
0
0
VERTEX
8
Layer 1
10
241.808737
20
86.165002
70
0
0
VERTEX
8
Layer 1
10
241.474916
20
85.511833
70
0
0
VERTEX
8
Layer 1
10
241.437263
20
84.862683
70
0
0
VERTEX
8
Layer 1
10
241.681489
20
84.167322
70
0
0
VERTEX
8
Layer 1
10
242.154638
20
83.458715
70
0
0
VERTEX
8
Layer 1
10
242.736779
20
82.953580
70
0
0
VERTEX
8
Layer 1
10
243.429250
20
82.651100
70
0
0
VERTEX
8
Layer 1
10
244.233392
20
82.550455
70
0
0
VERTEX
8
Layer 1
10
245.187367
20
82.698820
70
0
0
VERTEX
8
Layer 1
10
245.931916
20
83.136308
70
0
0
VERTEX
8
Layer 1
10
246.454463
20
83.851509
70
0
0
VERTEX
8
Layer 1
10
246.742433
20
84.833013
70
0
0
VERTEX
8
Layer 1
10
246.781194
20
85.950446
70
0
0
VERTEX
8
Layer 1
10
246.259569
20
86.706525
70
0
0
VERTEX
8
Layer 1
10
245.468863
20
87.235988
70
0
0
VERTEX
8
Layer 1
10
244.431300
20
87.502126
70
0
0
VERTEX
8
Layer 1
10
243.328155
20
87.478181
70
0
0
VERTEX
8
Layer 1
10
242.453013
20
86.872418
70
0
0
SEQEND
8
Layer 1
0
POLYLINE
8
Layer 1
62
7
70
0
10
0.000000
20
0.000000
66
1
0
VERTEX
8
Layer 1
10
55.516128
20
86.509146
70
0
0
VERTEX
8
Layer 1
10
55.060446
20
86.030366
70
0
0
VERTEX
8
Layer 1
10
54.758131
20
85.302449
70
0
0
VERTEX
8
Layer 1
10
54.650135
20
84.480175
70
0
0
VERTEX
8
Layer 1
10
54.777412
20
83.718324
70
0
0
VERTEX
8
Layer 1
10
55.053591
20
83.134749
70
0
0
VERTEX
8
Layer 1
10
55.426534
20
82.776574
70
0
0
VERTEX
8
Layer 1
10
56.038543
20
82.560927
70
0
0
VERTEX
8
Layer 1
10
57.031924
20
82.404934
70
0
0
VERTEX
8
Layer 1
10
58.200223
20
82.383346
70
0
0
VERTEX
8
Layer 1
10
59.242118
20
82.609457
70
0
0
VERTEX
8
Layer 1
10
60.105816
20
83.064763
70
0
0
VERTEX
8
Layer 1
10
60.739526
20
83.730760
70
0
0
VERTEX
8
Layer 1
10
60.984335
20
84.141641
70
0
0
VERTEX
8
Layer 1
10
61.032320
20
84.442091
70
0
0
VERTEX
8
Layer 1
10
60.429170
20
85.240735
70
0
0
VERTEX
8
Layer 1
10
59.638265
20
85.922962
70
0
0
VERTEX
8
Layer 1
10
58.812038
20
86.419452
70
0
0
VERTEX
8
Layer 1
10
57.973277
20
86.663741
70
0
0
VERTEX
8
Layer 1
10
57.037480
20
86.763046
70
0
0
VERTEX
8
Layer 1
10
56.164985
20
86.712978
70
0
0
VERTEX
8
Layer 1
10
55.516128
20
86.509146
70
0
0
SEQEND
8
Layer 1
0
POLYLINE
8
Layer 1
62
7
70
0
10
0.000000
20
0.000000
66
1
0
VERTEX
8
Layer 1
10
218.004221
20
77.551953
70
0
0
VERTEX
8
Layer 1
10
217.468990
20
76.779027
70
0
0
VERTEX
8
Layer 1
10
217.221221
20
75.881806
70
0
0
VERTEX
8
Layer 1
10
217.272546
20
74.967370
70
0
0
VERTEX
8
Layer 1
10
217.634599
20
74.142801
70
0
0
VERTEX
8
Layer 1
10
217.902770
20
73.843620
70
0
0
VERTEX
8
Layer 1
10
218.252202
20
73.664468
70
0
0
VERTEX
8
Layer 1
10
219.559969
20
73.554633
70
0
0
VERTEX
8
Layer 1
10
220.759245
20
73.649577
70
0
0
VERTEX
8
Layer 1
10
221.597291
20
73.940329
70
0
0
VERTEX
8
Layer 1
10
222.089114
20
74.435769
70
0
0
VERTEX
8
Layer 1
10
222.249720
20
75.144777
70
0
0
VERTEX
8
Layer 1
10
222.077861
20
76.215296
70
0
0
VERTEX
8
Layer 1
10
221.564417
20
77.076563
70
0
0
VERTEX
8
Layer 1
10
220.712588
20
77.725007
70
0
0
VERTEX
8
Layer 1
10
219.525573
20
78.157054
70
0
0
VERTEX
8
Layer 1
10
218.777498
20
78.145214
70
0
0
VERTEX
8
Layer 1
10
218.004221
20
77.551953
70
0
0
SEQEND
8
Layer 1
0
POLYLINE
8
Layer 1
62
7
70
0
10
0.000000
20
0.000000
66
1
0
VERTEX
8
Layer 1
10
232.331391
20
71.031834
70
0
0
VERTEX
8
Layer 1
10
231.796052
20
70.317014
70
0
0
VERTEX
8
Layer 1
10
231.556659
20
69.678095
70
0
0
VERTEX
8
Layer 1
10
231.599194
20
69.022508
70
0
0
VERTEX
8
Layer 1
10
231.909645
20
68.257681
70
0
0
VERTEX
8
Layer 1
10
232.328236
20
67.631327
70
0
0
VERTEX
8
Layer 1
10
232.854306
20
67.225113
70
0
0
VERTEX
8
Layer 1
10
233.552966
20
67.005778
70
0
0
VERTEX
8
Layer 1
10
234.489330
20
66.940058
70
0
0
VERTEX
8
Layer 1
10
235.558509
20
67.092388
70
0
0
VERTEX
8
Layer 1
10
236.284393
20
67.557826
70
0
0
VERTEX
8
Layer 1
10
236.678291
20
68.349049
70
0
0
VERTEX
8
Layer 1
10
236.751514
20
69.478732
70
0
0
VERTEX
8
Layer 1
10
236.528868
20
70.642566
70
0
0
VERTEX
8
Layer 1
10
235.770440
20
71.363092
70
0
0
VERTEX
8
Layer 1
10
234.803720
20
71.852955
70
0
0
VERTEX
8
Layer 1
10
233.917764
20
71.961943
70
0
0
VERTEX
8
Layer 1
10
233.098384
20
71.688690
70
0
0
VERTEX
8
Layer 1
10
232.331391
20
71.031834
70
0
0
SEQEND
8
Layer 1
0
POLYLINE
8
Layer 1
62
7
70
0
10
0.000000
20
0.000000
66
1
0
VERTEX
8
Layer 1
10
210.356714
20
50.767951
70
0
0
VERTEX
8
Layer 1
10
209.872259
20
49.823634
70
0
0
VERTEX
8
Layer 1
10
209.543750
20
48.856571
70
0
0
VERTEX
8
Layer 1
10
209.393983
20
47.955736
70
0
0
VERTEX
8
Layer 1
10
209.445755
20
47.210104
70
0
0
VERTEX
8
Layer 1
10
209.810148
20
46.567262
70
0
0
VERTEX
8
Layer 1
10
210.534481
20
46.143867
70
0
0
VERTEX
8
Layer 1
10
211.633414
20
45.934834
70
0
0
VERTEX
8
Layer 1
10
213.121607
20
45.935078
70
0
0
VERTEX
8
Layer 1
10
214.745154
20
46.149688
70
0
0
VERTEX
8
Layer 1
10
215.194482
20
46.370065
70
0
0
VERTEX
8
Layer 1
10
215.568999
20
46.719302
70
0
0
VERTEX
8
Layer 1
10
215.959267
20
47.234404
70
0
0
VERTEX
8
Layer 1
10
216.128328
20
47.729612
70
0
0
VERTEX
8
Layer 1
10
216.092799
20
48.342494
70
0
0
VERTEX
8
Layer 1
10
215.869301
20
49.210616
70
0
0
VERTEX
8
Layer 1
10
215.394639
20
50.113009
70
0
0
VERTEX
8
Layer 1
10
214.389753
20
50.771126
70
0
0
VERTEX
8
Layer 1
10
213.215335
20
51.223795
70
0
0
VERTEX
8
Layer 1
10
212.055602
20
51.504021
70
0
0
VERTEX
8
Layer 1
10
210.992639
20
51.509644
70
0
0
VERTEX
8
Layer 1
10
210.688468
20
51.261283
70
0
0
VERTEX
8
Layer 1
10
210.356714
20
50.767951
70
0
0
SEQEND
8
Layer 1
0
POLYLINE
8
Layer 1
62
7
70
0
10
0.000000
20
0.000000
66
1
0
VERTEX
8
Layer 1
10
103.237641
20
28.901225
70
0
0
VERTEX
8
Layer 1
10
102.845235
20
28.473800
70
0
0
VERTEX
8
Layer 1
10
102.565662
20
27.929750
70
0
0
VERTEX
8
Layer 1
10
102.344508
20
26.653923
70
0
0
VERTEX
8
Layer 1
10
102.573161
20
25.398038
70
0
0
VERTEX
8
Layer 1
10
102.855848
20
24.878917
70
0
0
VERTEX
8
Layer 1
10
103.250605
20
24.486393
70
0
0
VERTEX
8
Layer 1
10
103.962499
20
24.197667
70
0
0
VERTEX
8
Layer 1
10
104.853978
20
24.077612
70
0
0
VERTEX
8
Layer 1
10
105.536361
20
24.161200
70
0
0
VERTEX
8
Layer 1
10
106.131670
20
24.398154
70
0
0
VERTEX
8
Layer 1
10
106.627296
20
24.767764
70
0
0
VERTEX
8
Layer 1
10
107.010627
20
25.249318
70
0
0
VERTEX
8
Layer 1
10
107.269055
20
25.822103
70
0
0
VERTEX
8
Layer 1
10
107.389969
20
26.465407
70
0
0
VERTEX
8
Layer 1
10
107.360759
20
27.158520
70
0
0
VERTEX
8
Layer 1
10
107.168815
20
27.880728
70
0
0
VERTEX
8
Layer 1
10
106.907297
20
28.318734
70
0
0
VERTEX
8
Layer 1
10
106.504674
20
28.687619
70
0
0
VERTEX
8
Layer 1
10
105.426966
20
29.178871
70
0
0
VERTEX
8
Layer 1
10
104.237388
20
29.276176
70
0
0
VERTEX
8
Layer 1
10
103.694930
20
29.152627
70
0
0
VERTEX
8
Layer 1
10
103.237641
20
28.901225
70
0
0
SEQEND
8
Layer 1
0
POLYLINE
8
Layer 1
62
7
70
0
10
0.000000
20
0.000000
66
1
0
VERTEX
8
Layer 1
10
122.372812
20
26.931669
70
0
0
VERTEX
8
Layer 1
10
121.432836
20
26.061253
70
0
0
VERTEX
8
Layer 1
10
120.943436
20
24.935225
70
0
0
VERTEX
8
Layer 1
10
120.952957
20
23.782953
70
0
0
VERTEX
8
Layer 1
10
121.159920
20
23.268654
70
0
0
VERTEX
8
Layer 1
10
121.509743
20
22.833807
70
0
0
VERTEX
8
Layer 1
10
122.190803
20
22.315472
70
0
0
VERTEX
8
Layer 1
10
122.859604
20
22.000032
70
0
0
VERTEX
8
Layer 1
10
123.500958
20
21.882918
70
0
0
VERTEX
8
Layer 1
10
124.099680
20
21.959559
70
0
0
VERTEX
8
Layer 1
10
124.640581
20
22.225385
70
0
0
VERTEX
8
Layer 1
10
125.108477
20
22.675826
70
0
0
VERTEX
8
Layer 1
10
125.488179
20
23.306312
70
0
0
VERTEX
8
Layer 1
10
125.764502
20
24.112272
70
0
0
VERTEX
8
Layer 1
10
125.830771
20
24.850183
70
0
0
VERTEX
8
Layer 1
10
125.683713
20
25.538863
70
0
0
VERTEX
8
Layer 1
10
125.359960
20
26.147857
70
0
0
VERTEX
8
Layer 1
10
124.896141
20
26.646713
70
0
0
VERTEX
8
Layer 1
10
124.328886
20
27.004976
70
0
0
VERTEX
8
Layer 1
10
123.694826
20
27.192192
70
0
0
VERTEX
8
Layer 1
10
123.030592
20
27.177908
70
0
0
VERTEX
8
Layer 1
10
122.372812
20
26.931669
70
0
0
SEQEND
8
Layer 1
 0 
ENDSEC
 0 
EOF