<svg id="mainSvg" xmlns="http://www.w3.org/2000/svg" width="1045" height="927" viewBox="0 0 1045 927" version="1.1"><path id="mypath" d="M 507.500 64.664 C 496.302 66.402, 482.294 71.928, 473.325 78.145 C 470.671 79.985, 465.609 82.879, 462.076 84.576 L 455.652 87.662 449.576 81.492 C 443.036 74.852, 439.821 73.525, 432.935 74.626 C 430.628 74.995, 427.451 76.634, 425.038 78.700 L 421 82.156 421 90.055 C 421 97.145, 420.769 98.104, 418.750 99.422 C 415.638 101.454, 390.727 111.101, 371.526 117.712 C 357.157 122.659, 355.048 123.136, 350.526 122.464 C 347.762 122.053, 342.487 121.668, 338.804 121.608 C 332.468 121.506, 331.918 121.684, 328.573 124.928 C 324.452 128.924, 323.526 131.488, 322.066 142.944 C 321.475 147.588, 320.062 153.306, 318.927 155.650 C 316.261 161.159, 310.757 166, 307.162 166 C 302.640 166, 294.135 170.839, 291.404 174.965 C 289.996 177.094, 288.680 180.909, 288.327 183.887 C 287.761 188.667, 287.945 189.336, 290.605 192.134 C 296.939 198.796, 301.582 199.259, 308.901 193.957 C 311.852 191.819, 313.823 189.087, 316.330 183.662 C 318.206 179.601, 320.224 175.980, 320.814 175.615 C 322.598 174.512, 328.829 181.652, 330.055 186.203 C 332.120 193.873, 327.772 201.525, 318.725 206.140 C 314.889 208.097, 313.012 208.336, 281.438 210.877 C 273.661 211.503, 269.186 212.375, 266.369 213.812 C 262.023 216.029, 256.551 221.723, 253.713 226.981 L 251.925 230.292 235.899 229.588 C 220.786 228.924, 219.621 229.005, 215.458 231.020 C 209.667 233.824, 202.335 242.046, 200.903 247.343 C 200.285 249.629, 200.031 253.954, 200.339 256.952 C 200.813 261.581, 201.903 263.877, 207.558 272.157 L 214.219 281.910 211.939 285.705 C 207.284 293.454, 194.513 311.762, 188.135 319.831 C 181.368 328.391, 177.557 331, 171.821 331 C 165.913 331, 160.024 333.183, 157.328 336.372 C 151.735 342.989, 150.734 347.070, 149.923 366.573 C 148.984 389.181, 148.329 391.777, 142.320 396.701 C 137.270 400.839, 135 405.066, 135 410.333 C 135 416.952, 140.866 421.090, 152.268 422.514 L 158 423.230 158 435.115 L 158 447 127.158 447 C 110.195 447, 90.170 447.295, 82.658 447.655 L 69 448.310 69 452.305 L 69 456.300 113.500 455.761 L 158 455.222 158 467.953 L 158 480.683 153.750 481.953 C 142.167 485.414, 137 490.418, 137 498.176 C 137 504.406, 139.258 509.333, 143.651 512.683 C 146.510 514.863, 147.769 515.181, 151.968 514.777 C 155.297 514.457, 158.094 513.403, 160.520 511.553 C 164.483 508.530, 165.624 506.224, 167.226 498 C 167.816 494.975, 168.736 491.938, 169.271 491.250 C 170.862 489.208, 174.820 489.795, 176.473 492.319 C 178.507 495.423, 180.507 522.748, 179.546 534.290 L 178.824 542.961 172.337 546.155 C 160.354 552.054, 152.995 564.089, 153.004 577.771 C 153.011 588.578, 159.097 593.632, 173.406 594.714 C 182.326 595.389, 187.285 593.490, 188.930 588.770 C 189.519 587.082, 190.045 580.256, 190.099 573.601 C 190.153 566.945, 190.491 559.025, 190.849 556 L 191.500 550.500 197.896 550.198 C 214.799 549.402, 229.066 557.543, 234.033 570.818 C 236.422 577.202, 238.480 590.951, 237.583 594.527 C 236.768 597.774, 233.207 597.803, 228.229 594.605 C 222.651 591.021, 217.392 589.680, 211.363 590.302 C 201.946 591.274, 197.219 596.493, 196.269 606.965 C 195.547 614.933, 198.398 620.404, 204.734 623.206 C 210.932 625.948, 220.430 625.323, 228.465 621.645 C 231.642 620.190, 235.043 619, 236.022 619 C 239.137 619, 265 661.394, 265 666.500 C 265 667.886, 263.929 669.450, 262.250 670.517 C 251.416 677.401, 242.961 686.235, 238.142 695.710 C 233.246 705.335, 236.101 719.033, 246.282 734.768 C 250.950 741.980, 261.041 753.416, 264.257 755.137 C 267.468 756.856, 281.363 756.241, 287.420 754.113 C 292.345 752.381, 313.235 739.269, 327 729.268 L 332.500 725.272 347.575 732.386 C 355.866 736.299, 365.316 741.011, 368.575 742.857 C 376.292 747.230, 390.953 758.188, 390.980 759.602 C 390.991 760.209, 388.258 762.859, 384.907 765.492 C 376.860 771.814, 369.027 781.454, 363.848 791.409 C 360.242 798.340, 359.582 800.569, 359.234 806.998 C 358.605 818.616, 362.905 826.272, 372.465 830.557 C 375.234 831.798, 379.525 834.932, 382 837.521 C 391.328 847.280, 400.093 847.424, 410.510 837.991 C 416.928 832.179, 420.535 831.246, 430.448 832.830 C 442.158 834.702, 444.997 835.812, 446.837 839.236 C 449.629 844.431, 454.904 849.775, 459.379 851.942 C 471.133 857.631, 482.831 850.481, 483.805 837.012 C 484.323 829.855, 482.867 825.226, 478.423 819.908 C 476.541 817.655, 475 815.008, 475 814.027 C 475 811.048, 482.072 809.900, 504 809.319 C 527.599 808.693, 536.562 809.796, 549.500 814.919 C 557.560 818.110, 563.712 822.695, 587.361 843.136 C 591.584 846.786, 598.225 851.447, 602.120 853.493 C 608.634 856.917, 609.732 857.183, 615.850 856.822 C 625.037 856.281, 630.691 853.191, 639.236 844.040 C 647.793 834.878, 652.955 828.219, 660.586 816.500 C 673.378 796.854, 682.764 792.801, 691.479 803.157 C 692.973 804.933, 695.252 808.775, 696.543 811.693 C 698.480 816.073, 699.329 817, 701.405 817 C 704.841 817, 707.906 813.415, 714.161 802.076 C 733.047 767.841, 754.323 745.491, 778.335 734.664 L 784.170 732.033 783.503 735.980 C 780.337 754.723, 786.805 763.385, 803.946 763.356 C 812.396 763.341, 815.761 762.047, 820.828 756.865 C 825.105 752.490, 826.446 747.312, 825.025 740.658 C 824.123 736.433, 822.901 734.464, 818.269 729.776 C 815.159 726.628, 812.814 723.883, 813.057 723.675 C 826.310 712.395, 865.857 684.134, 869.910 683.047 C 871.335 682.665, 875.425 682.969, 879 683.723 C 890.101 686.062, 898.653 682.480, 902.898 673.711 C 906.666 665.927, 905.396 658.487, 899.339 652.864 C 892.357 646.382, 885.210 644.896, 875.986 648.008 C 868.297 650.603, 863.189 650.309, 856.353 646.878 C 850.754 644.068, 849.019 641.778, 850.596 639.278 C 851.255 638.234, 861.492 634.120, 876.591 628.830 C 904.639 619.005, 909.130 618.249, 914.182 622.500 C 919.560 627.025, 928.806 625.138, 936.144 618.019 C 944.618 609.798, 944.863 600.670, 936.856 591.573 C 931.526 585.518, 929.048 579.643, 929.022 572.993 C 928.990 564.955, 930.239 561.727, 936.961 552.475 C 944.169 542.553, 944.547 539.774, 939.997 530.155 C 936.313 522.367, 935.327 515.005, 937.012 507.856 C 938.977 499.516, 942.298 493.883, 947.835 489.500 C 957.124 482.147, 959.342 471.649, 953.479 462.789 C 952.105 460.712, 949.255 457.924, 947.147 456.593 C 941.721 453.168, 940.700 449.959, 941.155 437.768 L 941.538 427.500 946.404 419.700 C 951.017 412.304, 951.241 411.624, 950.720 406.578 C 949.925 398.875, 946.886 393.604, 941.379 390.376 C 933.620 385.829, 924.928 387.390, 917.594 394.649 C 914.586 397.626, 911.060 404.326, 911.022 407.135 C 910.992 409.353, 906.720 412, 903.170 412 C 901.575 412, 899.037 411.030, 897.531 409.846 C 894.943 407.810, 894.815 407.327, 895.218 401.096 C 895.582 395.477, 896.820 391.916, 903.573 377.060 C 912.474 357.477, 916.564 351.980, 923.642 350.088 C 930.495 348.256, 938.034 338.367, 937.978 331.282 C 937.946 327.206, 934.701 320.724, 930.232 315.810 C 922.473 307.277, 907.743 283.423, 896.695 261.500 C 886.003 240.285, 885 237.589, 885 230.072 C 885 221.086, 881.743 214.356, 875.753 210.962 C 871.565 208.589, 866.560 208.166, 853.500 209.081 C 847.037 209.534, 731.612 138.737, 693.370 110.864 C 681.367 102.117, 680.044 100.543, 680.014 94.982 C 679.994 91.339, 675.522 85.306, 671.216 83.115 C 668.942 81.957, 663.232 80.767, 656.500 80.048 C 650.450 79.401, 636.152 76.876, 624.726 74.436 C 606.785 70.605, 602.335 70, 592.091 70 C 571.419 70, 563.831 74.459, 555.317 91.609 L 550.643 101.025 549.056 94.763 C 544.431 76.510, 524.443 62.033, 507.500 64.664 M 492.871 77.844 C 484.213 81.343, 467.011 91.981, 459.048 98.762 L 455.596 101.701 463.548 104.303 C 475.469 108.204, 483.221 109.995, 494.924 111.553 C 511.672 113.783, 539.339 113.061, 542.077 110.323 C 543.653 108.747, 541.551 98.652, 538.386 92.600 C 531.480 79.392, 526.731 76.708, 509.500 76.275 C 499.606 76.027, 496.688 76.302, 492.871 77.844 M 579.075 79.721 C 570.145 82.874, 562.611 94.247, 561.299 106.554 L 560.761 111.608 599.130 111.259 C 620.234 111.068, 638.453 110.712, 639.618 110.469 C 641.578 110.061, 641.774 109.222, 642.239 99.264 C 642.515 93.344, 642.662 88.401, 642.566 88.279 C 642.470 88.158, 631.567 85.795, 618.336 83.029 C 593.011 77.735, 586.300 77.169, 579.075 79.721 M 429.372 87.655 C 428.397 91.537, 430.094 93.455, 434.814 93.806 C 439.352 94.143, 443 92.687, 443 90.537 C 443 88.059, 437.965 85, 433.884 85 C 430.556 85, 429.948 85.357, 429.372 87.655 M 654.077 93.077 C 649.913 97.241, 649.857 102.010, 653.923 106.077 C 657.745 109.899, 664.531 110.230, 667.701 106.750 C 672.922 101.017, 673.130 97.930, 668.600 93.400 C 663.942 88.742, 658.532 88.622, 654.077 93.077 M 430.263 109.507 C 425.222 113.822, 412 131.896, 412 134.472 C 412 137.377, 439.953 133.179, 448.623 128.971 C 451.990 127.337, 455.492 126, 456.405 126 C 461.048 126, 472 133.389, 472 136.522 C 472 137.143, 473.078 138.665, 474.397 139.903 C 476.502 141.881, 478.171 142.220, 488.147 142.698 C 508.617 143.677, 525.239 140.489, 532.132 134.262 C 535.494 131.224, 540 124.511, 540 122.540 C 540 122.243, 534.938 121.979, 528.750 121.954 C 522.563 121.929, 510.525 121.529, 502 121.065 C 487.027 120.251, 485.634 119.980, 461.045 113.111 C 447.045 109.200, 435.314 106, 434.975 106 C 434.637 106, 432.516 107.578, 430.263 109.507 M 389.321 120.454 C 366.508 129.684, 355.545 135.015, 357.819 135.773 C 358.454 135.985, 362.104 135.672, 365.929 135.079 C 369.754 134.486, 377.522 133.997, 383.192 133.994 C 397.595 133.987, 399.979 133.139, 406.019 125.881 C 410.350 120.677, 415 113.252, 415 111.540 C 415 110.277, 411.300 111.561, 389.321 120.454 M 671.885 115.847 C 670.573 116.862, 666.144 118.703, 662.043 119.938 C 653.408 122.538, 645.772 126.249, 627 136.968 C 619.575 141.208, 608.004 147.290, 601.287 150.482 C 589.882 155.904, 588.717 156.251, 583.675 155.730 C 571.369 154.460, 562.171 146.372, 555.013 130.528 L 550.634 120.838 547.312 127.830 C 543.375 136.119, 536.813 142.507, 527.665 146.958 C 517.309 151.996, 511.428 153, 492.283 153 C 460.444 153, 434.521 159.114, 409.324 172.566 C 394.475 180.493, 390.357 183.574, 387.434 188.944 C 383.502 196.168, 378.277 199.467, 370.767 199.467 C 365.196 199.467, 364.602 199.233, 361.468 195.814 C 357.362 191.333, 355.440 185.044, 356.899 180.860 C 359.216 174.214, 361.443 172.353, 373.976 166.589 C 376.822 165.280, 387.718 152.625, 390.949 146.878 L 393.128 143 376.307 143 C 358.181 143, 354.656 143.580, 349.010 147.493 C 346.995 148.889, 342.318 150.666, 338.617 151.440 C 331.241 152.983, 329.581 153.976, 327.434 158.128 C 324.946 162.939, 325.665 165.447, 331.488 172.268 C 338.226 180.162, 340 184.231, 340 191.796 C 340 196.669, 339.481 198.441, 336.920 202.307 C 328.765 214.619, 319.619 218.076, 291.500 219.475 C 284.350 219.831, 276.855 220.550, 274.845 221.074 C 270.809 222.125, 266.118 225.445, 267.173 226.503 C 267.543 226.875, 272.718 227.506, 278.673 227.905 C 288.872 228.589, 293.535 229.855, 295.235 232.400 C 295.639 233.005, 295.975 235.750, 295.981 238.500 C 296 246.627, 291.037 253.021, 282.815 255.462 C 271.765 258.744, 264.172 256.166, 257.701 246.936 C 249.528 235.279, 242.967 236.363, 240.950 249.704 C 240.289 254.071, 237.919 261.498, 234.930 268.566 C 232.219 274.979, 230.009 280.737, 230.020 281.363 C 230.031 281.988, 232.315 283.850, 235.095 285.500 C 251.119 295.009, 264.238 317.922, 262.472 333.317 C 259.981 355.026, 249.759 365.512, 228.557 368.105 C 222.284 368.873, 219.063 368.846, 216.516 368.005 C 211.702 366.417, 199.855 358.386, 191.574 351.098 C 180.198 341.087, 170.763 337.676, 165.209 341.566 C 163.979 342.427, 162.047 344.947, 160.916 347.166 C 159.073 350.776, 158.859 352.999, 158.868 368.386 C 158.880 386.911, 160.255 395.950, 164.544 405.680 C 167.896 413.282, 169.863 414.003, 187.200 413.985 C 204.229 413.968, 205.722 413.437, 208.292 406.483 C 211.642 397.418, 218.347 393.094, 226.765 394.570 C 232.183 395.520, 234.488 397.310, 237.018 402.536 C 238.962 406.553, 239.114 407.676, 238.149 410.898 C 237.535 412.945, 235.957 415.631, 234.641 416.868 C 232.070 419.283, 223.504 421.969, 218.311 421.988 C 215.289 421.999, 215.086 422.241, 214.431 426.614 C 214.050 429.152, 213.945 442.016, 214.198 455.200 C 214.699 481.329, 214.442 480.323, 220.888 481.382 C 232.910 483.357, 237.283 492.982, 231.422 504.567 C 226.977 513.353, 219.817 515.412, 213.376 509.757 C 209.484 506.340, 205.026 498.064, 205.010 494.225 C 204.997 491.277, 201.650 490, 193.935 490 L 188 490 188.014 512.750 C 188.021 525.263, 188.282 536.450, 188.594 537.612 C 189.114 539.550, 190.042 539.768, 199.831 540.249 C 212.032 540.848, 216.316 542.226, 226.276 548.750 C 239.388 557.338, 245.962 570.125, 245.988 587.091 C 245.995 591.266, 245.330 596.891, 244.511 599.591 C 243.692 602.291, 243.017 605.215, 243.011 606.088 C 243.005 606.962, 246.870 614.162, 251.601 622.088 C 259.381 635.126, 278 668.578, 278 669.520 C 278 669.731, 275.863 671.350, 273.250 673.118 C 264.180 679.255, 251.753 690.319, 248.928 694.775 C 247.365 697.239, 245.564 701.590, 244.926 704.442 C 243.824 709.365, 243.931 710.007, 247.023 717.052 C 252.659 729.894, 260.653 741.819, 265.872 745.172 C 269.949 747.792, 271.214 748.103, 276.500 747.784 C 285.026 747.271, 293.017 742.912, 313.054 727.845 C 322.311 720.885, 330.339 714.908, 330.896 714.564 C 333.192 713.145, 381.609 739.263, 389.408 746.128 C 395.463 751.458, 402.182 761.648, 401.798 764.920 C 401.563 766.934, 400.032 768.258, 394.500 771.233 C 377.830 780.199, 366.439 798.997, 369.044 813.241 C 370.472 821.047, 375.164 822.058, 379.753 815.548 C 386.078 806.574, 398.434 803.712, 406.838 809.274 C 409.153 810.806, 411.594 813.486, 412.374 815.352 C 414.220 819.771, 419.276 821.745, 432.344 823.152 C 445.859 824.607, 448.506 823.810, 458 815.424 C 466.847 807.610, 473.654 803.947, 485.107 800.836 C 492.393 798.857, 495.875 798.557, 511.500 798.562 C 526.835 798.566, 530.539 798.876, 536.515 800.655 C 555.385 806.270, 569.106 814.673, 589.380 833.029 C 602.396 844.812, 605.671 846.500, 615.524 846.500 L 623.548 846.500 628.911 842 C 632.578 838.923, 637.664 832.441, 644.996 821.500 C 661.106 797.462, 671.833 788, 682.976 788 C 686.227 788, 694.139 792.445, 697.946 796.411 C 699.842 798.385, 702.092 800, 702.946 799.999 C 703.801 799.998, 705.806 797.636, 707.402 794.749 C 711.593 787.169, 724.363 768.643, 731.009 760.500 C 747.161 740.713, 766.061 728.150, 788.038 722.595 C 798.284 720.005, 809.867 713.431, 832.789 697.196 C 846.352 687.589, 863.391 672.376, 865.957 667.580 C 867.093 665.458, 867.057 664.737, 865.720 662.695 C 861.881 656.836, 849.702 655.245, 837.880 659.058 C 827.018 662.561, 818.931 659.827, 814.324 651.093 C 811.445 645.633, 811.189 637.118, 813.752 632.025 C 814.713 630.115, 817.441 627.197, 819.812 625.542 C 823.400 623.039, 825.099 622.533, 829.922 622.533 C 834.677 622.533, 836.464 623.050, 839.864 625.405 C 843.451 627.891, 844.646 628.202, 848.754 627.715 C 859.094 626.490, 896.218 612.405, 900.069 608.246 C 900.958 607.286, 902.487 604.315, 903.466 601.645 C 905.501 596.093, 909.609 591.023, 914.540 587.975 C 919.764 584.747, 921.386 576.158, 918.849 565.167 C 917.877 560.957, 916.934 559.598, 912.793 556.440 C 904.271 549.941, 901.175 540.401, 905.014 532.471 C 907.331 527.684, 910.696 524.648, 917.912 520.833 C 920.339 519.550, 923.166 517.360, 924.195 515.967 C 926.759 512.497, 928.974 503.657, 928.988 496.842 C 928.999 491.646, 928.645 490.747, 924.660 485.842 C 919.133 479.039, 918 476.860, 918 473.034 C 918 468.514, 920.108 464.191, 925.235 458.193 C 931.072 451.366, 932.486 446.384, 931.601 435.767 C 930.938 427.814, 929.703 424.447, 927.867 425.582 C 926.453 426.456, 920.436 424.139, 918.466 421.962 C 916.245 419.508, 910.172 419.352, 905.700 421.633 C 903.940 422.531, 899.350 426.065, 895.500 429.487 C 887.218 436.847, 883.371 439, 878.500 439 C 873.820 439, 870.183 437.052, 865.796 432.195 C 859.039 424.716, 858.203 415.054, 863.718 408.175 C 866.950 404.143, 875.252 399.060, 878.665 399.023 C 884.449 398.961, 898.395 372.013, 901.981 353.970 C 903.155 348.066, 903.071 346.592, 901.058 337.754 C 898.951 328.508, 898.614 327.828, 894.172 323.876 C 888.498 318.828, 881.263 315.351, 873.423 313.901 C 868.531 312.997, 866.613 313.103, 861.857 314.543 C 853.404 317.103, 846.854 316.212, 842.358 311.891 C 837.507 307.229, 836.329 304.608, 835.468 296.561 C 834.781 290.128, 834.392 289.265, 830.145 284.723 C 825.443 279.697, 788.236 252.503, 738.250 217.560 C 722.712 206.698, 710 197.453, 710 197.015 C 710 196.577, 711.462 194.166, 713.250 191.657 C 715.038 189.148, 721.675 179.867, 728 171.031 C 734.325 162.196, 739.631 154.581, 739.791 154.109 C 739.952 153.637, 735.002 150.109, 728.791 146.268 C 722.581 142.427, 710.750 134.890, 702.500 129.520 C 690.663 121.815, 676.585 114, 674.542 114 C 674.392 114, 673.197 114.831, 671.885 115.847 M 571.500 120.086 C 562.584 121.268, 562 121.509, 562 124.002 C 562 130.545, 571.399 141.605, 578.858 143.839 C 586.976 146.271, 591.230 145.446, 604.311 138.903 C 611.015 135.549, 620.739 130.285, 625.921 127.203 C 635.230 121.668, 635.307 121.590, 632.421 120.666 C 628.443 119.391, 580.199 118.932, 571.500 120.086 M 333.491 131.018 C 330.237 137.309, 332.740 142, 339.350 142 C 344.104 142, 345.982 138.785, 344.010 134.024 C 342.575 130.561, 342.120 130.182, 337.958 128.988 C 335.298 128.225, 334.824 128.441, 333.491 131.018 M 452.991 138.012 C 448.988 143.635, 453.119 150.343, 459.382 148.391 C 462.240 147.500, 462.967 146.171, 462.985 141.807 C 462.996 139.113, 462.399 137.692, 460.777 136.557 C 457.489 134.253, 455.388 134.646, 452.991 138.012 M 403.285 144.715 C 401.402 146.598, 390.714 162.451, 386.070 170.250 C 384.842 172.313, 384.287 174, 384.837 174 C 387.622 174, 433.324 151.328, 440.323 146.473 C 443.561 144.228, 440.260 143.621, 422.398 143.179 C 406.379 142.782, 405.116 142.884, 403.285 144.715 M 737.190 173.295 C 726.695 188.332, 723.005 194.736, 723.706 196.701 C 723.941 197.362, 728.492 200.608, 733.817 203.914 C 739.143 207.220, 764.200 224.335, 789.500 241.946 C 817.700 261.575, 837.628 274.780, 841 276.071 C 844.025 277.229, 849.875 278.423, 854 278.725 C 858.125 279.027, 862.684 279.871, 864.131 280.601 C 868.409 282.759, 871.767 287.602, 873.093 293.523 C 874.505 299.836, 878.514 304.201, 886.714 308.353 C 899.779 314.969, 911 315.711, 911 309.958 C 911 308.016, 896.211 279.529, 886.400 262.575 C 877.464 247.132, 874.749 244.859, 864.246 244.038 C 852.610 243.128, 849.155 240.394, 846.503 230 C 845.500 226.072, 843.787 222.352, 842.172 220.599 C 838.049 216.123, 756.245 162.565, 749.774 160.104 C 747.170 159.114, 746.859 159.440, 737.190 173.295 M 301.025 177.821 C 297.337 181.509, 296.890 186.335, 300.078 188.042 C 301.221 188.654, 302.818 188.900, 303.628 188.589 C 305.030 188.051, 310.593 177.259, 309.851 176.517 C 309.656 176.322, 308.271 175.855, 306.773 175.479 C 304.568 174.926, 303.475 175.371, 301.025 177.821 M 367.035 180.934 C 365.523 183.760, 365.771 188.565, 367.503 190.003 C 368.330 190.689, 370.128 191.250, 371.500 191.250 C 375.097 191.250, 377 189.237, 377 185.434 C 377 179.933, 369.406 176.504, 367.035 180.934 M 859.166 217.834 C 856.808 220.192, 855.486 225.815, 856.417 229.524 C 857.142 232.416, 862.353 235.991, 865.850 235.996 C 868.708 236.001, 875 229.986, 875 227.249 C 875 223.921, 873.055 219.515, 871.026 218.248 C 869.960 217.582, 867.317 216.755, 865.154 216.409 C 861.983 215.902, 860.822 216.178, 859.166 217.834 M 266.250 236.820 C 263.028 237.277, 263.471 239.765, 267.442 243.510 C 274.432 250.102, 283.944 248.471, 286.449 240.250 C 287.020 238.375, 286.748 237.990, 284.817 237.938 C 283.543 237.904, 279.350 237.567, 275.500 237.188 C 271.650 236.810, 267.488 236.644, 266.250 236.820 M 217.988 239.896 C 215.616 241.489, 212.626 244.527, 211.343 246.646 C 206.953 253.899, 208.693 260.719, 217.430 270.500 L 221.896 275.500 226.615 265.500 C 230.170 257.966, 231.354 254.267, 231.417 250.500 C 231.520 244.273, 229.621 239.604, 226.385 238.130 C 223 236.587, 222.877 236.613, 217.988 239.896 M 847.589 291.077 C 842.386 297.260, 845.603 304.355, 854.151 305.548 C 858.125 306.103, 859.125 305.875, 861.016 303.984 C 862.890 302.110, 863.161 300.957, 862.787 296.446 C 862.203 289.409, 860.899 288, 854.966 288 C 850.847 288, 849.816 288.430, 847.589 291.077 M 213.885 301.661 C 208.676 308.172, 200.890 318.603, 196.583 324.840 L 188.752 336.180 193.516 341.017 C 199.096 346.681, 202.523 347.956, 205.059 345.310 C 206.013 344.314, 213.155 333.600, 220.930 321.500 C 230.803 306.135, 234.981 298.776, 234.783 297.099 C 234.447 294.249, 230.706 291.259, 226.429 290.422 C 223.492 289.848, 222.944 290.339, 213.885 301.661 M 241.442 310.238 C 234.918 317.654, 209.816 354.079, 210.322 355.396 C 211.012 357.196, 217.948 359.002, 224.116 358.988 C 236.098 358.962, 244.655 354.726, 250.038 346.156 C 252.712 341.898, 252.964 340.718, 252.981 332.355 C 253.001 322.524, 250.523 312.102, 247.183 307.977 L 245.384 305.756 241.442 310.238 M 912.873 321.651 C 908.509 326.645, 907.888 331.664, 911.004 336.775 C 914.540 342.574, 920.777 343.314, 925.586 338.505 C 927.475 336.615, 928 335.035, 928 331.233 C 928 327.181, 927.520 325.914, 925.112 323.607 C 921.353 320.006, 915.174 319.018, 912.873 321.651 M 924.654 398.815 C 919.130 404.628, 921.686 412.715, 929.750 414.942 C 933.647 416.017, 935.579 415.531, 938.750 412.677 C 940.471 411.128, 941 409.557, 941 406 C 941 400.155, 938.271 397.268, 931.943 396.418 C 927.931 395.878, 927.224 396.111, 924.654 398.815 M 145.526 404.950 C 143.239 409.371, 143.644 410.953, 147.468 412.551 C 152.210 414.533, 158 414.477, 158 412.450 C 158 409.562, 154.980 405.041, 152.033 403.517 C 147.977 401.420, 147.271 401.575, 145.526 404.950 M 219.452 404.646 C 218.104 406.101, 217 407.865, 217 408.564 C 217 409.264, 216.727 410.548, 216.393 411.418 C 215.890 412.728, 216.621 412.997, 220.643 412.985 C 226.949 412.965, 228.200 412.057, 228.200 407.500 C 228.200 401.541, 223.693 400.071, 219.452 404.646 M 872.522 411.680 C 867.475 416.877, 867.120 419.287, 870.661 424.325 C 875.262 430.872, 881.366 431.725, 886.545 426.545 C 891.613 421.478, 890.254 414.174, 883.462 409.976 C 878.884 407.147, 876.576 407.507, 872.522 411.680 M 168 451.500 L 168 481 186.349 481 L 204.698 481 205.344 471.250 C 205.699 465.887, 205.992 452.613, 205.995 441.750 L 206 422 187 422 L 168 422 168 451.500 M 930.616 466.657 C 929.155 468.118, 927.707 470.319, 927.398 471.549 C 926.717 474.263, 929.176 479.309, 932.217 481.439 C 938.180 485.616, 947 480.879, 947 473.500 C 947 465.164, 936.496 460.777, 930.616 466.657 M 149.542 493.269 C 145.235 497.377, 144.431 500.104, 146.727 502.818 C 149.472 506.064, 153.416 506.584, 155.964 504.036 C 157.692 502.308, 158.044 500.926, 157.801 496.809 C 157.550 492.562, 157.122 491.580, 155.214 490.879 C 153.368 490.200, 152.278 490.659, 149.542 493.269 M 215.550 490.783 C 213.501 492.833, 216.428 502.183, 219.486 503.356 C 223.226 504.791, 227.340 494.564, 223.882 492.427 C 222.139 491.350, 216.163 490.171, 215.550 490.783 M 916.606 532.351 C 910.508 538.029, 910.710 542.670, 917.323 548.847 C 920.482 551.798, 924.646 551.128, 929.469 546.893 C 933.535 543.323, 934.525 539.916, 932.587 536.169 C 930.787 532.688, 929.331 531.454, 924.779 529.552 L 921.212 528.062 916.606 532.351 M 172.481 558.261 C 167.267 563.088, 165.047 565.973, 163.741 569.616 C 159.661 580.998, 162.463 584.745, 176.324 586.447 L 182.149 587.163 181.463 572.831 C 181.086 564.949, 180.484 556.990, 180.124 555.145 L 179.471 551.790 172.481 558.261 M 916.359 598.665 C 912.306 602.451, 911.526 605.184, 913.443 608.889 C 915.555 612.974, 918.752 615, 923.088 615 C 928.402 615, 931.732 611.971, 932.571 606.373 C 933.177 602.335, 932.964 601.509, 930.746 599.292 C 929.092 597.638, 926.734 596.612, 923.836 596.285 C 920.010 595.854, 919.036 596.164, 916.359 598.665 M 209.825 600.038 C 207.211 601.563, 205.730 607.159, 207.033 610.586 C 208.420 614.234, 209.348 614.775, 215.554 615.550 C 221.673 616.314, 227.040 614.395, 229.567 610.539 C 231.251 607.968, 231.225 607.843, 228.394 604.832 C 226.802 603.139, 224.052 601.134, 222.282 600.377 C 218.569 598.788, 212.262 598.616, 209.825 600.038 M 823.954 633.892 C 820.552 637.294, 819.930 643.028, 822.557 646.777 C 823.857 648.634, 825.056 649, 829.834 649 C 836.813 649, 840 647.116, 840 642.990 C 840 637.074, 836.525 633.231, 829.704 631.605 C 827.440 631.066, 826.345 631.501, 823.954 633.892 M 878.104 658.535 C 874.637 662.484, 874.294 664.735, 876.510 669.020 C 878.458 672.787, 880.833 674, 886.260 674 C 892.532 674, 895.230 670.972, 894.810 664.405 C 894.539 660.174, 894.073 659.280, 891.102 657.283 C 886.003 653.857, 881.861 654.256, 878.104 658.535 M 795.050 735.123 C 792.254 739.675, 790.800 745.353, 791.607 748.570 C 792.561 752.371, 796.995 753.909, 805.500 753.389 C 811.439 753.026, 812.841 752.577, 814.750 750.425 C 817.302 747.548, 817.457 746.258, 815.885 741.009 C 814.997 738.048, 813.853 736.841, 810.293 735.111 C 807.830 733.915, 803.860 732.668, 801.471 732.341 C 797.352 731.776, 797.017 731.922, 795.050 735.123 M 390.190 817.769 C 385.666 821.353, 385.696 831.273, 390.239 834.455 C 391.453 835.305, 394.180 836, 396.299 836 C 403.573 836, 407.845 828.982, 405.048 821.626 C 403.250 816.896, 394.243 814.558, 390.190 817.769 M 462.512 825.213 C 456.721 828.570, 454.984 836.815, 459.250 840.701 C 466.125 846.963, 473.118 844.861, 475.331 835.869 C 477.197 828.286, 468.986 821.460, 462.512 825.213" stroke="none" fill="#040404" fill-rule="evenodd"></path>
	<circle id="dot" class="dot" r="6" cx="0" cy="0"></circle>
</svg>